<?xml version="1.0" encoding="UTF-8" standalone="no"?>
<svg
   xmlns:dc="http://purl.org/dc/elements/1.1/"
   xmlns:cc="http://creativecommons.org/ns#"
   xmlns:rdf="http://www.w3.org/1999/02/22-rdf-syntax-ns#"
   xmlns:svg="http://www.w3.org/2000/svg"
   xmlns="http://www.w3.org/2000/svg"
   viewBox="0 0 1200 700"
   height="700"
   width="1200"
   xml:space="preserve"
   version="1.1"
   id="svg2"><metadata
     id="metadata8"><rdf:RDF><cc:Work
         rdf:about=""><dc:format>image/svg+xml</dc:format><dc:type
           rdf:resource="http://purl.org/dc/dcmitype/StillImage" /></cc:Work></rdf:RDF></metadata><defs
     id="defs6"><clipPath
       id="clipPath18"
       clipPathUnits="userSpaceOnUse"><path
         id="path20"
         d="M 0,560 960,560 960,0 0,0 0,560 Z" /></clipPath></defs><g
     transform="matrix(1.25,0,0,-1.25,0,700)"
     id="g10"><path
       id="path12"
       style="fill:#41a3a3;fill-opacity:1;fill-rule:nonzero;stroke:none"
       d="m 457.667,357.471 -54.333,0 0,37.789 54.333,0 0,-37.789 z" /><g
       id="g14"><g
         clip-path="url(#clipPath18)"
         id="g16"><g
           transform="translate(273.5827,141.8711)"
           id="g22"><path
             id="path24"
             style="fill:#41a3a3;fill-opacity:1;fill-rule:nonzero;stroke:none"
             d="m 0,0 120.261,0 c 8.586,0 15.547,6.961 15.547,15.547 l 0,288.906 c 0,8.586 -6.961,15.547 -15.547,15.547 L 0,320 c -8.586,0 -15.547,-6.961 -15.547,-15.547 l 0,-288.906 C -15.547,6.961 -8.586,0 0,0" /></g><g
           transform="translate(379.3335,415.7881)"
           id="g26"><path
             id="path28"
             style="fill:#c7ffff;fill-opacity:1;fill-rule:nonzero;stroke:none"
             d="m 0,0 c -1.521,0 -2.759,1.238 -2.759,2.759 l 0,21.703 c 0,1.522 1.238,2.76 2.759,2.76 l 15.259,0 c 1.522,0 2.76,-1.238 2.76,-2.76 l 0,-21.703 C 18.019,1.238 16.781,0 15.259,0 L 0,0 Z" /></g><g
           transform="translate(394.5924,443.2597)"
           id="g30"><path
             id="path32"
             style="fill:#1c7c7c;fill-opacity:1;fill-rule:nonzero;stroke:none"
             d="m 0,0 -15.259,0 c -1.659,0 -3.009,-1.35 -3.009,-3.009 l 0,-21.703 c 0,-1.66 1.35,-3.01 3.009,-3.01 l 15.259,0 c 1.659,0 3.009,1.35 3.009,3.01 l 0,21.703 C 3.009,-1.35 1.659,0 0,0 m 0,-0.5 c 1.386,0 2.509,-1.124 2.509,-2.509 l 0,-21.703 c 0,-1.386 -1.123,-2.51 -2.509,-2.51 l -15.259,0 c -1.386,0 -2.509,1.124 -2.509,2.51 l 0,21.703 c 0,1.385 1.123,2.509 2.509,2.509 L 0,-0.5" /></g><g
           transform="translate(377.9855,441.3342)"
           id="g34"><path
             id="path36"
             style="fill:#ebfcfb;fill-opacity:1;fill-rule:nonzero;stroke:none"
             d="m 0,0 18.239,-24.135 c 0.254,-0.337 0.877,-0.186 0.877,0.212 l 0,23.569 c 0,1.044 -1.012,1.891 -2.261,1.891 l -15.842,0 C 0.069,1.537 -0.504,0.667 0,0" /></g><g
           transform="translate(351.896,415.7324)"
           id="g38"><path
             id="path40"
             style="fill:#c7ffff;fill-opacity:1;fill-rule:nonzero;stroke:none"
             d="m 0,0 c -1.521,0 -2.759,1.238 -2.759,2.759 l 0,21.703 c 0,1.522 1.238,2.76 2.759,2.76 l 15.259,0 c 1.522,0 2.76,-1.238 2.76,-2.76 l 0,-21.703 C 18.019,1.238 16.781,0 15.259,0 L 0,0 Z" /></g><g
           transform="translate(367.155,443.2041)"
           id="g42"><path
             id="path44"
             style="fill:#1c7c7c;fill-opacity:1;fill-rule:nonzero;stroke:none"
             d="m 0,0 -15.259,0 c -1.659,0 -3.009,-1.35 -3.009,-3.009 l 0,-21.703 c 0,-1.66 1.35,-3.01 3.009,-3.01 l 15.259,0 c 1.659,0 3.009,1.35 3.009,3.01 l 0,21.703 C 3.009,-1.35 1.659,0 0,0 m 0,-0.5 c 1.386,0 2.509,-1.124 2.509,-2.509 l 0,-21.703 c 0,-1.386 -1.123,-2.51 -2.509,-2.51 l -15.259,0 c -1.386,0 -2.509,1.124 -2.509,2.51 l 0,21.703 c 0,1.385 1.123,2.509 2.509,2.509 L 0,-0.5" /></g><g
           transform="translate(350.548,441.2786)"
           id="g46"><path
             id="path48"
             style="fill:#ebfcfb;fill-opacity:1;fill-rule:nonzero;stroke:none"
             d="m 0,0 18.239,-24.135 c 0.254,-0.337 0.877,-0.186 0.877,0.212 l 0,23.569 c 0,1.044 -1.012,1.891 -2.261,1.891 l -15.842,0 C 0.069,1.537 -0.504,0.667 0,0" /></g><g
           transform="translate(324.8086,415.7324)"
           id="g50"><path
             id="path52"
             style="fill:#c7ffff;fill-opacity:1;fill-rule:nonzero;stroke:none"
             d="m 0,0 c -1.521,0 -2.759,1.238 -2.759,2.759 l 0,21.703 c 0,1.522 1.238,2.76 2.759,2.76 l 15.259,0 c 1.522,0 2.76,-1.238 2.76,-2.76 l 0,-21.703 C 18.019,1.238 16.781,0 15.259,0 L 0,0 Z" /></g><g
           transform="translate(340.0677,443.2041)"
           id="g54"><path
             id="path56"
             style="fill:#1c7c7c;fill-opacity:1;fill-rule:nonzero;stroke:none"
             d="m 0,0 -15.259,0 c -1.659,0 -3.009,-1.35 -3.009,-3.009 l 0,-21.703 c 0,-1.66 1.35,-3.01 3.009,-3.01 l 15.259,0 c 1.659,0 3.009,1.35 3.009,3.01 l 0,21.703 C 3.009,-1.35 1.659,0 0,0 m 0,-0.5 c 1.386,0 2.509,-1.124 2.509,-2.509 l 0,-21.703 c 0,-1.386 -1.123,-2.51 -2.509,-2.51 l -15.259,0 c -1.386,0 -2.509,1.124 -2.509,2.51 l 0,21.703 c 0,1.385 1.123,2.509 2.509,2.509 L 0,-0.5" /></g><g
           transform="translate(323.4608,441.2786)"
           id="g58"><path
             id="path60"
             style="fill:#ebfcfb;fill-opacity:1;fill-rule:nonzero;stroke:none"
             d="m 0,0 18.239,-24.135 c 0.254,-0.337 0.877,-0.186 0.877,0.212 l 0,23.569 c 0,1.044 -1.012,1.891 -2.261,1.891 l -15.842,0 C 0.069,1.537 -0.504,0.667 0,0" /></g><g
           transform="translate(297.5464,415.6768)"
           id="g62"><path
             id="path64"
             style="fill:#c7ffff;fill-opacity:1;fill-rule:nonzero;stroke:none"
             d="m 0,0 c -1.521,0 -2.759,1.238 -2.759,2.759 l 0,21.703 c 0,1.522 1.238,2.76 2.759,2.76 l 15.259,0 c 1.522,0 2.76,-1.238 2.76,-2.76 l 0,-21.703 C 18.019,1.238 16.781,0 15.259,0 L 0,0 Z" /></g><g
           transform="translate(312.8053,443.1484)"
           id="g66"><path
             id="path68"
             style="fill:#1c7c7c;fill-opacity:1;fill-rule:nonzero;stroke:none"
             d="m 0,0 -15.259,0 c -1.659,0 -3.009,-1.35 -3.009,-3.009 l 0,-21.703 c 0,-1.66 1.35,-3.01 3.009,-3.01 l 15.259,0 c 1.659,0 3.009,1.35 3.009,3.01 l 0,21.703 C 3.009,-1.35 1.659,0 0,0 m 0,-0.5 c 1.386,0 2.509,-1.124 2.509,-2.509 l 0,-21.703 c 0,-1.386 -1.123,-2.51 -2.509,-2.51 l -15.259,0 c -1.386,0 -2.509,1.124 -2.509,2.51 l 0,21.703 c 0,1.385 1.123,2.509 2.509,2.509 L 0,-0.5" /></g><g
           transform="translate(296.1984,441.2229)"
           id="g70"><path
             id="path72"
             style="fill:#ebfcfb;fill-opacity:1;fill-rule:nonzero;stroke:none"
             d="m 0,0 18.239,-24.135 c 0.254,-0.337 0.877,-0.186 0.877,0.212 l 0,23.569 c 0,1.044 -1.012,1.891 -2.261,1.891 l -15.842,0 C 0.069,1.537 -0.504,0.667 0,0" /></g><g
           transform="translate(268.4814,415.6211)"
           id="g74"><path
             id="path76"
             style="fill:#c7ffff;fill-opacity:1;fill-rule:nonzero;stroke:none"
             d="m 0,0 c -1.521,0 -2.759,1.238 -2.759,2.759 l 0,21.703 c 0,1.522 1.238,2.76 2.759,2.76 l 15.259,0 c 1.522,0 2.76,-1.238 2.76,-2.76 l 0,-21.703 C 18.019,1.238 16.781,0 15.259,0 L 0,0 Z" /></g><g
           transform="translate(283.7405,443.0927)"
           id="g78"><path
             id="path80"
             style="fill:#1c7c7c;fill-opacity:1;fill-rule:nonzero;stroke:none"
             d="m 0,0 -15.259,0 c -1.659,0 -3.009,-1.35 -3.009,-3.009 l 0,-21.703 c 0,-1.66 1.35,-3.01 3.009,-3.01 l 15.259,0 c 1.659,0 3.009,1.35 3.009,3.01 l 0,21.703 C 3.009,-1.35 1.659,0 0,0 m 0,-0.5 c 1.386,0 2.509,-1.124 2.509,-2.509 l 0,-21.703 c 0,-1.386 -1.123,-2.51 -2.509,-2.51 l -15.259,0 c -1.386,0 -2.509,1.124 -2.509,2.51 l 0,21.703 c 0,1.385 1.123,2.509 2.509,2.509 L 0,-0.5" /></g><g
           transform="translate(267.1335,441.1672)"
           id="g82"><path
             id="path84"
             style="fill:#ebfcfb;fill-opacity:1;fill-rule:nonzero;stroke:none"
             d="m 0,0 18.239,-24.135 c 0.254,-0.337 0.877,-0.186 0.877,0.212 l 0,23.569 c 0,1.044 -1.012,1.891 -2.261,1.891 l -15.842,0 C 0.069,1.537 -0.504,0.667 0,0" /></g><g
           transform="translate(377.8984,368.4546)"
           id="g86"><path
             id="path88"
             style="fill:#c7ffff;fill-opacity:1;fill-rule:nonzero;stroke:none"
             d="m 0,0 c -1.521,0 -2.759,1.238 -2.759,2.76 l 0,21.702 c 0,1.522 1.238,2.76 2.759,2.76 l 15.259,0 c 1.521,0 2.759,-1.238 2.759,-2.76 l 0,-21.702 C 18.018,1.238 16.78,0 15.259,0 L 0,0 Z" /></g><g
           transform="translate(393.1573,395.9264)"
           id="g90"><path
             id="path92"
             style="fill:#1c7c7c;fill-opacity:1;fill-rule:nonzero;stroke:none"
             d="m 0,0 -15.259,0 c -1.659,0 -3.009,-1.35 -3.009,-3.009 l 0,-21.703 c 0,-1.66 1.35,-3.01 3.009,-3.01 l 15.259,0 c 1.659,0 3.009,1.35 3.009,3.01 l 0,21.703 C 3.009,-1.35 1.659,0 0,0 m 0,-0.5 c 1.386,0 2.509,-1.124 2.509,-2.509 l 0,-21.703 c 0,-1.386 -1.123,-2.51 -2.509,-2.51 l -15.259,0 c -1.386,0 -2.509,1.124 -2.509,2.51 l 0,21.703 c 0,1.385 1.123,2.509 2.509,2.509 L 0,-0.5" /></g><g
           transform="translate(376.5504,394.0009)"
           id="g94"><path
             id="path96"
             style="fill:#ebfcfb;fill-opacity:1;fill-rule:nonzero;stroke:none"
             d="m 0,0 18.239,-24.135 c 0.254,-0.337 0.877,-0.186 0.877,0.212 l 0,23.569 c 0,1.044 -1.012,1.891 -2.261,1.891 l -15.842,0 C 0.069,1.537 -0.504,0.667 0,0" /></g><g
           transform="translate(350.4609,368.3989)"
           id="g98"><path
             id="path100"
             style="fill:#c7ffff;fill-opacity:1;fill-rule:nonzero;stroke:none"
             d="m 0,0 c -1.521,0 -2.759,1.238 -2.759,2.76 l 0,21.702 c 0,1.522 1.238,2.76 2.759,2.76 l 15.259,0 c 1.522,0 2.76,-1.238 2.76,-2.76 l 0,-21.702 C 18.019,1.238 16.781,0 15.259,0 L 0,0 Z" /></g><g
           transform="translate(365.7198,395.8707)"
           id="g102"><path
             id="path104"
             style="fill:#1c7c7c;fill-opacity:1;fill-rule:nonzero;stroke:none"
             d="m 0,0 -15.259,0 c -1.659,0 -3.009,-1.35 -3.009,-3.009 l 0,-21.703 c 0,-1.66 1.35,-3.01 3.009,-3.01 l 15.259,0 c 1.659,0 3.009,1.35 3.009,3.01 l 0,21.703 C 3.009,-1.35 1.659,0 0,0 m 0,-0.5 c 1.386,0 2.509,-1.124 2.509,-2.509 l 0,-21.703 c 0,-1.386 -1.123,-2.51 -2.509,-2.51 l -15.259,0 c -1.386,0 -2.509,1.124 -2.509,2.51 l 0,21.703 c 0,1.385 1.123,2.509 2.509,2.509 L 0,-0.5" /></g><g
           transform="translate(349.1129,393.9452)"
           id="g106"><path
             id="path108"
             style="fill:#ebfcfb;fill-opacity:1;fill-rule:nonzero;stroke:none"
             d="m 0,0 18.239,-24.135 c 0.254,-0.337 0.877,-0.186 0.877,0.212 l 0,23.569 c 0,1.044 -1.012,1.891 -2.261,1.891 l -15.842,0 C 0.069,1.537 -0.504,0.667 0,0" /></g><g
           transform="translate(323.3735,368.3989)"
           id="g110"><path
             id="path112"
             style="fill:#c7ffff;fill-opacity:1;fill-rule:nonzero;stroke:none"
             d="m 0,0 c -1.521,0 -2.759,1.238 -2.759,2.76 l 0,21.702 c 0,1.522 1.238,2.76 2.759,2.76 l 15.259,0 c 1.522,0 2.76,-1.238 2.76,-2.76 l 0,-21.702 C 18.019,1.238 16.781,0 15.259,0 L 0,0 Z" /></g><g
           transform="translate(338.6326,395.8707)"
           id="g114"><path
             id="path116"
             style="fill:#1c7c7c;fill-opacity:1;fill-rule:nonzero;stroke:none"
             d="m 0,0 -15.259,0 c -1.659,0 -3.009,-1.35 -3.009,-3.009 l 0,-21.703 c 0,-1.66 1.35,-3.01 3.009,-3.01 l 15.259,0 c 1.659,0 3.009,1.35 3.009,3.01 l 0,21.703 C 3.009,-1.35 1.659,0 0,0 m 0,-0.5 c 1.386,0 2.509,-1.124 2.509,-2.509 l 0,-21.703 c 0,-1.386 -1.123,-2.51 -2.509,-2.51 l -15.259,0 c -1.386,0 -2.509,1.124 -2.509,2.51 l 0,21.703 c 0,1.385 1.123,2.509 2.509,2.509 L 0,-0.5" /></g><g
           transform="translate(322.0256,393.9452)"
           id="g118"><path
             id="path120"
             style="fill:#ebfcfb;fill-opacity:1;fill-rule:nonzero;stroke:none"
             d="m 0,0 18.239,-24.135 c 0.254,-0.337 0.877,-0.186 0.877,0.212 l 0,23.569 c 0,1.044 -1.012,1.891 -2.261,1.891 l -15.842,0 C 0.069,1.537 -0.504,0.667 0,0" /></g><g
           transform="translate(296.1113,368.3433)"
           id="g122"><path
             id="path124"
             style="fill:#c7ffff;fill-opacity:1;fill-rule:nonzero;stroke:none"
             d="m 0,0 c -1.521,0 -2.759,1.238 -2.759,2.76 l 0,21.702 c 0,1.522 1.238,2.76 2.759,2.76 l 15.259,0 c 1.522,0 2.76,-1.238 2.76,-2.76 l 0,-21.702 C 18.019,1.238 16.781,0 15.259,0 L 0,0 Z" /></g><g
           transform="translate(311.3702,395.8151)"
           id="g126"><path
             id="path128"
             style="fill:#1c7c7c;fill-opacity:1;fill-rule:nonzero;stroke:none"
             d="m 0,0 -15.259,0 c -1.659,0 -3.009,-1.35 -3.009,-3.009 l 0,-21.703 c 0,-1.66 1.35,-3.01 3.009,-3.01 l 15.259,0 c 1.659,0 3.009,1.35 3.009,3.01 l 0,21.703 C 3.009,-1.35 1.659,0 0,0 m 0,-0.5 c 1.386,0 2.509,-1.124 2.509,-2.509 l 0,-21.703 c 0,-1.386 -1.123,-2.51 -2.509,-2.51 l -15.259,0 c -1.386,0 -2.509,1.124 -2.509,2.51 l 0,21.703 c 0,1.385 1.123,2.509 2.509,2.509 L 0,-0.5" /></g><g
           transform="translate(294.7632,393.8896)"
           id="g130"><path
             id="path132"
             style="fill:#ebfcfb;fill-opacity:1;fill-rule:nonzero;stroke:none"
             d="m 0,0 18.239,-24.135 c 0.254,-0.337 0.877,-0.186 0.877,0.212 l 0,23.569 c 0,1.044 -1.012,1.891 -2.261,1.891 l -15.842,0 C 0.069,1.537 -0.504,0.667 0,0" /></g><g
           transform="translate(267.0464,368.2876)"
           id="g134"><path
             id="path136"
             style="fill:#c7ffff;fill-opacity:1;fill-rule:nonzero;stroke:none"
             d="m 0,0 c -1.521,0 -2.759,1.238 -2.759,2.76 l 0,21.702 c 0,1.522 1.238,2.76 2.759,2.76 l 15.259,0 c 1.522,0 2.76,-1.238 2.76,-2.76 l 0,-21.702 C 18.019,1.238 16.781,0 15.259,0 L 0,0 Z" /></g><g
           transform="translate(282.3054,395.7594)"
           id="g138"><path
             id="path140"
             style="fill:#1c7c7c;fill-opacity:1;fill-rule:nonzero;stroke:none"
             d="m 0,0 -15.259,0 c -1.659,0 -3.009,-1.35 -3.009,-3.009 l 0,-21.703 c 0,-1.66 1.35,-3.01 3.009,-3.01 l 15.259,0 c 1.659,0 3.009,1.35 3.009,3.01 l 0,21.703 C 3.009,-1.35 1.659,0 0,0 m 0,-0.5 c 1.386,0 2.509,-1.124 2.509,-2.509 l 0,-21.703 c 0,-1.386 -1.123,-2.51 -2.509,-2.51 l -15.259,0 c -1.386,0 -2.509,1.124 -2.509,2.51 l 0,21.703 c 0,1.385 1.123,2.509 2.509,2.509 L 0,-0.5" /></g><g
           transform="translate(265.6984,393.8339)"
           id="g142"><path
             id="path144"
             style="fill:#ebfcfb;fill-opacity:1;fill-rule:nonzero;stroke:none"
             d="m 0,0 18.239,-24.135 c 0.254,-0.337 0.877,-0.186 0.877,0.212 l 0,23.569 c 0,1.044 -1.012,1.891 -2.261,1.891 l -15.842,0 C 0.069,1.537 -0.504,0.667 0,0" /></g><g
           transform="translate(377.8984,326.731)"
           id="g146"><path
             id="path148"
             style="fill:#c7ffff;fill-opacity:1;fill-rule:nonzero;stroke:none"
             d="m 0,0 c -1.521,0 -2.759,1.238 -2.759,2.759 l 0,21.703 c 0,1.522 1.238,2.76 2.759,2.76 l 15.259,0 c 1.521,0 2.759,-1.238 2.759,-2.76 l 0,-21.703 C 18.018,1.238 16.78,0 15.259,0 L 0,0 Z" /></g><g
           transform="translate(393.1573,354.2026)"
           id="g150"><path
             id="path152"
             style="fill:#1c7c7c;fill-opacity:1;fill-rule:nonzero;stroke:none"
             d="m 0,0 -15.259,0 c -1.659,0 -3.009,-1.35 -3.009,-3.009 l 0,-21.703 c 0,-1.66 1.35,-3.01 3.009,-3.01 l 15.259,0 c 1.659,0 3.009,1.35 3.009,3.01 l 0,21.703 C 3.009,-1.35 1.659,0 0,0 m 0,-0.5 c 1.386,0 2.509,-1.124 2.509,-2.509 l 0,-21.703 c 0,-1.386 -1.123,-2.51 -2.509,-2.51 l -15.259,0 c -1.386,0 -2.509,1.124 -2.509,2.51 l 0,21.703 c 0,1.385 1.123,2.509 2.509,2.509 L 0,-0.5" /></g><g
           transform="translate(376.5504,352.2771)"
           id="g154"><path
             id="path156"
             style="fill:#ebfcfb;fill-opacity:1;fill-rule:nonzero;stroke:none"
             d="m 0,0 18.239,-24.135 c 0.254,-0.337 0.877,-0.186 0.877,0.212 l 0,23.569 c 0,1.044 -1.012,1.891 -2.261,1.891 l -15.842,0 C 0.069,1.537 -0.504,0.667 0,0" /></g><g
           transform="translate(350.4609,326.6753)"
           id="g158"><path
             id="path160"
             style="fill:#c7ffff;fill-opacity:1;fill-rule:nonzero;stroke:none"
             d="m 0,0 c -1.521,0 -2.759,1.238 -2.759,2.759 l 0,21.703 c 0,1.522 1.238,2.76 2.759,2.76 l 15.259,0 c 1.522,0 2.76,-1.238 2.76,-2.76 l 0,-21.703 C 18.019,1.238 16.781,0 15.259,0 L 0,0 Z" /></g><g
           transform="translate(365.7198,354.1469)"
           id="g162"><path
             id="path164"
             style="fill:#1c7c7c;fill-opacity:1;fill-rule:nonzero;stroke:none"
             d="m 0,0 -15.259,0 c -1.659,0 -3.009,-1.35 -3.009,-3.009 l 0,-21.703 c 0,-1.66 1.35,-3.01 3.009,-3.01 l 15.259,0 c 1.659,0 3.009,1.35 3.009,3.01 l 0,21.703 C 3.009,-1.35 1.659,0 0,0 m 0,-0.5 c 1.386,0 2.509,-1.124 2.509,-2.509 l 0,-21.703 c 0,-1.386 -1.123,-2.51 -2.509,-2.51 l -15.259,0 c -1.386,0 -2.509,1.124 -2.509,2.51 l 0,21.703 c 0,1.385 1.123,2.509 2.509,2.509 L 0,-0.5" /></g><g
           transform="translate(349.1129,352.2214)"
           id="g166"><path
             id="path168"
             style="fill:#ebfcfb;fill-opacity:1;fill-rule:nonzero;stroke:none"
             d="m 0,0 18.239,-24.135 c 0.254,-0.337 0.877,-0.186 0.877,0.212 l 0,23.569 c 0,1.044 -1.012,1.891 -2.261,1.891 l -15.842,0 C 0.069,1.537 -0.504,0.667 0,0" /></g><g
           transform="translate(323.3735,326.6753)"
           id="g170"><path
             id="path172"
             style="fill:#c7ffff;fill-opacity:1;fill-rule:nonzero;stroke:none"
             d="m 0,0 c -1.521,0 -2.759,1.238 -2.759,2.759 l 0,21.703 c 0,1.522 1.238,2.76 2.759,2.76 l 15.259,0 c 1.522,0 2.76,-1.238 2.76,-2.76 l 0,-21.703 C 18.019,1.238 16.781,0 15.259,0 L 0,0 Z" /></g><g
           transform="translate(338.6326,354.1469)"
           id="g174"><path
             id="path176"
             style="fill:#1c7c7c;fill-opacity:1;fill-rule:nonzero;stroke:none"
             d="m 0,0 -15.259,0 c -1.659,0 -3.009,-1.35 -3.009,-3.009 l 0,-21.703 c 0,-1.66 1.35,-3.01 3.009,-3.01 l 15.259,0 c 1.659,0 3.009,1.35 3.009,3.01 l 0,21.703 C 3.009,-1.35 1.659,0 0,0 m 0,-0.5 c 1.386,0 2.509,-1.124 2.509,-2.509 l 0,-21.703 c 0,-1.386 -1.123,-2.51 -2.509,-2.51 l -15.259,0 c -1.386,0 -2.509,1.124 -2.509,2.51 l 0,21.703 c 0,1.385 1.123,2.509 2.509,2.509 L 0,-0.5" /></g><g
           transform="translate(322.0256,352.2214)"
           id="g178"><path
             id="path180"
             style="fill:#ebfcfb;fill-opacity:1;fill-rule:nonzero;stroke:none"
             d="m 0,0 18.239,-24.135 c 0.254,-0.337 0.877,-0.186 0.877,0.212 l 0,23.569 c 0,1.044 -1.012,1.891 -2.261,1.891 l -15.842,0 C 0.069,1.537 -0.504,0.667 0,0" /></g><g
           transform="translate(296.1113,326.6196)"
           id="g182"><path
             id="path184"
             style="fill:#c7ffff;fill-opacity:1;fill-rule:nonzero;stroke:none"
             d="m 0,0 c -1.521,0 -2.759,1.238 -2.759,2.759 l 0,21.703 c 0,1.522 1.238,2.76 2.759,2.76 l 15.259,0 c 1.522,0 2.76,-1.238 2.76,-2.76 l 0,-21.703 C 18.019,1.238 16.781,0 15.259,0 L 0,0 Z" /></g><g
           transform="translate(311.3702,354.0913)"
           id="g186"><path
             id="path188"
             style="fill:#1c7c7c;fill-opacity:1;fill-rule:nonzero;stroke:none"
             d="m 0,0 -15.259,0 c -1.659,0 -3.009,-1.35 -3.009,-3.009 l 0,-21.703 c 0,-1.66 1.35,-3.01 3.009,-3.01 l 15.259,0 c 1.659,0 3.009,1.35 3.009,3.01 l 0,21.703 C 3.009,-1.35 1.659,0 0,0 m 0,-0.5 c 1.386,0 2.509,-1.124 2.509,-2.509 l 0,-21.703 c 0,-1.386 -1.123,-2.51 -2.509,-2.51 l -15.259,0 c -1.386,0 -2.509,1.124 -2.509,2.51 l 0,21.703 c 0,1.385 1.123,2.509 2.509,2.509 L 0,-0.5" /></g><g
           transform="translate(294.7632,352.1657)"
           id="g190"><path
             id="path192"
             style="fill:#ebfcfb;fill-opacity:1;fill-rule:nonzero;stroke:none"
             d="m 0,0 18.239,-24.135 c 0.254,-0.337 0.877,-0.186 0.877,0.212 l 0,23.569 c 0,1.044 -1.012,1.891 -2.261,1.891 l -15.842,0 C 0.069,1.537 -0.504,0.667 0,0" /></g><g
           transform="translate(267.0464,326.564)"
           id="g194"><path
             id="path196"
             style="fill:#c7ffff;fill-opacity:1;fill-rule:nonzero;stroke:none"
             d="m 0,0 c -1.521,0 -2.759,1.238 -2.759,2.759 l 0,21.703 c 0,1.522 1.238,2.76 2.759,2.76 l 15.259,0 c 1.522,0 2.76,-1.238 2.76,-2.76 l 0,-21.703 C 18.019,1.238 16.781,0 15.259,0 L 0,0 Z" /></g><g
           transform="translate(282.3054,354.0356)"
           id="g198"><path
             id="path200"
             style="fill:#1c7c7c;fill-opacity:1;fill-rule:nonzero;stroke:none"
             d="m 0,0 -15.259,0 c -1.659,0 -3.009,-1.35 -3.009,-3.009 l 0,-21.703 c 0,-1.66 1.35,-3.01 3.009,-3.01 l 15.259,0 c 1.659,0 3.009,1.35 3.009,3.01 l 0,21.703 C 3.009,-1.35 1.659,0 0,0 m 0,-0.5 c 1.386,0 2.509,-1.123 2.509,-2.509 l 0,-21.703 c 0,-1.386 -1.123,-2.51 -2.509,-2.51 l -15.259,0 c -1.386,0 -2.509,1.124 -2.509,2.51 l 0,21.703 c 0,1.386 1.123,2.509 2.509,2.509 L 0,-0.5" /></g><g
           transform="translate(265.6984,352.1101)"
           id="g202"><path
             id="path204"
             style="fill:#ebfcfb;fill-opacity:1;fill-rule:nonzero;stroke:none"
             d="m 0,0 18.239,-24.135 c 0.254,-0.337 0.877,-0.186 0.877,0.212 l 0,23.569 c 0,1.044 -1.012,1.891 -2.261,1.891 l -15.842,0 C 0.069,1.537 -0.504,0.667 0,0" /></g><g
           transform="translate(324.2749,284.1216)"
           id="g206"><path
             id="path208"
             style="fill:#c7ffff;fill-opacity:1;fill-rule:nonzero;stroke:none"
             d="m 0,0 c -1.521,0 -2.759,1.238 -2.759,2.759 l 0,21.703 c 0,1.522 1.238,2.76 2.759,2.76 l 15.259,0 c 1.522,0 2.76,-1.238 2.76,-2.76 l 0,-21.703 C 18.019,1.238 16.781,0 15.259,0 L 0,0 Z" /></g><g
           transform="translate(339.5338,311.5931)"
           id="g210"><path
             id="path212"
             style="fill:#1c7c7c;fill-opacity:1;fill-rule:nonzero;stroke:none"
             d="m 0,0 -15.259,0 c -1.659,0 -3.009,-1.35 -3.009,-3.009 l 0,-21.703 c 0,-1.66 1.35,-3.01 3.009,-3.01 l 15.259,0 c 1.659,0 3.009,1.35 3.009,3.01 l 0,21.703 C 3.009,-1.35 1.659,0 0,0 m 0,-0.5 c 1.386,0 2.509,-1.124 2.509,-2.509 l 0,-21.703 c 0,-1.386 -1.123,-2.51 -2.509,-2.51 l -15.259,0 c -1.386,0 -2.509,1.124 -2.509,2.51 l 0,21.703 c 0,1.385 1.123,2.509 2.509,2.509 L 0,-0.5" /></g><g
           transform="translate(322.9268,309.6676)"
           id="g214"><path
             id="path216"
             style="fill:#ebfcfb;fill-opacity:1;fill-rule:nonzero;stroke:none"
             d="m 0,0 18.239,-24.135 c 0.254,-0.337 0.877,-0.186 0.877,0.212 l 0,23.569 c 0,1.044 -1.012,1.891 -2.261,1.891 l -15.842,0 C 0.069,1.537 -0.504,0.667 0,0" /></g><g
           transform="translate(297.0127,284.0659)"
           id="g218"><path
             id="path220"
             style="fill:#c7ffff;fill-opacity:1;fill-rule:nonzero;stroke:none"
             d="m 0,0 c -1.522,0 -2.76,1.238 -2.76,2.759 l 0,21.703 c 0,1.522 1.238,2.76 2.76,2.76 l 15.259,0 c 1.521,0 2.759,-1.238 2.759,-2.76 l 0,-21.703 C 18.018,1.238 16.78,0 15.259,0 L 0,0 Z" /></g><g
           transform="translate(312.2714,311.5374)"
           id="g222"><path
             id="path224"
             style="fill:#1c7c7c;fill-opacity:1;fill-rule:nonzero;stroke:none"
             d="m 0,0 -15.259,0 c -1.659,0 -3.009,-1.35 -3.009,-3.009 l 0,-21.703 c 0,-1.66 1.35,-3.01 3.009,-3.01 l 15.259,0 c 1.659,0 3.009,1.35 3.009,3.01 l 0,21.703 C 3.009,-1.35 1.659,0 0,0 m 0,-0.5 c 1.386,0 2.509,-1.124 2.509,-2.509 l 0,-21.703 c 0,-1.386 -1.123,-2.51 -2.509,-2.51 l -15.259,0 c -1.386,0 -2.509,1.124 -2.509,2.51 l 0,21.703 c 0,1.385 1.123,2.509 2.509,2.509 L 0,-0.5" /></g><g
           transform="translate(295.6645,309.6119)"
           id="g226"><path
             id="path228"
             style="fill:#ebfcfb;fill-opacity:1;fill-rule:nonzero;stroke:none"
             d="m 0,0 18.239,-24.135 c 0.254,-0.337 0.877,-0.186 0.877,0.212 l 0,23.569 c 0,1.044 -1.012,1.891 -2.261,1.891 l -15.842,0 C 0.069,1.537 -0.504,0.667 0,0" /></g><g
           transform="translate(267.9478,284.0103)"
           id="g230"><path
             id="path232"
             style="fill:#c7ffff;fill-opacity:1;fill-rule:nonzero;stroke:none"
             d="m 0,0 c -1.521,0 -2.759,1.238 -2.759,2.759 l 0,21.703 c 0,1.522 1.238,2.76 2.759,2.76 l 15.259,0 c 1.521,0 2.759,-1.238 2.759,-2.76 l 0,-21.703 C 18.018,1.238 16.78,0 15.259,0 L 0,0 Z" /></g><g
           transform="translate(283.2066,311.4818)"
           id="g234"><path
             id="path236"
             style="fill:#1c7c7c;fill-opacity:1;fill-rule:nonzero;stroke:none"
             d="m 0,0 -15.259,0 c -1.659,0 -3.009,-1.35 -3.009,-3.009 l 0,-21.703 c 0,-1.66 1.35,-3.01 3.009,-3.01 l 15.259,0 c 1.659,0 3.009,1.35 3.009,3.01 l 0,21.703 C 3.009,-1.35 1.659,0 0,0 m 0,-0.5 c 1.386,0 2.509,-1.124 2.509,-2.509 l 0,-21.703 c 0,-1.386 -1.123,-2.51 -2.509,-2.51 l -15.259,0 c -1.386,0 -2.509,1.124 -2.509,2.51 l 0,21.703 c 0,1.385 1.123,2.509 2.509,2.509 L 0,-0.5" /></g><g
           transform="translate(266.5996,309.5562)"
           id="g238"><path
             id="path240"
             style="fill:#ebfcfb;fill-opacity:1;fill-rule:nonzero;stroke:none"
             d="m 0,0 18.239,-24.135 c 0.254,-0.337 0.877,-0.186 0.877,0.212 l 0,23.569 c 0,1.044 -1.012,1.891 -2.261,1.891 l -15.842,0 C 0.069,1.537 -0.504,0.667 0,0" /></g><g
           transform="translate(324.5186,241.4561)"
           id="g242"><path
             id="path244"
             style="fill:#c7ffff;fill-opacity:1;fill-rule:nonzero;stroke:none"
             d="m 0,0 c -1.522,0 -2.76,1.238 -2.76,2.76 l 0,21.702 c 0,1.522 1.238,2.76 2.76,2.76 l 15.259,0 c 1.521,0 2.759,-1.238 2.759,-2.76 l 0,-21.702 C 18.018,1.238 16.78,0 15.259,0 L 0,0 Z" /></g><g
           transform="translate(339.7773,268.9279)"
           id="g246"><path
             id="path248"
             style="fill:#1c7c7c;fill-opacity:1;fill-rule:nonzero;stroke:none"
             d="m 0,0 -15.259,0 c -1.659,0 -3.009,-1.35 -3.009,-3.009 l 0,-21.703 c 0,-1.66 1.35,-3.01 3.009,-3.01 l 15.259,0 c 1.659,0 3.009,1.35 3.009,3.01 l 0,21.703 C 3.009,-1.35 1.659,0 0,0 m 0,-0.5 c 1.386,0 2.509,-1.124 2.509,-2.509 l 0,-21.703 c 0,-1.386 -1.123,-2.51 -2.509,-2.51 l -15.259,0 c -1.386,0 -2.509,1.124 -2.509,2.51 l 0,21.703 c 0,1.385 1.123,2.509 2.509,2.509 L 0,-0.5" /></g><g
           transform="translate(323.1704,267.0023)"
           id="g250"><path
             id="path252"
             style="fill:#ebfcfb;fill-opacity:1;fill-rule:nonzero;stroke:none"
             d="m 0,0 18.239,-24.135 c 0.254,-0.337 0.877,-0.186 0.877,0.212 l 0,23.569 c 0,1.044 -1.012,1.891 -2.261,1.891 l -15.842,0 C 0.069,1.537 -0.504,0.667 0,0" /></g><g
           transform="translate(297.2559,241.4004)"
           id="g254"><path
             id="path256"
             style="fill:#c7ffff;fill-opacity:1;fill-rule:nonzero;stroke:none"
             d="m 0,0 c -1.521,0 -2.759,1.238 -2.759,2.76 l 0,21.702 c 0,1.522 1.238,2.76 2.759,2.76 l 15.259,0 c 1.522,0 2.76,-1.238 2.76,-2.76 l 0,-21.702 C 18.019,1.238 16.781,0 15.259,0 L 0,0 Z" /></g><g
           transform="translate(312.515,268.8722)"
           id="g258"><path
             id="path260"
             style="fill:#1c7c7c;fill-opacity:1;fill-rule:nonzero;stroke:none"
             d="m 0,0 -15.259,0 c -1.659,0 -3.009,-1.35 -3.009,-3.009 l 0,-21.703 c 0,-1.66 1.35,-3.01 3.009,-3.01 l 15.259,0 c 1.659,0 3.009,1.35 3.009,3.01 l 0,21.703 C 3.009,-1.35 1.659,0 0,0 m 0,-0.5 c 1.386,0 2.509,-1.124 2.509,-2.509 l 0,-21.703 c 0,-1.386 -1.123,-2.51 -2.509,-2.51 l -15.259,0 c -1.386,0 -2.509,1.124 -2.509,2.51 l 0,21.703 c 0,1.385 1.123,2.509 2.509,2.509 L 0,-0.5" /></g><g
           transform="translate(295.9081,266.9467)"
           id="g262"><path
             id="path264"
             style="fill:#ebfcfb;fill-opacity:1;fill-rule:nonzero;stroke:none"
             d="m 0,0 18.239,-24.135 c 0.254,-0.337 0.877,-0.186 0.877,0.212 l 0,23.569 c 0,1.044 -1.012,1.891 -2.261,1.891 l -15.842,0 C 0.069,1.537 -0.504,0.667 0,0" /></g><g
           transform="translate(268.1914,241.3447)"
           id="g266"><path
             id="path268"
             style="fill:#c7ffff;fill-opacity:1;fill-rule:nonzero;stroke:none"
             d="m 0,0 c -1.522,0 -2.76,1.238 -2.76,2.76 l 0,21.702 c 0,1.522 1.238,2.76 2.76,2.76 l 15.259,0 c 1.521,0 2.759,-1.238 2.759,-2.76 l 0,-21.702 C 18.018,1.238 16.78,0 15.259,0 L 0,0 Z" /></g><g
           transform="translate(283.4501,268.8165)"
           id="g270"><path
             id="path272"
             style="fill:#1c7c7c;fill-opacity:1;fill-rule:nonzero;stroke:none"
             d="m 0,0 -15.259,0 c -1.659,0 -3.009,-1.35 -3.009,-3.009 l 0,-21.703 c 0,-1.66 1.35,-3.01 3.009,-3.01 l 15.259,0 c 1.659,0 3.009,1.35 3.009,3.01 l 0,21.703 C 3.009,-1.35 1.659,0 0,0 m 0,-0.5 c 1.386,0 2.509,-1.124 2.509,-2.509 l 0,-21.703 c 0,-1.386 -1.123,-2.51 -2.509,-2.51 l -15.259,0 c -1.386,0 -2.509,1.124 -2.509,2.51 l 0,21.703 c 0,1.385 1.123,2.509 2.509,2.509 L 0,-0.5" /></g><g
           transform="translate(266.8432,266.891)"
           id="g274"><path
             id="path276"
             style="fill:#ebfcfb;fill-opacity:1;fill-rule:nonzero;stroke:none"
             d="m 0,0 18.239,-24.135 c 0.254,-0.337 0.877,-0.186 0.877,0.212 l 0,23.569 c 0,1.044 -1.012,1.891 -2.261,1.891 l -15.842,0 C 0.069,1.537 -0.504,0.667 0,0" /></g><g
           transform="translate(325.1763,198.6797)"
           id="g278"><path
             id="path280"
             style="fill:#c7ffff;fill-opacity:1;fill-rule:nonzero;stroke:none"
             d="m 0,0 c -1.522,0 -2.76,1.238 -2.76,2.76 l 0,21.702 c 0,1.522 1.238,2.76 2.76,2.76 l 15.259,0 c 1.521,0 2.759,-1.238 2.759,-2.76 l 0,-21.702 C 18.018,1.238 16.78,0 15.259,0 L 0,0 Z" /></g><g
           transform="translate(340.435,226.1513)"
           id="g282"><path
             id="path284"
             style="fill:#1c7c7c;fill-opacity:1;fill-rule:nonzero;stroke:none"
             d="m 0,0 -15.259,0 c -1.659,0 -3.009,-1.35 -3.009,-3.009 l 0,-21.703 c 0,-1.66 1.35,-3.01 3.009,-3.01 l 15.259,0 c 1.659,0 3.009,1.35 3.009,3.01 l 0,21.703 C 3.009,-1.35 1.659,0 0,0 m 0,-0.5 c 1.386,0 2.509,-1.124 2.509,-2.509 l 0,-21.703 c 0,-1.386 -1.123,-2.51 -2.509,-2.51 l -15.259,0 c -1.386,0 -2.509,1.124 -2.509,2.51 l 0,21.703 c 0,1.385 1.123,2.509 2.509,2.509 L 0,-0.5" /></g><g
           transform="translate(323.8281,224.2258)"
           id="g286"><path
             id="path288"
             style="fill:#ebfcfb;fill-opacity:1;fill-rule:nonzero;stroke:none"
             d="m 0,0 18.239,-24.135 c 0.254,-0.337 0.877,-0.186 0.877,0.212 l 0,23.569 c 0,1.044 -1.012,1.891 -2.261,1.891 l -15.842,0 C 0.069,1.537 -0.504,0.667 0,0" /></g><g
           transform="translate(297.9136,198.624)"
           id="g290"><path
             id="path292"
             style="fill:#c7ffff;fill-opacity:1;fill-rule:nonzero;stroke:none"
             d="m 0,0 c -1.521,0 -2.759,1.238 -2.759,2.76 l 0,21.702 c 0,1.522 1.238,2.76 2.759,2.76 l 15.259,0 c 1.522,0 2.76,-1.238 2.76,-2.76 l 0,-21.702 C 18.019,1.238 16.781,0 15.259,0 L 0,0 Z" /></g><g
           transform="translate(313.1727,226.0957)"
           id="g294"><path
             id="path296"
             style="fill:#1c7c7c;fill-opacity:1;fill-rule:nonzero;stroke:none"
             d="m 0,0 -15.259,0 c -1.659,0 -3.009,-1.35 -3.009,-3.009 l 0,-21.703 c 0,-1.66 1.35,-3.01 3.009,-3.01 l 15.259,0 c 1.659,0 3.009,1.35 3.009,3.01 l 0,21.703 C 3.009,-1.35 1.659,0 0,0 m 0,-0.5 c 1.386,0 2.509,-1.124 2.509,-2.509 l 0,-21.703 c 0,-1.386 -1.123,-2.51 -2.509,-2.51 l -15.259,0 c -1.386,0 -2.509,1.124 -2.509,2.51 l 0,21.703 c 0,1.385 1.123,2.509 2.509,2.509 L 0,-0.5" /></g><g
           transform="translate(296.5657,224.1702)"
           id="g298"><path
             id="path300"
             style="fill:#ebfcfb;fill-opacity:1;fill-rule:nonzero;stroke:none"
             d="m 0,0 18.239,-24.135 c 0.254,-0.337 0.877,-0.186 0.877,0.212 l 0,23.569 c 0,1.044 -1.012,1.891 -2.261,1.891 l -15.842,0 C 0.069,1.537 -0.504,0.667 0,0" /></g><g
           transform="translate(268.8491,198.5684)"
           id="g302"><path
             id="path304"
             style="fill:#c7ffff;fill-opacity:1;fill-rule:nonzero;stroke:none"
             d="m 0,0 c -1.522,0 -2.76,1.238 -2.76,2.76 l 0,21.702 c 0,1.522 1.238,2.76 2.76,2.76 l 15.259,0 c 1.521,0 2.759,-1.238 2.759,-2.76 l 0,-21.702 C 18.018,1.238 16.78,0 15.259,0 L 0,0 Z" /></g><g
           transform="translate(284.1078,226.04)"
           id="g306"><path
             id="path308"
             style="fill:#1c7c7c;fill-opacity:1;fill-rule:nonzero;stroke:none"
             d="m 0,0 -15.259,0 c -1.659,0 -3.009,-1.35 -3.009,-3.009 l 0,-21.703 c 0,-1.66 1.35,-3.01 3.009,-3.01 l 15.259,0 c 1.659,0 3.009,1.35 3.009,3.01 l 0,21.703 C 3.009,-1.35 1.659,0 0,0 m 0,-0.5 c 1.386,0 2.509,-1.124 2.509,-2.509 l 0,-21.703 c 0,-1.386 -1.123,-2.51 -2.509,-2.51 l -15.259,0 c -1.386,0 -2.509,1.124 -2.509,2.51 l 0,21.703 c 0,1.385 1.123,2.509 2.509,2.509 L 0,-0.5" /></g><g
           transform="translate(267.5009,224.1145)"
           id="g310"><path
             id="path312"
             style="fill:#ebfcfb;fill-opacity:1;fill-rule:nonzero;stroke:none"
             d="m 0,0 18.239,-24.135 c 0.254,-0.337 0.877,-0.186 0.877,0.212 l 0,23.569 c 0,1.044 -1.012,1.891 -2.261,1.891 l -15.842,0 C 0.069,1.537 -0.504,0.667 0,0" /></g><g
           transform="translate(454.4512,281.9727)"
           id="g314"><path
             id="path316"
             style="fill:#c7ffff;fill-opacity:1;fill-rule:nonzero;stroke:none"
             d="m 0,0 c -1.522,0 -2.76,1.238 -2.76,2.759 l 0,21.703 c 0,1.522 1.238,2.76 2.76,2.76 l 15.259,0 c 1.521,0 2.759,-1.238 2.759,-2.76 l 0,-21.703 C 18.018,1.238 16.78,0 15.259,0 L 0,0 Z" /></g><g
           transform="translate(469.7098,309.4443)"
           id="g318"><path
             id="path320"
             style="fill:#1c7c7c;fill-opacity:1;fill-rule:nonzero;stroke:none"
             d="m 0,0 -15.259,0 c -1.659,0 -3.009,-1.35 -3.009,-3.009 l 0,-21.703 c 0,-1.66 1.35,-3.01 3.009,-3.01 l 15.259,0 c 1.659,0 3.009,1.35 3.009,3.01 l 0,21.703 C 3.009,-1.35 1.659,0 0,0 m 0,-0.5 c 1.386,0 2.509,-1.124 2.509,-2.509 l 0,-21.703 c 0,-1.386 -1.123,-2.51 -2.509,-2.51 l -15.259,0 c -1.386,0 -2.509,1.124 -2.509,2.51 l 0,21.703 c 0,1.385 1.123,2.509 2.509,2.509 L 0,-0.5" /></g><g
           transform="translate(471.0579,307.5188)"
           id="g322"><path
             id="path324"
             style="fill:#ebfcfb;fill-opacity:1;fill-rule:nonzero;stroke:none"
             d="m 0,0 -18.239,-24.135 c -0.254,-0.337 -0.877,-0.186 -0.877,0.212 l 0,23.569 c 0,1.044 1.012,1.891 2.261,1.891 l 15.842,0 C -0.069,1.537 0.504,0.667 0,0" /></g><g
           transform="translate(481.8882,281.917)"
           id="g326"><path
             id="path328"
             style="fill:#c7ffff;fill-opacity:1;fill-rule:nonzero;stroke:none"
             d="m 0,0 c -1.521,0 -2.759,1.238 -2.759,2.759 l 0,21.703 c 0,1.522 1.238,2.76 2.759,2.76 l 15.259,0 c 1.522,0 2.76,-1.238 2.76,-2.76 l 0,-21.703 C 18.019,1.238 16.781,0 15.259,0 L 0,0 Z" /></g><g
           transform="translate(497.1473,309.3887)"
           id="g330"><path
             id="path332"
             style="fill:#1c7c7c;fill-opacity:1;fill-rule:nonzero;stroke:none"
             d="m 0,0 -15.259,0 c -1.659,0 -3.009,-1.35 -3.009,-3.009 l 0,-21.703 c 0,-1.66 1.35,-3.01 3.009,-3.01 l 15.259,0 c 1.659,0 3.009,1.35 3.009,3.01 l 0,21.703 C 3.009,-1.35 1.659,0 0,0 m 0,-0.5 c 1.386,0 2.509,-1.124 2.509,-2.509 l 0,-21.703 c 0,-1.386 -1.123,-2.51 -2.509,-2.51 l -15.259,0 c -1.386,0 -2.509,1.124 -2.509,2.51 l 0,21.703 c 0,1.385 1.123,2.509 2.509,2.509 L 0,-0.5" /></g><g
           transform="translate(498.4953,307.4631)"
           id="g334"><path
             id="path336"
             style="fill:#ebfcfb;fill-opacity:1;fill-rule:nonzero;stroke:none"
             d="m 0,0 -18.239,-24.135 c -0.254,-0.337 -0.877,-0.186 -0.877,0.212 l 0,23.569 c 0,1.044 1.012,1.891 2.261,1.891 l 15.842,0 C -0.069,1.537 0.504,0.667 0,0" /></g><g
           transform="translate(589.9427,141.8711)"
           id="g338"><path
             id="path340"
             style="fill:#41a3a3;fill-opacity:1;fill-rule:nonzero;stroke:none"
             d="m 0,0 -120.261,0 c -8.586,0 -15.547,6.961 -15.547,15.547 l 0,288.906 c 0,8.586 6.961,15.547 15.547,15.547 L 0,320 c 8.586,0 15.547,-6.961 15.547,-15.547 l 0,-288.906 C 15.547,6.961 8.586,0 0,0" /></g><g
           transform="translate(468.933,415.7879)"
           id="g342"><path
             id="path344"
             style="fill:#c7ffff;fill-opacity:1;fill-rule:nonzero;stroke:none"
             d="m 0,0 c -1.521,0 -2.759,1.238 -2.759,2.76 l 0,21.702 c 0,1.522 1.238,2.76 2.759,2.76 l 15.259,0 c 1.522,0 2.76,-1.238 2.76,-2.76 l 0,-21.702 C 18.019,1.238 16.781,0 15.259,0 L 0,0 Z" /></g><g
           transform="translate(484.192,443.2597)"
           id="g346"><path
             id="path348"
             style="fill:#1c7c7c;fill-opacity:1;fill-rule:nonzero;stroke:none"
             d="m 0,0 -15.259,0 c -1.659,0 -3.009,-1.35 -3.009,-3.009 l 0,-21.703 c 0,-1.66 1.35,-3.01 3.009,-3.01 l 15.259,0 c 1.659,0 3.009,1.35 3.009,3.01 l 0,21.703 C 3.009,-1.35 1.659,0 0,0 m 0,-0.5 c 1.386,0 2.509,-1.124 2.509,-2.509 l 0,-21.703 c 0,-1.386 -1.123,-2.51 -2.509,-2.51 l -15.259,0 c -1.386,0 -2.509,1.124 -2.509,2.51 l 0,21.703 c 0,1.385 1.123,2.509 2.509,2.509 L 0,-0.5" /></g><g
           transform="translate(485.54,441.3342)"
           id="g350"><path
             id="path352"
             style="fill:#ebfcfb;fill-opacity:1;fill-rule:nonzero;stroke:none"
             d="m 0,0 -18.239,-24.135 c -0.254,-0.337 -0.877,-0.186 -0.877,0.212 l 0,23.569 c 0,1.044 1.012,1.891 2.261,1.891 l 15.842,0 C -0.069,1.537 0.504,0.667 0,0" /></g><g
           transform="translate(496.3705,415.7322)"
           id="g354"><path
             id="path356"
             style="fill:#c7ffff;fill-opacity:1;fill-rule:nonzero;stroke:none"
             d="m 0,0 c -1.521,0 -2.759,1.238 -2.759,2.76 l 0,21.702 c 0,1.522 1.238,2.76 2.759,2.76 l 15.259,0 c 1.521,0 2.76,-1.238 2.76,-2.76 l 0,-21.702 C 18.019,1.238 16.78,0 15.259,0 L 0,0 Z" /></g><g
           transform="translate(511.6294,443.2041)"
           id="g358"><path
             id="path360"
             style="fill:#1c7c7c;fill-opacity:1;fill-rule:nonzero;stroke:none"
             d="m 0,0 -15.259,0 c -1.659,0 -3.009,-1.35 -3.009,-3.009 l 0,-21.703 c 0,-1.66 1.35,-3.01 3.009,-3.01 l 15.259,0 c 1.659,0 3.009,1.35 3.009,3.01 l 0,21.703 C 3.009,-1.35 1.659,0 0,0 m 0,-0.5 c 1.386,0 2.509,-1.124 2.509,-2.509 l 0,-21.703 c 0,-1.386 -1.123,-2.51 -2.509,-2.51 l -15.259,0 c -1.386,0 -2.509,1.124 -2.509,2.51 l 0,21.703 c 0,1.385 1.123,2.509 2.509,2.509 L 0,-0.5" /></g><g
           transform="translate(512.9775,441.2786)"
           id="g362"><path
             id="path364"
             style="fill:#ebfcfb;fill-opacity:1;fill-rule:nonzero;stroke:none"
             d="m 0,0 -18.239,-24.135 c -0.254,-0.337 -0.877,-0.186 -0.877,0.212 l 0,23.569 c 0,1.044 1.012,1.891 2.261,1.891 l 15.842,0 C -0.069,1.537 0.504,0.667 0,0" /></g><g
           transform="translate(523.4575,415.7322)"
           id="g366"><path
             id="path368"
             style="fill:#c7ffff;fill-opacity:1;fill-rule:nonzero;stroke:none"
             d="m 0,0 c -1.521,0 -2.759,1.238 -2.759,2.76 l 0,21.702 c 0,1.522 1.238,2.76 2.759,2.76 l 15.259,0 c 1.521,0 2.76,-1.238 2.76,-2.76 l 0,-21.702 C 18.019,1.238 16.78,0 15.259,0 L 0,0 Z" /></g><g
           transform="translate(538.7167,443.2041)"
           id="g370"><path
             id="path372"
             style="fill:#1c7c7c;fill-opacity:1;fill-rule:nonzero;stroke:none"
             d="m 0,0 -15.259,0 c -1.659,0 -3.009,-1.35 -3.009,-3.009 l 0,-21.703 c 0,-1.66 1.35,-3.01 3.009,-3.01 l 15.259,0 c 1.659,0 3.009,1.35 3.009,3.01 l 0,21.703 C 3.009,-1.35 1.659,0 0,0 m 0,-0.5 c 1.386,0 2.509,-1.124 2.509,-2.509 l 0,-21.703 c 0,-1.386 -1.123,-2.51 -2.509,-2.51 l -15.259,0 c -1.386,0 -2.509,1.124 -2.509,2.51 l 0,21.703 c 0,1.385 1.123,2.509 2.509,2.509 L 0,-0.5" /></g><g
           transform="translate(540.0648,441.2786)"
           id="g374"><path
             id="path376"
             style="fill:#ebfcfb;fill-opacity:1;fill-rule:nonzero;stroke:none"
             d="m 0,0 -18.239,-24.135 c -0.254,-0.337 -0.877,-0.186 -0.877,0.212 l 0,23.569 c 0,1.044 1.012,1.891 2.261,1.891 l 15.842,0 C -0.069,1.537 0.504,0.667 0,0" /></g><g
           transform="translate(550.7202,415.6766)"
           id="g378"><path
             id="path380"
             style="fill:#c7ffff;fill-opacity:1;fill-rule:nonzero;stroke:none"
             d="m 0,0 c -1.521,0 -2.76,1.238 -2.76,2.76 l 0,21.702 c 0,1.522 1.239,2.76 2.76,2.76 l 15.259,0 c 1.521,0 2.76,-1.238 2.76,-2.76 l 0,-21.702 C 18.019,1.238 16.78,0 15.259,0 L 0,0 Z" /></g><g
           transform="translate(565.9791,443.1484)"
           id="g382"><path
             id="path384"
             style="fill:#1c7c7c;fill-opacity:1;fill-rule:nonzero;stroke:none"
             d="m 0,0 -15.259,0 c -1.659,0 -3.009,-1.35 -3.009,-3.009 l 0,-21.703 c 0,-1.66 1.35,-3.01 3.009,-3.01 l 15.259,0 c 1.659,0 3.009,1.35 3.009,3.01 l 0,21.703 C 3.009,-1.35 1.659,0 0,0 m 0,-0.5 c 1.386,0 2.509,-1.124 2.509,-2.509 l 0,-21.703 c 0,-1.386 -1.123,-2.51 -2.509,-2.51 l -15.259,0 c -1.386,0 -2.509,1.124 -2.509,2.51 l 0,21.703 c 0,1.385 1.123,2.509 2.509,2.509 L 0,-0.5" /></g><g
           transform="translate(567.3271,441.2229)"
           id="g386"><path
             id="path388"
             style="fill:#ebfcfb;fill-opacity:1;fill-rule:nonzero;stroke:none"
             d="m 0,0 -18.239,-24.135 c -0.254,-0.337 -0.877,-0.186 -0.877,0.212 l 0,23.569 c 0,1.044 1.012,1.891 2.261,1.891 l 15.842,0 C -0.069,1.537 0.504,0.667 0,0" /></g><g
           transform="translate(579.7846,415.6209)"
           id="g390"><path
             id="path392"
             style="fill:#c7ffff;fill-opacity:1;fill-rule:nonzero;stroke:none"
             d="m 0,0 c -1.521,0 -2.759,1.238 -2.759,2.76 l 0,21.702 c 0,1.522 1.238,2.76 2.759,2.76 l 15.26,0 c 1.521,0 2.759,-1.238 2.759,-2.76 l 0,-21.702 C 18.019,1.238 16.781,0 15.26,0 L 0,0 Z" /></g><g
           transform="translate(595.0439,443.0927)"
           id="g394"><path
             id="path396"
             style="fill:#1c7c7c;fill-opacity:1;fill-rule:nonzero;stroke:none"
             d="m 0,0 -15.259,0 c -1.659,0 -3.009,-1.35 -3.009,-3.009 l 0,-21.703 c 0,-1.66 1.35,-3.01 3.009,-3.01 l 15.259,0 c 1.659,0 3.009,1.35 3.009,3.01 l 0,21.703 C 3.009,-1.35 1.659,0 0,0 m 0,-0.5 c 1.386,0 2.509,-1.124 2.509,-2.509 l 0,-21.703 c 0,-1.386 -1.123,-2.51 -2.509,-2.51 l -15.259,0 c -1.386,0 -2.509,1.124 -2.509,2.51 l 0,21.703 c 0,1.385 1.123,2.509 2.509,2.509 L 0,-0.5" /></g><g
           transform="translate(596.392,441.1672)"
           id="g398"><path
             id="path400"
             style="fill:#ebfcfb;fill-opacity:1;fill-rule:nonzero;stroke:none"
             d="m 0,0 -18.239,-24.135 c -0.254,-0.337 -0.877,-0.186 -0.877,0.212 l 0,23.569 c 0,1.044 1.012,1.891 2.261,1.891 l 15.842,0 C -0.069,1.537 0.504,0.667 0,0" /></g><g
           transform="translate(470.3681,368.4549)"
           id="g402"><path
             id="path404"
             style="fill:#c7ffff;fill-opacity:1;fill-rule:nonzero;stroke:none"
             d="m 0,0 c -1.521,0 -2.759,1.238 -2.759,2.759 l 0,21.703 c 0,1.522 1.238,2.76 2.759,2.76 l 15.259,0 c 1.522,0 2.76,-1.238 2.76,-2.76 l 0,-21.703 C 18.019,1.238 16.781,0 15.259,0 L 0,0 Z" /></g><g
           transform="translate(485.6271,395.9264)"
           id="g406"><path
             id="path408"
             style="fill:#1c7c7c;fill-opacity:1;fill-rule:nonzero;stroke:none"
             d="m 0,0 -15.259,0 c -1.659,0 -3.009,-1.35 -3.009,-3.009 l 0,-21.703 c 0,-1.66 1.35,-3.01 3.009,-3.01 l 15.259,0 c 1.659,0 3.009,1.35 3.009,3.01 l 0,21.703 C 3.009,-1.35 1.659,0 0,0 m 0,-0.5 c 1.386,0 2.509,-1.124 2.509,-2.509 l 0,-21.703 c 0,-1.386 -1.123,-2.51 -2.509,-2.51 l -15.259,0 c -1.386,0 -2.509,1.124 -2.509,2.51 l 0,21.703 c 0,1.385 1.123,2.509 2.509,2.509 L 0,-0.5" /></g><g
           transform="translate(486.9751,394.0009)"
           id="g410"><path
             id="path412"
             style="fill:#ebfcfb;fill-opacity:1;fill-rule:nonzero;stroke:none"
             d="m 0,0 -18.239,-24.135 c -0.254,-0.337 -0.877,-0.186 -0.877,0.212 l 0,23.569 c 0,1.044 1.012,1.891 2.261,1.891 l 15.842,0 C -0.069,1.537 0.504,0.667 0,0" /></g><g
           transform="translate(497.8061,368.3992)"
           id="g414"><path
             id="path416"
             style="fill:#c7ffff;fill-opacity:1;fill-rule:nonzero;stroke:none"
             d="m 0,0 c -1.522,0 -2.76,1.238 -2.76,2.759 l 0,21.703 c 0,1.522 1.238,2.76 2.76,2.76 l 15.259,0 c 1.521,0 2.759,-1.238 2.759,-2.76 l 0,-21.703 C 18.018,1.238 16.78,0 15.259,0 L 0,0 Z" /></g><g
           transform="translate(513.0646,395.8708)"
           id="g418"><path
             id="path420"
             style="fill:#1c7c7c;fill-opacity:1;fill-rule:nonzero;stroke:none"
             d="m 0,0 -15.259,0 c -1.659,0 -3.009,-1.35 -3.009,-3.009 l 0,-21.703 c 0,-1.66 1.35,-3.01 3.009,-3.01 l 15.259,0 c 1.659,0 3.009,1.35 3.009,3.01 l 0,21.703 C 3.009,-1.35 1.659,0 0,0 m 0,-0.5 c 1.386,0 2.509,-1.124 2.509,-2.509 l 0,-21.703 c 0,-1.386 -1.123,-2.51 -2.509,-2.51 l -15.259,0 c -1.386,0 -2.509,1.124 -2.509,2.51 l 0,21.703 c 0,1.385 1.123,2.509 2.509,2.509 L 0,-0.5" /></g><g
           transform="translate(514.4126,393.9452)"
           id="g422"><path
             id="path424"
             style="fill:#ebfcfb;fill-opacity:1;fill-rule:nonzero;stroke:none"
             d="m 0,0 -18.239,-24.135 c -0.254,-0.337 -0.877,-0.186 -0.877,0.212 l 0,23.569 c 0,1.044 1.012,1.891 2.261,1.891 l 15.842,0 C -0.069,1.537 0.504,0.667 0,0" /></g><g
           transform="translate(524.893,368.3992)"
           id="g426"><path
             id="path428"
             style="fill:#c7ffff;fill-opacity:1;fill-rule:nonzero;stroke:none"
             d="m 0,0 c -1.521,0 -2.76,1.238 -2.76,2.759 l 0,21.703 c 0,1.522 1.239,2.76 2.76,2.76 l 15.259,0 c 1.521,0 2.76,-1.238 2.76,-2.76 l 0,-21.703 C 18.019,1.238 16.78,0 15.259,0 L 0,0 Z" /></g><g
           transform="translate(540.1519,395.8708)"
           id="g430"><path
             id="path432"
             style="fill:#1c7c7c;fill-opacity:1;fill-rule:nonzero;stroke:none"
             d="m 0,0 -15.259,0 c -1.659,0 -3.009,-1.35 -3.009,-3.009 l 0,-21.703 c 0,-1.66 1.35,-3.01 3.009,-3.01 l 15.259,0 c 1.659,0 3.009,1.35 3.009,3.01 l 0,21.703 C 3.009,-1.35 1.659,0 0,0 m 0,-0.5 c 1.386,0 2.509,-1.124 2.509,-2.509 l 0,-21.703 c 0,-1.386 -1.123,-2.51 -2.509,-2.51 l -15.259,0 c -1.386,0 -2.509,1.124 -2.509,2.51 l 0,21.703 c 0,1.385 1.123,2.509 2.509,2.509 L 0,-0.5" /></g><g
           transform="translate(541.4999,393.9452)"
           id="g434"><path
             id="path436"
             style="fill:#ebfcfb;fill-opacity:1;fill-rule:nonzero;stroke:none"
             d="m 0,0 -18.239,-24.135 c -0.254,-0.337 -0.877,-0.186 -0.877,0.212 l 0,23.569 c 0,1.044 1.012,1.891 2.261,1.891 l 15.842,0 C -0.069,1.537 0.504,0.667 0,0" /></g><g
           transform="translate(552.1557,368.3436)"
           id="g438"><path
             id="path440"
             style="fill:#c7ffff;fill-opacity:1;fill-rule:nonzero;stroke:none"
             d="m 0,0 c -1.521,0 -2.76,1.238 -2.76,2.759 l 0,21.703 c 0,1.522 1.239,2.76 2.76,2.76 l 15.259,0 c 1.521,0 2.759,-1.238 2.759,-2.76 l 0,-21.703 C 18.018,1.238 16.78,0 15.259,0 L 0,0 Z" /></g><g
           transform="translate(567.4142,395.8151)"
           id="g442"><path
             id="path444"
             style="fill:#1c7c7c;fill-opacity:1;fill-rule:nonzero;stroke:none"
             d="m 0,0 -15.259,0 c -1.659,0 -3.009,-1.35 -3.009,-3.009 l 0,-21.703 c 0,-1.66 1.35,-3.01 3.009,-3.01 l 15.259,0 c 1.659,0 3.009,1.35 3.009,3.01 l 0,21.703 C 3.009,-1.35 1.659,0 0,0 m 0,-0.5 c 1.386,0 2.509,-1.124 2.509,-2.509 l 0,-21.703 c 0,-1.386 -1.123,-2.51 -2.509,-2.51 l -15.259,0 c -1.386,0 -2.509,1.124 -2.509,2.51 l 0,21.703 c 0,1.385 1.123,2.509 2.509,2.509 L 0,-0.5" /></g><g
           transform="translate(568.7622,393.8896)"
           id="g446"><path
             id="path448"
             style="fill:#ebfcfb;fill-opacity:1;fill-rule:nonzero;stroke:none"
             d="m 0,0 -18.239,-24.135 c -0.254,-0.337 -0.877,-0.186 -0.877,0.212 l 0,23.569 c 0,1.044 1.012,1.891 2.261,1.891 l 15.842,0 C -0.069,1.537 0.504,0.667 0,0" /></g><g
           transform="translate(581.2202,368.2879)"
           id="g450"><path
             id="path452"
             style="fill:#c7ffff;fill-opacity:1;fill-rule:nonzero;stroke:none"
             d="m 0,0 c -1.521,0 -2.76,1.238 -2.76,2.759 l 0,21.703 c 0,1.522 1.239,2.76 2.76,2.76 l 15.259,0 c 1.521,0 2.76,-1.238 2.76,-2.76 l 0,-21.703 C 18.019,1.238 16.78,0 15.259,0 L 0,0 Z" /></g><g
           transform="translate(596.4791,395.7594)"
           id="g454"><path
             id="path456"
             style="fill:#1c7c7c;fill-opacity:1;fill-rule:nonzero;stroke:none"
             d="m 0,0 -15.259,0 c -1.659,0 -3.009,-1.35 -3.009,-3.009 l 0,-21.703 c 0,-1.66 1.35,-3.01 3.009,-3.01 l 15.259,0 c 1.659,0 3.009,1.35 3.009,3.01 l 0,21.703 C 3.009,-1.35 1.659,0 0,0 m 0,-0.5 c 1.386,0 2.509,-1.124 2.509,-2.509 l 0,-21.703 c 0,-1.386 -1.123,-2.51 -2.509,-2.51 l -15.259,0 c -1.386,0 -2.509,1.124 -2.509,2.51 l 0,21.703 c 0,1.385 1.123,2.509 2.509,2.509 L 0,-0.5" /></g><g
           transform="translate(597.8271,393.8339)"
           id="g458"><path
             id="path460"
             style="fill:#ebfcfb;fill-opacity:1;fill-rule:nonzero;stroke:none"
             d="m 0,0 -18.239,-24.135 c -0.254,-0.337 -0.877,-0.186 -0.877,0.212 l 0,23.569 c 0,1.044 1.012,1.891 2.261,1.891 l 15.842,0 C -0.069,1.537 0.504,0.667 0,0" /></g><g
           transform="translate(470.3681,326.7308)"
           id="g462"><path
             id="path464"
             style="fill:#c7ffff;fill-opacity:1;fill-rule:nonzero;stroke:none"
             d="m 0,0 c -1.521,0 -2.759,1.238 -2.759,2.76 l 0,21.702 c 0,1.522 1.238,2.76 2.759,2.76 l 15.259,0 c 1.522,0 2.76,-1.238 2.76,-2.76 l 0,-21.702 C 18.019,1.238 16.781,0 15.259,0 L 0,0 Z" /></g><g
           transform="translate(485.6271,354.2026)"
           id="g466"><path
             id="path468"
             style="fill:#1c7c7c;fill-opacity:1;fill-rule:nonzero;stroke:none"
             d="m 0,0 -15.259,0 c -1.659,0 -3.009,-1.35 -3.009,-3.009 l 0,-21.703 c 0,-1.66 1.35,-3.01 3.009,-3.01 l 15.259,0 c 1.659,0 3.009,1.35 3.009,3.01 l 0,21.703 C 3.009,-1.35 1.659,0 0,0 m 0,-0.5 c 1.386,0 2.509,-1.124 2.509,-2.509 l 0,-21.703 c 0,-1.386 -1.123,-2.51 -2.509,-2.51 l -15.259,0 c -1.386,0 -2.509,1.124 -2.509,2.51 l 0,21.703 c 0,1.385 1.123,2.509 2.509,2.509 L 0,-0.5" /></g><g
           transform="translate(486.9751,352.2771)"
           id="g470"><path
             id="path472"
             style="fill:#ebfcfb;fill-opacity:1;fill-rule:nonzero;stroke:none"
             d="m 0,0 -18.239,-24.135 c -0.254,-0.337 -0.877,-0.186 -0.877,0.212 l 0,23.569 c 0,1.044 1.012,1.891 2.261,1.891 l 15.842,0 C -0.069,1.537 0.504,0.667 0,0" /></g><g
           transform="translate(497.8061,326.6751)"
           id="g474"><path
             id="path476"
             style="fill:#c7ffff;fill-opacity:1;fill-rule:nonzero;stroke:none"
             d="m 0,0 c -1.522,0 -2.76,1.238 -2.76,2.76 l 0,21.702 c 0,1.522 1.238,2.76 2.76,2.76 l 15.259,0 c 1.521,0 2.759,-1.238 2.759,-2.76 l 0,-21.702 C 18.018,1.238 16.78,0 15.259,0 L 0,0 Z" /></g><g
           transform="translate(513.0646,354.1469)"
           id="g478"><path
             id="path480"
             style="fill:#1c7c7c;fill-opacity:1;fill-rule:nonzero;stroke:none"
             d="m 0,0 -15.259,0 c -1.659,0 -3.009,-1.35 -3.009,-3.009 l 0,-21.703 c 0,-1.66 1.35,-3.01 3.009,-3.01 l 15.259,0 c 1.659,0 3.009,1.35 3.009,3.01 l 0,21.703 C 3.009,-1.35 1.659,0 0,0 m 0,-0.5 c 1.386,0 2.509,-1.124 2.509,-2.509 l 0,-21.703 c 0,-1.386 -1.123,-2.51 -2.509,-2.51 l -15.259,0 c -1.386,0 -2.509,1.124 -2.509,2.51 l 0,21.703 c 0,1.385 1.123,2.509 2.509,2.509 L 0,-0.5" /></g><g
           transform="translate(514.4126,352.2214)"
           id="g482"><path
             id="path484"
             style="fill:#ebfcfb;fill-opacity:1;fill-rule:nonzero;stroke:none"
             d="m 0,0 -18.239,-24.135 c -0.254,-0.337 -0.877,-0.186 -0.877,0.212 l 0,23.569 c 0,1.044 1.012,1.891 2.261,1.891 l 15.842,0 C -0.069,1.537 0.504,0.667 0,0" /></g><g
           transform="translate(524.893,326.6751)"
           id="g486"><path
             id="path488"
             style="fill:#c7ffff;fill-opacity:1;fill-rule:nonzero;stroke:none"
             d="m 0,0 c -1.521,0 -2.76,1.238 -2.76,2.76 l 0,21.702 c 0,1.522 1.239,2.76 2.76,2.76 l 15.259,0 c 1.521,0 2.76,-1.238 2.76,-2.76 l 0,-21.702 C 18.019,1.238 16.78,0 15.259,0 L 0,0 Z" /></g><g
           transform="translate(540.1519,354.1469)"
           id="g490"><path
             id="path492"
             style="fill:#1c7c7c;fill-opacity:1;fill-rule:nonzero;stroke:none"
             d="m 0,0 -15.259,0 c -1.659,0 -3.009,-1.35 -3.009,-3.009 l 0,-21.703 c 0,-1.66 1.35,-3.01 3.009,-3.01 l 15.259,0 c 1.659,0 3.009,1.35 3.009,3.01 l 0,21.703 C 3.009,-1.35 1.659,0 0,0 m 0,-0.5 c 1.386,0 2.509,-1.124 2.509,-2.509 l 0,-21.703 c 0,-1.386 -1.123,-2.51 -2.509,-2.51 l -15.259,0 c -1.386,0 -2.509,1.124 -2.509,2.51 l 0,21.703 c 0,1.385 1.123,2.509 2.509,2.509 L 0,-0.5" /></g><g
           transform="translate(541.4999,352.2214)"
           id="g494"><path
             id="path496"
             style="fill:#ebfcfb;fill-opacity:1;fill-rule:nonzero;stroke:none"
             d="m 0,0 -18.239,-24.135 c -0.254,-0.337 -0.877,-0.186 -0.877,0.212 l 0,23.569 c 0,1.044 1.012,1.891 2.261,1.891 l 15.842,0 C -0.069,1.537 0.504,0.667 0,0" /></g><g
           transform="translate(552.1557,326.6194)"
           id="g498"><path
             id="path500"
             style="fill:#c7ffff;fill-opacity:1;fill-rule:nonzero;stroke:none"
             d="m 0,0 c -1.521,0 -2.76,1.238 -2.76,2.76 l 0,21.702 c 0,1.522 1.239,2.76 2.76,2.76 l 15.259,0 c 1.521,0 2.759,-1.238 2.759,-2.76 l 0,-21.702 C 18.018,1.238 16.78,0 15.259,0 L 0,0 Z" /></g><g
           transform="translate(567.4142,354.0913)"
           id="g502"><path
             id="path504"
             style="fill:#1c7c7c;fill-opacity:1;fill-rule:nonzero;stroke:none"
             d="m 0,0 -15.259,0 c -1.659,0 -3.009,-1.35 -3.009,-3.009 l 0,-21.703 c 0,-1.66 1.35,-3.01 3.009,-3.01 l 15.259,0 c 1.659,0 3.009,1.35 3.009,3.01 l 0,21.703 C 3.009,-1.35 1.659,0 0,0 m 0,-0.5 c 1.386,0 2.509,-1.124 2.509,-2.509 l 0,-21.703 c 0,-1.386 -1.123,-2.51 -2.509,-2.51 l -15.259,0 c -1.386,0 -2.509,1.124 -2.509,2.51 l 0,21.703 c 0,1.385 1.123,2.509 2.509,2.509 L 0,-0.5" /></g><g
           transform="translate(568.7622,352.1657)"
           id="g506"><path
             id="path508"
             style="fill:#ebfcfb;fill-opacity:1;fill-rule:nonzero;stroke:none"
             d="m 0,0 -18.239,-24.135 c -0.254,-0.337 -0.877,-0.186 -0.877,0.212 l 0,23.569 c 0,1.044 1.012,1.891 2.261,1.891 l 15.842,0 C -0.069,1.537 0.504,0.667 0,0" /></g><g
           transform="translate(581.2202,326.5638)"
           id="g510"><path
             id="path512"
             style="fill:#c7ffff;fill-opacity:1;fill-rule:nonzero;stroke:none"
             d="m 0,0 c -1.521,0 -2.76,1.238 -2.76,2.76 l 0,21.702 c 0,1.522 1.239,2.76 2.76,2.76 l 15.259,0 c 1.521,0 2.76,-1.238 2.76,-2.76 l 0,-21.702 C 18.019,1.238 16.78,0 15.259,0 L 0,0 Z" /></g><g
           transform="translate(596.4791,354.0356)"
           id="g514"><path
             id="path516"
             style="fill:#1c7c7c;fill-opacity:1;fill-rule:nonzero;stroke:none"
             d="m 0,0 -15.259,0 c -1.659,0 -3.009,-1.35 -3.009,-3.009 l 0,-21.703 c 0,-1.66 1.35,-3.01 3.009,-3.01 l 15.259,0 c 1.659,0 3.009,1.35 3.009,3.01 l 0,21.703 C 3.009,-1.35 1.659,0 0,0 m 0,-0.5 c 1.386,0 2.509,-1.124 2.509,-2.509 l 0,-21.703 c 0,-1.386 -1.123,-2.51 -2.509,-2.51 l -15.259,0 c -1.386,0 -2.509,1.124 -2.509,2.51 l 0,21.703 c 0,1.385 1.123,2.509 2.509,2.509 L 0,-0.5" /></g><g
           transform="translate(597.8271,352.1101)"
           id="g518"><path
             id="path520"
             style="fill:#ebfcfb;fill-opacity:1;fill-rule:nonzero;stroke:none"
             d="m 0,0 -18.239,-24.135 c -0.254,-0.337 -0.877,-0.186 -0.877,0.212 l 0,23.569 c 0,1.044 1.012,1.891 2.261,1.891 l 15.842,0 C -0.069,1.537 0.504,0.667 0,0" /></g><g
           transform="translate(523.9916,284.1214)"
           id="g522"><path
             id="path524"
             style="fill:#c7ffff;fill-opacity:1;fill-rule:nonzero;stroke:none"
             d="m 0,0 c -1.521,0 -2.76,1.238 -2.76,2.759 l 0,21.703 c 0,1.522 1.239,2.76 2.76,2.76 l 15.259,0 c 1.521,0 2.76,-1.238 2.76,-2.76 l 0,-21.703 C 18.019,1.238 16.78,0 15.259,0 L 0,0 Z" /></g><g
           transform="translate(539.2506,311.5931)"
           id="g526"><path
             id="path528"
             style="fill:#1c7c7c;fill-opacity:1;fill-rule:nonzero;stroke:none"
             d="m 0,0 -15.259,0 c -1.659,0 -3.009,-1.35 -3.009,-3.009 l 0,-21.703 c 0,-1.66 1.35,-3.01 3.009,-3.01 l 15.259,0 c 1.659,0 3.009,1.35 3.009,3.01 l 0,21.703 C 3.009,-1.35 1.659,0 0,0 m 0,-0.5 c 1.386,0 2.509,-1.124 2.509,-2.509 l 0,-21.703 c 0,-1.386 -1.123,-2.51 -2.509,-2.51 l -15.259,0 c -1.386,0 -2.509,1.124 -2.509,2.51 l 0,21.703 c 0,1.385 1.123,2.509 2.509,2.509 L 0,-0.5" /></g><g
           transform="translate(540.5986,309.6676)"
           id="g530"><path
             id="path532"
             style="fill:#ebfcfb;fill-opacity:1;fill-rule:nonzero;stroke:none"
             d="m 0,0 -18.239,-24.135 c -0.254,-0.337 -0.877,-0.186 -0.877,0.212 l 0,23.569 c 0,1.044 1.012,1.891 2.261,1.891 l 15.842,0 C -0.069,1.537 0.504,0.667 0,0" /></g><g
           transform="translate(551.2543,284.0657)"
           id="g534"><path
             id="path536"
             style="fill:#c7ffff;fill-opacity:1;fill-rule:nonzero;stroke:none"
             d="m 0,0 c -1.521,0 -2.76,1.238 -2.76,2.759 l 0,21.703 c 0,1.522 1.239,2.76 2.76,2.76 l 15.259,0 c 1.521,0 2.76,-1.238 2.76,-2.76 l 0,-21.703 C 18.019,1.238 16.78,0 15.259,0 L 0,0 Z" /></g><g
           transform="translate(566.513,311.5374)"
           id="g538"><path
             id="path540"
             style="fill:#1c7c7c;fill-opacity:1;fill-rule:nonzero;stroke:none"
             d="m 0,0 -15.259,0 c -1.659,0 -3.009,-1.35 -3.009,-3.009 l 0,-21.703 c 0,-1.66 1.35,-3.01 3.009,-3.01 l 15.259,0 c 1.659,0 3.009,1.35 3.009,3.01 l 0,21.703 C 3.009,-1.35 1.659,0 0,0 m 0,-0.5 c 1.386,0 2.509,-1.124 2.509,-2.509 l 0,-21.703 c 0,-1.386 -1.123,-2.51 -2.509,-2.51 l -15.259,0 c -1.386,0 -2.509,1.124 -2.509,2.51 l 0,21.703 c 0,1.385 1.123,2.509 2.509,2.509 L 0,-0.5" /></g><g
           transform="translate(567.861,309.6119)"
           id="g542"><path
             id="path544"
             style="fill:#ebfcfb;fill-opacity:1;fill-rule:nonzero;stroke:none"
             d="m 0,0 -18.239,-24.135 c -0.254,-0.337 -0.877,-0.186 -0.877,0.212 l 0,23.569 c 0,1.044 1.012,1.891 2.261,1.891 l 15.842,0 C -0.069,1.537 0.504,0.667 0,0" /></g><g
           transform="translate(580.3188,284.0101)"
           id="g546"><path
             id="path548"
             style="fill:#c7ffff;fill-opacity:1;fill-rule:nonzero;stroke:none"
             d="m 0,0 c -1.521,0 -2.76,1.238 -2.76,2.759 l 0,21.703 c 0,1.522 1.239,2.76 2.76,2.76 l 15.259,0 c 1.521,0 2.76,-1.238 2.76,-2.76 l 0,-21.703 C 18.019,1.238 16.78,0 15.259,0 L 0,0 Z" /></g><g
           transform="translate(595.5778,311.4818)"
           id="g550"><path
             id="path552"
             style="fill:#1c7c7c;fill-opacity:1;fill-rule:nonzero;stroke:none"
             d="m 0,0 -15.259,0 c -1.659,0 -3.009,-1.35 -3.009,-3.009 l 0,-21.703 c 0,-1.66 1.35,-3.01 3.009,-3.01 l 15.259,0 c 1.659,0 3.009,1.35 3.009,3.01 l 0,21.703 C 3.009,-1.35 1.659,0 0,0 m 0,-0.5 c 1.386,0 2.509,-1.124 2.509,-2.509 l 0,-21.703 c 0,-1.386 -1.123,-2.51 -2.509,-2.51 l -15.259,0 c -1.386,0 -2.509,1.124 -2.509,2.51 l 0,21.703 c 0,1.385 1.123,2.509 2.509,2.509 L 0,-0.5" /></g><g
           transform="translate(596.9258,309.5562)"
           id="g554"><path
             id="path556"
             style="fill:#ebfcfb;fill-opacity:1;fill-rule:nonzero;stroke:none"
             d="m 0,0 -18.239,-24.135 c -0.254,-0.337 -0.877,-0.186 -0.877,0.212 l 0,23.569 c 0,1.044 1.012,1.891 2.261,1.891 l 15.842,0 C -0.069,1.537 0.504,0.667 0,0" /></g><g
           transform="translate(523.7485,241.4564)"
           id="g558"><path
             id="path560"
             style="fill:#c7ffff;fill-opacity:1;fill-rule:nonzero;stroke:none"
             d="m 0,0 c -1.521,0 -2.76,1.238 -2.76,2.759 l 0,21.703 c 0,1.522 1.239,2.76 2.76,2.76 l 15.259,0 c 1.521,0 2.759,-1.238 2.759,-2.76 l 0,-21.703 C 18.018,1.238 16.78,0 15.259,0 L 0,0 Z" /></g><g
           transform="translate(539.0071,268.9279)"
           id="g562"><path
             id="path564"
             style="fill:#1c7c7c;fill-opacity:1;fill-rule:nonzero;stroke:none"
             d="m 0,0 -15.259,0 c -1.659,0 -3.009,-1.35 -3.009,-3.009 l 0,-21.703 c 0,-1.66 1.35,-3.01 3.009,-3.01 l 15.259,0 c 1.659,0 3.009,1.35 3.009,3.01 l 0,21.703 C 3.009,-1.35 1.659,0 0,0 m 0,-0.5 c 1.386,0 2.509,-1.124 2.509,-2.509 l 0,-21.703 c 0,-1.386 -1.123,-2.51 -2.509,-2.51 l -15.259,0 c -1.386,0 -2.509,1.124 -2.509,2.51 l 0,21.703 c 0,1.385 1.123,2.509 2.509,2.509 L 0,-0.5" /></g><g
           transform="translate(540.3551,267.0023)"
           id="g566"><path
             id="path568"
             style="fill:#ebfcfb;fill-opacity:1;fill-rule:nonzero;stroke:none"
             d="m 0,0 -18.239,-24.135 c -0.254,-0.337 -0.877,-0.186 -0.877,0.212 l 0,23.569 c 0,1.044 1.012,1.891 2.261,1.891 l 15.842,0 C -0.069,1.537 0.504,0.667 0,0" /></g><g
           transform="translate(551.0102,241.4007)"
           id="g570"><path
             id="path572"
             style="fill:#c7ffff;fill-opacity:1;fill-rule:nonzero;stroke:none"
             d="m 0,0 c -1.521,0 -2.759,1.238 -2.759,2.759 l 0,21.703 c 0,1.522 1.238,2.76 2.759,2.76 l 15.259,0 c 1.521,0 2.76,-1.238 2.76,-2.76 l 0,-21.703 C 18.019,1.238 16.78,0 15.259,0 L 0,0 Z" /></g><g
           transform="translate(566.2694,268.8722)"
           id="g574"><path
             id="path576"
             style="fill:#1c7c7c;fill-opacity:1;fill-rule:nonzero;stroke:none"
             d="m 0,0 -15.259,0 c -1.659,0 -3.009,-1.35 -3.009,-3.009 l 0,-21.703 c 0,-1.66 1.35,-3.01 3.009,-3.01 l 15.259,0 c 1.659,0 3.009,1.35 3.009,3.01 l 0,21.703 C 3.009,-1.35 1.659,0 0,0 m 0,-0.5 c 1.386,0 2.509,-1.124 2.509,-2.509 l 0,-21.703 c 0,-1.386 -1.123,-2.51 -2.509,-2.51 l -15.259,0 c -1.386,0 -2.509,1.124 -2.509,2.51 l 0,21.703 c 0,1.385 1.123,2.509 2.509,2.509 L 0,-0.5" /></g><g
           transform="translate(567.6174,266.9467)"
           id="g578"><path
             id="path580"
             style="fill:#ebfcfb;fill-opacity:1;fill-rule:nonzero;stroke:none"
             d="m 0,0 -18.239,-24.135 c -0.254,-0.337 -0.877,-0.186 -0.877,0.212 l 0,23.569 c 0,1.044 1.012,1.891 2.261,1.891 l 15.842,0 C -0.069,1.537 0.504,0.667 0,0" /></g><g
           transform="translate(580.0756,241.345)"
           id="g582"><path
             id="path584"
             style="fill:#c7ffff;fill-opacity:1;fill-rule:nonzero;stroke:none"
             d="m 0,0 c -1.521,0 -2.76,1.238 -2.76,2.759 l 0,21.703 c 0,1.522 1.239,2.76 2.76,2.76 l 15.259,0 c 1.521,0 2.76,-1.238 2.76,-2.76 l 0,-21.703 C 18.019,1.238 16.78,0 15.259,0 L 0,0 Z" /></g><g
           transform="translate(595.3343,268.8165)"
           id="g586"><path
             id="path588"
             style="fill:#1c7c7c;fill-opacity:1;fill-rule:nonzero;stroke:none"
             d="m 0,0 -15.259,0 c -1.659,0 -3.009,-1.35 -3.009,-3.009 l 0,-21.703 c 0,-1.66 1.35,-3.01 3.009,-3.01 l 15.259,0 c 1.659,0 3.009,1.35 3.009,3.01 l 0,21.703 C 3.009,-1.35 1.659,0 0,0 m 0,-0.5 c 1.386,0 2.509,-1.124 2.509,-2.509 l 0,-21.703 c 0,-1.386 -1.123,-2.51 -2.509,-2.51 l -15.259,0 c -1.386,0 -2.509,1.124 -2.509,2.51 l 0,21.703 c 0,1.385 1.123,2.509 2.509,2.509 L 0,-0.5" /></g><g
           transform="translate(596.6823,266.891)"
           id="g590"><path
             id="path592"
             style="fill:#ebfcfb;fill-opacity:1;fill-rule:nonzero;stroke:none"
             d="m 0,0 -18.239,-24.135 c -0.254,-0.337 -0.877,-0.186 -0.877,0.212 l 0,23.569 c 0,1.044 1.012,1.891 2.261,1.891 l 15.842,0 C -0.069,1.537 0.504,0.667 0,0" /></g><g
           transform="translate(523.0903,198.68)"
           id="g594"><path
             id="path596"
             style="fill:#c7ffff;fill-opacity:1;fill-rule:nonzero;stroke:none"
             d="m 0,0 c -1.521,0 -2.759,1.237 -2.759,2.759 l 0,21.703 c 0,1.521 1.238,2.759 2.759,2.759 l 15.259,0 c 1.521,0 2.76,-1.238 2.76,-2.759 l 0,-21.703 C 18.019,1.237 16.78,0 15.259,0 L 0,0 Z" /></g><g
           transform="translate(538.3494,226.1514)"
           id="g598"><path
             id="path600"
             style="fill:#1c7c7c;fill-opacity:1;fill-rule:nonzero;stroke:none"
             d="m 0,0 -15.259,0 c -1.659,0 -3.009,-1.35 -3.009,-3.009 l 0,-21.703 c 0,-1.66 1.35,-3.01 3.009,-3.01 l 15.259,0 c 1.659,0 3.009,1.35 3.009,3.01 l 0,21.703 C 3.009,-1.35 1.659,0 0,0 m 0,-0.5 c 1.386,0 2.509,-1.124 2.509,-2.509 l 0,-21.703 c 0,-1.386 -1.123,-2.51 -2.509,-2.51 l -15.259,0 c -1.386,0 -2.509,1.124 -2.509,2.51 l 0,21.703 c 0,1.385 1.123,2.509 2.509,2.509 L 0,-0.5" /></g><g
           transform="translate(539.6974,224.2258)"
           id="g602"><path
             id="path604"
             style="fill:#ebfcfb;fill-opacity:1;fill-rule:nonzero;stroke:none"
             d="m 0,0 -18.239,-24.135 c -0.254,-0.337 -0.877,-0.186 -0.877,0.212 l 0,23.569 c 0,1.044 1.012,1.891 2.261,1.891 l 15.842,0 C -0.069,1.537 0.504,0.667 0,0" /></g><g
           transform="translate(550.353,198.6243)"
           id="g606"><path
             id="path608"
             style="fill:#c7ffff;fill-opacity:1;fill-rule:nonzero;stroke:none"
             d="m 0,0 c -1.521,0 -2.76,1.237 -2.76,2.759 l 0,21.703 c 0,1.521 1.239,2.759 2.76,2.759 l 15.259,0 c 1.521,0 2.76,-1.238 2.76,-2.759 l 0,-21.703 C 18.019,1.237 16.78,0 15.259,0 L 0,0 Z" /></g><g
           transform="translate(565.6118,226.0957)"
           id="g610"><path
             id="path612"
             style="fill:#1c7c7c;fill-opacity:1;fill-rule:nonzero;stroke:none"
             d="m 0,0 -15.259,0 c -1.659,0 -3.009,-1.35 -3.009,-3.009 l 0,-21.703 c 0,-1.66 1.35,-3.01 3.009,-3.01 l 15.259,0 c 1.659,0 3.009,1.35 3.009,3.01 l 0,21.703 C 3.009,-1.35 1.659,0 0,0 m 0,-0.5 c 1.386,0 2.509,-1.124 2.509,-2.509 l 0,-21.703 c 0,-1.386 -1.123,-2.51 -2.509,-2.51 l -15.259,0 c -1.386,0 -2.509,1.124 -2.509,2.51 l 0,21.703 c 0,1.385 1.123,2.509 2.509,2.509 L 0,-0.5" /></g><g
           transform="translate(566.9598,224.1702)"
           id="g614"><path
             id="path616"
             style="fill:#ebfcfb;fill-opacity:1;fill-rule:nonzero;stroke:none"
             d="m 0,0 -18.239,-24.135 c -0.254,-0.337 -0.877,-0.186 -0.877,0.212 l 0,23.569 c 0,1.044 1.012,1.891 2.261,1.891 l 15.842,0 C -0.069,1.537 0.504,0.667 0,0" /></g><g
           transform="translate(579.4174,198.5687)"
           id="g618"><path
             id="path620"
             style="fill:#c7ffff;fill-opacity:1;fill-rule:nonzero;stroke:none"
             d="m 0,0 c -1.521,0 -2.759,1.237 -2.759,2.759 l 0,21.703 c 0,1.521 1.238,2.759 2.759,2.759 l 15.259,0 c 1.521,0 2.76,-1.238 2.76,-2.759 l 0,-21.703 C 18.019,1.237 16.78,0 15.259,0 L 0,0 Z" /></g><g
           transform="translate(594.6766,226.04)"
           id="g622"><path
             id="path624"
             style="fill:#1c7c7c;fill-opacity:1;fill-rule:nonzero;stroke:none"
             d="m 0,0 -15.259,0 c -1.659,0 -3.009,-1.35 -3.009,-3.009 l 0,-21.703 c 0,-1.66 1.35,-3.01 3.009,-3.01 l 15.259,0 c 1.659,0 3.009,1.35 3.009,3.01 l 0,21.703 C 3.009,-1.35 1.659,0 0,0 m 0,-0.5 c 1.386,0 2.509,-1.124 2.509,-2.509 l 0,-21.703 c 0,-1.386 -1.123,-2.51 -2.509,-2.51 l -15.259,0 c -1.386,0 -2.509,1.124 -2.509,2.51 l 0,21.703 c 0,1.385 1.123,2.509 2.509,2.509 L 0,-0.5" /></g><g
           transform="translate(596.0246,224.1145)"
           id="g626"><path
             id="path628"
             style="fill:#ebfcfb;fill-opacity:1;fill-rule:nonzero;stroke:none"
             d="m 0,0 -18.239,-24.135 c -0.254,-0.337 -0.877,-0.186 -0.877,0.212 l 0,23.569 c 0,1.044 1.012,1.891 2.261,1.891 l 15.842,0 C -0.069,1.537 0.504,0.667 0,0" /></g><g
           transform="translate(631.5261,150.3731)"
           id="g630"><path
             id="path632"
             style="fill:#a5c3d3;fill-opacity:1;fill-rule:nonzero;stroke:none"
             d="m 0,0 -387.173,0 c -6.714,0 -12.156,5.442 -12.156,12.155 l 0,0 c 0,6.713 5.442,12.156 12.156,12.156 L 0,24.311 c 6.713,0 12.155,-5.443 12.155,-12.156 l 0,0 C 12.155,5.442 6.713,0 0,0" /></g><path
           id="path634"
           style="fill:#76cec9;fill-opacity:1;fill-rule:nonzero;stroke:none"
           d="m 527.381,161.463 -190.404,0 0,129.764 190.404,0 0,-129.764 z" /><path
           id="path636"
           style="fill:#c7ffff;fill-opacity:1;fill-rule:nonzero;stroke:none"
           d="m 402,236.484 63.75,0 0,-63.275 -63.75,0 0,63.275 z" /><g
           transform="translate(466.75,237.4843)"
           id="g638"><path
             id="path640"
             style="fill:#1c7c7c;fill-opacity:1;fill-rule:nonzero;stroke:none"
             d="m 0,0 -2,0 -61.75,0 -2,0 0,-2 0,-61.276 0,-2 2,0 61.75,0 2,0 0,2 L 0,-2 0,0 Z m -2,-63.276 -61.75,0 0,61.276 61.75,0 0,-61.276 z" /></g><g
           transform="translate(433.7362,236)"
           id="g642"><path
             id="path644"
             style="fill:#ebfcfb;fill-opacity:1;fill-rule:nonzero;stroke:none"
             d="M 0,0 -30.736,-61.791 -30.736,0 0,0 Z" /></g><g
           transform="translate(464.75,236)"
           id="g646"><path
             id="path648"
             style="fill:#ebfcfb;fill-opacity:1;fill-rule:nonzero;stroke:none"
             d="M 0,0 -29.75,-58.898 -29.75,0 0,0 Z" /></g><path
           id="path650"
           style="fill:#41a3a3;fill-opacity:1;fill-rule:nonzero;stroke:none"
           d="m 363.787,171.742 -20.074,0 0,121.868 20.074,0 0,-121.868 z" /><path
           id="path652"
           style="fill:#41a3a3;fill-opacity:1;fill-rule:nonzero;stroke:none"
           d="m 523,171.742 -20.074,0 0,121.868 20.074,0 0,-121.868 z" /><g
           transform="translate(363.4953,287.8231)"
           id="g654"><path
             id="path656"
             style="fill:#41a3a3;fill-opacity:1;fill-rule:nonzero;stroke:none"
             d="m 0,0 -19.75,0 c -1.082,0 -1.958,0.877 -1.958,1.958 l 0,1.871 c 0,1.081 0.876,1.958 1.958,1.958 l 19.75,0 c 1.082,0 1.958,-0.877 1.958,-1.958 l 0,-1.871 C 1.958,0.877 1.082,0 0,0" /></g><g
           transform="translate(392.7083,287.8231)"
           id="g658"><path
             id="path660"
             style="fill:#41a3a3;fill-opacity:1;fill-rule:nonzero;stroke:none"
             d="m 0,0 -19.75,0 c -1.082,0 -1.958,0.877 -1.958,1.958 l 0,1.871 c 0,1.081 0.876,1.958 1.958,1.958 l 19.75,0 c 1.082,0 1.958,-0.877 1.958,-1.958 l 0,-1.871 C 1.958,0.877 1.082,0 0,0" /></g><g
           transform="translate(494.1714,288.3337)"
           id="g662"><path
             id="path664"
             style="fill:#41a3a3;fill-opacity:1;fill-rule:nonzero;stroke:none"
             d="m 0,0 -19.75,0 c -1.082,0 -1.958,0.877 -1.958,1.958 l 0,1.871 c 0,1.081 0.876,1.958 1.958,1.958 l 19.75,0 c 1.082,0 1.958,-0.877 1.958,-1.958 l 0,-1.871 C 1.958,0.877 1.082,0 0,0" /></g><g
           transform="translate(522.8381,288.3337)"
           id="g666"><path
             id="path668"
             style="fill:#41a3a3;fill-opacity:1;fill-rule:nonzero;stroke:none"
             d="m 0,0 -19.75,0 c -1.082,0 -1.958,0.877 -1.958,1.958 l 0,1.871 c 0,1.081 0.876,1.958 1.958,1.958 l 19.75,0 c 1.082,0 1.958,-0.877 1.958,-1.958 l 0,-1.871 C 1.958,0.877 1.082,0 0,0" /></g><g
           transform="translate(363.4953,172.0961)"
           id="g670"><path
             id="path672"
             style="fill:#41a3a3;fill-opacity:1;fill-rule:nonzero;stroke:none"
             d="m 0,0 -19.75,0 c -1.082,0 -1.958,0.877 -1.958,1.958 l 0,1.871 c 0,1.081 0.876,1.958 1.958,1.958 l 19.75,0 c 1.082,0 1.958,-0.877 1.958,-1.958 l 0,-1.871 C 1.958,0.877 1.082,0 0,0" /></g><g
           transform="translate(522.8381,172.0961)"
           id="g674"><path
             id="path676"
             style="fill:#41a3a3;fill-opacity:1;fill-rule:nonzero;stroke:none"
             d="m 0,0 -19.75,0 c -1.082,0 -1.958,0.877 -1.958,1.958 l 0,1.871 c 0,1.081 0.876,1.958 1.958,1.958 l 19.75,0 c 1.082,0 1.958,-0.877 1.958,-1.958 l 0,-1.871 C 1.958,0.877 1.082,0 0,0" /></g><path
           id="path678"
           style="fill:#41a3a3;fill-opacity:1;fill-rule:nonzero;stroke:none"
           d="m 392.87,171.742 -20.074,0 0,121.868 20.074,0 0,-121.868 z" /><path
           id="path680"
           style="fill:#41a3a3;fill-opacity:1;fill-rule:nonzero;stroke:none"
           d="m 494.333,169.359 -20.074,0 0,121.868 20.074,0 0,-121.868 z" /><g
           transform="translate(392.7083,172.0961)"
           id="g682"><path
             id="path684"
             style="fill:#41a3a3;fill-opacity:1;fill-rule:nonzero;stroke:none"
             d="m 0,0 -19.75,0 c -1.082,0 -1.958,0.877 -1.958,1.958 l 0,1.871 c 0,1.081 0.876,1.958 1.958,1.958 l 19.75,0 c 1.082,0 1.958,-0.877 1.958,-1.958 l 0,-1.871 C 1.958,0.877 1.082,0 0,0" /></g><g
           transform="translate(494.1714,172.0961)"
           id="g686"><path
             id="path688"
             style="fill:#41a3a3;fill-opacity:1;fill-rule:nonzero;stroke:none"
             d="m 0,0 -19.75,0 c -1.082,0 -1.958,0.877 -1.958,1.958 l 0,1.871 c 0,1.081 0.876,1.958 1.958,1.958 l 19.75,0 c 1.082,0 1.958,-0.877 1.958,-1.958 l 0,-1.871 C 1.958,0.877 1.082,0 0,0" /></g><g
           transform="translate(529.569,152.1089)"
           id="g690"><path
             id="path692"
             style="fill:#6abfbd;fill-opacity:1;fill-rule:nonzero;stroke:none"
             d="m 0,0 -197.446,0 c -3.658,0 -6.623,2.965 -6.623,6.623 l 0,9.635 c 0,3.658 2.965,6.623 6.623,6.623 L 0,22.881 c 3.658,0 6.623,-2.965 6.623,-6.623 l 0,-9.635 C 6.623,2.965 3.658,0 0,0" /></g><g
           transform="translate(457.2221,250.2096)"
           id="g694"><path
             id="path696"
             style="fill:#41a3a3;fill-opacity:1;fill-rule:nonzero;stroke:none"
             d="m 0,0 -47.667,0 c -5.032,0 -9.111,4.079 -9.111,9.111 l 0,5.094 c 0,5.032 4.079,9.111 9.111,9.111 l 47.667,0 c 5.032,0 9.111,-4.079 9.111,-9.111 l 0,-5.094 C 9.111,4.079 5.032,0 0,0" /></g><g
           transform="translate(451.7014,262.292)"
           id="g698"><path
             id="path700"
             style="fill:#41a3a3;fill-opacity:1;fill-rule:nonzero;stroke:none"
             d="m 0,0 c 0,-9.4 -7.462,-17.021 -16.667,-17.021 -9.204,0 -16.666,7.621 -16.666,17.021 0,9.4 7.462,17.021 16.666,17.021 C -7.462,17.021 0,9.4 0,0" /></g><g
           transform="translate(419.2758,358.5392)"
           id="g702"><path
             id="path704"
             style="fill:#6abfbd;fill-opacity:1;fill-rule:nonzero;stroke:none"
             d="m 0,0 -81.416,-48.391 188.184,0 L 24.491,0.047 C 17.108,4.394 7.361,4.375 0,0" /></g><g
           transform="translate(419.0533,345.6035)"
           id="g706"><path
             id="path708"
             style="fill:#76cec9;fill-opacity:1;fill-rule:nonzero;stroke:none"
             d="m 0,0 -81.416,-48.391 188.184,0 L 24.491,0.047 C 17.108,4.394 7.361,4.375 0,0" /></g><g
           transform="translate(530.9019,290.3627)"
           id="g710"><path
             id="path712"
             style="fill:#6abfbd;fill-opacity:1;fill-rule:nonzero;stroke:none"
             d="m 0,0 -197.446,0 c -3.658,0 -6.623,2.965 -6.623,6.623 l 0,6.54 c 0,3.658 2.965,6.623 6.623,6.623 L 0,19.786 c 3.658,0 6.623,-2.965 6.623,-6.623 l 0,-6.54 C 6.623,2.965 3.658,0 0,0" /></g><g
           transform="translate(434.875,174.9897)"
           id="g714"><path
             id="path716"
             style="fill:none;stroke:#28bbce;stroke-width:1;stroke-linecap:butt;stroke-linejoin:miter;stroke-miterlimit:10;stroke-dasharray:none;stroke-opacity:1"
             d="M 0,0 0,60.495" /></g><g
           transform="translate(628.4966,120.98)"
           id="g718"><path
             id="path720"
             style="fill:#b4ffb0;fill-opacity:1;fill-rule:nonzero;stroke:none"
             d="m 0,0 -401.438,0 c -7.243,0 -13.17,5.927 -13.17,13.17 l 0,0 c 0,7.244 5.927,13.17 13.17,13.17 L 0,26.34 c 7.244,0 13.17,-5.926 13.17,-13.17 l 0,0 C 13.17,5.927 7.244,0 0,0" /></g><g
           transform="translate(640.0285,147.3202)"
           id="g722"><path
             id="path724"
             style="fill:#70838e;fill-opacity:1;fill-rule:nonzero;stroke:none"
             d="m 0,0 -404.737,0 c -4.11,0 -7.474,3.363 -7.474,7.474 l 0,0 c 0,4.111 3.364,7.474 7.474,7.474 L 0,14.948 c 4.111,0 7.474,-3.363 7.474,-7.474 l 0,0 C 7.474,3.363 4.111,0 0,0" /></g><g
           transform="translate(653.3859,35.2214)"
           id="g726"><path
             id="path728"
             style="fill:#73787f;fill-opacity:1;fill-rule:nonzero;stroke:none"
             d="m 0,0 -411.272,0 c -20.688,0 -37.614,16.926 -37.614,37.614 l 0,0 c 0,20.688 16.926,37.614 37.614,37.614 L 0,75.228 c 20.688,0 37.614,-16.926 37.614,-37.614 l 0,0 C 37.614,16.926 20.688,0 0,0" /></g><g
           transform="translate(284.2822,69.9659)"
           id="g730"><path
             id="path732"
             style="fill:#fff4f4;fill-opacity:1;fill-rule:nonzero;stroke:none"
             d="m 0,0 -41.895,0 c -1.579,0 -2.87,1.291 -2.87,2.87 l 0,0 c 0,1.578 1.291,2.869 2.87,2.869 L 0,5.739 c 1.578,0 2.87,-1.291 2.87,-2.869 l 0,0 C 2.87,1.291 1.578,0 0,0" /></g><g
           transform="translate(374.7349,69.9659)"
           id="g734"><path
             id="path736"
             style="fill:#fff4f4;fill-opacity:1;fill-rule:nonzero;stroke:none"
             d="m 0,0 -41.895,0 c -1.579,0 -2.87,1.291 -2.87,2.87 l 0,0 c 0,1.578 1.291,2.869 2.87,2.869 L 0,5.739 c 1.578,0 2.87,-1.291 2.87,-2.869 l 0,0 C 2.87,1.291 1.578,0 0,0" /></g><g
           transform="translate(468.1614,69.9659)"
           id="g738"><path
             id="path740"
             style="fill:#fff4f4;fill-opacity:1;fill-rule:nonzero;stroke:none"
             d="m 0,0 -41.895,0 c -1.579,0 -2.87,1.291 -2.87,2.87 l 0,0 c 0,1.578 1.291,2.869 2.87,2.869 L 0,5.739 c 1.578,0 2.87,-1.291 2.87,-2.869 l 0,0 C 2.87,1.291 1.578,0 0,0" /></g><g
           transform="translate(229.7115,115.3163)"
           id="g742"><path
             id="path744"
             style="fill:#acbacc;fill-opacity:1;fill-rule:nonzero;stroke:none"
             d="m 0,0 c 0,-2.896 2.313,-5.316 5.139,-5.316 l 411.978,0 c 2.827,0 5.139,2.42 5.139,5.316 0,0.962 -0.273,2.684 -0.718,2.684 l -420.82,0 C 0.274,2.684 0,0.962 0,0" /></g><g
           transform="translate(646.8286,121.1309)"
           id="g746"><path
             id="path748"
             style="fill:#b2c1d6;fill-opacity:1;fill-rule:nonzero;stroke:none"
             d="M 0,0 C 1.888,0 3.528,-0.991 4.421,-2.974" /></g><g
           transform="translate(646.8286,121)"
           id="g750"><path
             id="path752"
             style="fill:#bccbdd;fill-opacity:1;fill-rule:nonzero;stroke:none"
             d="m 0,0 -411.978,0 c -1.887,0 -3.527,-1 -4.421,-3 L 4.421,-3 C 3.528,-1 1.888,0 0,0" /></g><g
           transform="translate(556.0059,136.5942)"
           id="g754"><path
             id="path756"
             style="fill:#9ef794;fill-opacity:1;fill-rule:nonzero;stroke:none"
             d="m 0,0 -124.555,0 c -1.49,0 -2.709,1.219 -2.709,2.71 l 0,0 c 0,1.49 1.219,2.71 2.709,2.71 L 0,5.42 c 1.49,0 2.71,-1.22 2.71,-2.71 l 0,0 C 2.71,1.219 1.49,0 0,0" /></g><g
           transform="translate(434.0402,125.1283)"
           id="g758"><path
             id="path760"
             style="fill:#a9f9a2;fill-opacity:1;fill-rule:nonzero;stroke:none"
             d="m 0,0 -104.139,0 c -1.49,0 -2.709,1.219 -2.709,2.71 0,1.49 1.219,2.71 2.709,2.71 L 0,5.42 C 1.49,5.42 2.71,4.2 2.71,2.71 2.71,1.219 1.49,0 0,0" /></g><g
           transform="translate(561.3284,69.9659)"
           id="g762"><path
             id="path764"
             style="fill:#fff4f4;fill-opacity:1;fill-rule:nonzero;stroke:none"
             d="m 0,0 -41.895,0 c -1.579,0 -2.87,1.291 -2.87,2.87 l 0,0 c 0,1.578 1.291,2.869 2.87,2.869 L 0,5.739 c 1.578,0 2.87,-1.291 2.87,-2.869 l 0,0 C 2.87,1.291 1.578,0 0,0" /></g><g
           transform="translate(649.0982,69.9659)"
           id="g766"><path
             id="path768"
             style="fill:#fff4f4;fill-opacity:1;fill-rule:nonzero;stroke:none"
             d="m 0,0 -41.895,0 c -1.579,0 -2.87,1.291 -2.87,2.87 l 0,0 c 0,1.578 1.291,2.869 2.87,2.869 L 0,5.739 c 1.578,0 2.87,-1.291 2.87,-2.869 l 0,0 C 2.87,1.291 1.578,0 0,0" /></g><g
           transform="translate(614.9564,128.9734)"
           id="g770"><path
             id="path772"
             style="fill:#9e9571;fill-opacity:1;fill-rule:nonzero;stroke:none"
             d="m 0,0 0,0 c -2.342,0 -4.24,1.898 -4.24,4.24 l 0,101.418 c 0,2.341 1.898,4.239 4.24,4.239 2.342,0 4.24,-1.898 4.24,-4.239 L 4.24,4.24 C 4.24,1.898 2.342,0 0,0" /></g><g
           transform="translate(626.6888,226.3147)"
           id="g774"><path
             id="path776"
             style="fill:#4bc136;fill-opacity:1;fill-rule:nonzero;stroke:none"
             d="m 0,0 -37.892,0 c -13.807,0 -25,11.193 -25,25 l 0,20.38 c 0,13.807 11.193,25 25,25 L 0,70.38 c 13.807,0 25,-11.193 25,-25 L 25,25 C 25,11.193 13.807,0 0,0" /></g><g
           transform="translate(611.3641,203.6809)"
           id="g778"><path
             id="path780"
             style="fill:#49b232;fill-opacity:1;fill-rule:nonzero;stroke:none"
             d="M 0,0 -27.283,0 C -44.02,0 -57.588,13.568 -57.588,30.304 l 0,9.771 c 0,16.737 13.568,30.305 30.305,30.305 L 0,70.38 c 16.737,0 30.304,-13.568 30.304,-30.305 l 0,-9.771 C 30.304,13.568 16.737,0 0,0" /></g><g
           transform="translate(644.862,208.8024)"
           id="g782"><path
             id="path784"
             style="fill:#55c63e;fill-opacity:1;fill-rule:nonzero;stroke:none"
             d="m 0,0 -37.892,0 c -13.807,0 -25,11.193 -25,25 l 0,20.38 c 0,13.807 11.193,25 25,25 L 0,70.38 c 13.807,0 25,-11.193 25,-25 L 25,25 C 25,11.193 13.807,0 0,0" /></g><g
           transform="translate(265.2928,167.052)"
           id="g786"><path
             id="path788"
             style="fill:#4bc136;fill-opacity:1;fill-rule:nonzero;stroke:none"
             d="m 0,0 -3.917,0 c -4.98,0 -9.017,4.037 -9.017,9.018 l 0,7.86 c 0,4.981 4.037,9.018 9.017,9.018 l 3.917,0 c 4.98,0 9.018,-4.037 9.018,-9.018 l 0,-7.86 C 9.018,4.037 4.98,0 0,0" /></g><g
           transform="translate(245.4855,134.1501)"
           id="g790"><path
             id="path792"
             style="fill:#9e9571;fill-opacity:1;fill-rule:nonzero;stroke:none"
             d="m 0,0 0,0 c -2.342,0 -4.24,1.898 -4.24,4.24 l 0,101.418 c 0,2.341 1.898,4.239 4.24,4.239 l 0,0 c 2.342,0 4.24,-1.898 4.24,-4.239 L 4.24,4.24 C 4.24,1.898 2.342,0 0,0" /></g><g
           transform="translate(257.2179,231.4914)"
           id="g794"><path
             id="path796"
             style="fill:#4bc136;fill-opacity:1;fill-rule:nonzero;stroke:none"
             d="m 0,0 -37.892,0 c -13.807,0 -25,11.193 -25,25 l 0,20.38 c 0,13.807 11.193,25 25,25 L 0,70.38 c 13.807,0 25,-11.193 25,-25 L 25,25 C 25,11.193 13.807,0 0,0" /></g><g
           transform="translate(241.8931,208.8576)"
           id="g798"><path
             id="path800"
             style="fill:#49b232;fill-opacity:1;fill-rule:nonzero;stroke:none"
             d="M 0,0 -27.283,0 C -44.02,0 -57.588,13.568 -57.588,30.304 l 0,9.771 c 0,16.737 13.568,30.305 30.305,30.305 L 0,70.38 c 16.737,0 30.304,-13.568 30.304,-30.305 l 0,-9.771 C 30.304,13.568 16.737,0 0,0" /></g><g
           transform="translate(275.391,213.9791)"
           id="g802"><path
             id="path804"
             style="fill:#55c63e;fill-opacity:1;fill-rule:nonzero;stroke:none"
             d="m 0,0 -37.892,0 c -13.807,0 -25,11.193 -25,25 l 0,20.38 c 0,13.807 11.193,25 25,25 L 0,70.38 c 13.807,0 25,-11.193 25,-25 L 25,25 C 25,11.193 13.807,0 0,0" /></g><path
           id="path806"
           style="fill:#966847;fill-opacity:1;fill-rule:nonzero;stroke:none"
           d="m 311.364,178.711 -38.661,0 0,-1.217 38.661,0 0,1.217 z" /><g
           transform="translate(276.1185,187.0576)"
           id="g808"><path
             id="path810"
             style="fill:#5b7488;fill-opacity:1;fill-rule:nonzero;stroke:none"
             d="m 0,0 c -0.191,0.038 -0.371,-0.122 -0.402,-0.349 -0.011,-0.08 -0.216,-1.6 -0.314,-4.234 -0.251,0.014 -0.536,-0.064 -0.801,-0.148 l -0.018,-0.006 c -0.759,-0.242 -1.658,-1.267 -1.963,-2.239 -0.291,-0.924 0.086,-10.972 0.164,-12.977 l 0.699,0.036 c -0.177,4.525 -0.39,11.958 -0.208,12.643 0.25,0.796 0.992,1.562 1.488,1.721 l 0.019,0.193 c 0.308,0.099 0.474,0.302 0.563,0.302 l 0.001,0 c -0.038,-1 0.002,-9.943 0.007,-10.955 l 0.699,-0.074 c -0.013,2.867 -0.026,6.724 -0.022,8.974 0.013,0.045 0.022,0.067 0.022,0.116 0.018,4.043 0.351,6.508 0.354,6.533 C 0.32,-0.237 0.191,-0.037 0,0" /></g><g
           transform="translate(308.2122,187.0576)"
           id="g812"><path
             id="path814"
             style="fill:#5b7488;fill-opacity:1;fill-rule:nonzero;stroke:none"
             d="m 0,0 c 0.191,0.038 0.371,-0.122 0.402,-0.349 0.011,-0.08 0.217,-1.6 0.314,-4.234 0.251,0.014 0.536,-0.064 0.801,-0.148 L 1.535,-4.737 C 2.294,-4.979 3.193,-6.004 3.498,-6.976 3.789,-7.9 3.412,-17.948 3.334,-19.953 l -0.699,0.036 c 0.177,4.525 0.39,11.958 0.208,12.643 -0.25,0.796 -0.992,1.562 -1.488,1.721 L 1.336,-5.36 c -0.308,0.099 -0.474,0.302 -0.563,0.302 l -0.001,0 c 0.038,-1 -0.002,-9.943 -0.006,-10.955 l -0.7,-0.074 c 0.014,2.867 0.026,6.724 0.022,8.974 -0.013,0.045 -0.022,0.067 -0.022,0.116 -0.018,4.043 -0.351,6.508 -0.354,6.533 C -0.32,-0.237 -0.191,-0.037 0,0" /></g><g
           transform="translate(275.1753,180)"
           id="g816"><path
             id="path818"
             style="fill:#a87552;fill-opacity:1;fill-rule:nonzero;stroke:none"
             d="M 0,0 -1.968,-1.247 -1.966,-2 35.946,-2 35.944,-1.278 33.825,0 0,0 Z" /></g><path
           id="path820"
           style="fill:#966847;fill-opacity:1;fill-rule:nonzero;stroke:none"
           d="m 276.785,177.495 -2.323,0 0,0.553 2.323,0 0,-0.553 z" /><path
           id="path822"
           style="fill:#966847;fill-opacity:1;fill-rule:nonzero;stroke:none"
           d="m 309.23,177.495 -1.026,0 0,0.505 1.026,0 0,-0.505 z" /><path
           id="path824"
           style="fill:#a87552;fill-opacity:1;fill-rule:nonzero;stroke:none"
           d="m 309.23,183.375 -34.463,0 0,2.066 34.463,0 0,-2.066 z" /><path
           id="path826"
           style="fill:#a87552;fill-opacity:1;fill-rule:nonzero;stroke:none"
           d="m 309.23,185.886 -34.463,0 0,2.114 34.463,0 0,-2.114 z" /></g></g></g></svg>