<?xml version="1.0" encoding="UTF-8" standalone="no"?>
<svg
   xmlns:dc="http://purl.org/dc/elements/1.1/"
   xmlns:cc="http://creativecommons.org/ns#"
   xmlns:rdf="http://www.w3.org/1999/02/22-rdf-syntax-ns#"
   xmlns:svg="http://www.w3.org/2000/svg"
   xmlns="http://www.w3.org/2000/svg"
   viewBox="0 0 2400 2400"
   height="2400"
   width="2400"
   xml:space="preserve"
   version="1.1"
   id="svg2"><metadata
     id="metadata8"><rdf:RDF><cc:Work
         rdf:about=""><dc:format>image/svg+xml</dc:format><dc:type
           rdf:resource="http://purl.org/dc/dcmitype/StillImage" /></cc:Work></rdf:RDF></metadata><defs
     id="defs6"><clipPath
       id="clipPath16"
       clipPathUnits="userSpaceOnUse"><path
         id="path18"
         d="m 0,1920 1920,0 L 1920,0 0,0 0,1920 Z" /></clipPath><clipPath
       id="clipPath64"
       clipPathUnits="userSpaceOnUse"><path
         id="path66"
         d="m 1163.06,1757.42 193.34,0 0,-78.16 -193.34,0 0,78.16 z" /></clipPath><clipPath
       id="clipPath132"
       clipPathUnits="userSpaceOnUse"><path
         id="path134"
         d="m 937.535,1324.75 151.855,0 0,-374.127 -151.855,0 0,374.127 z" /></clipPath><clipPath
       id="clipPath152"
       clipPathUnits="userSpaceOnUse"><path
         id="path154"
         d="m 644.784,1324.75 151.858,0 0,-374.127 -151.858,0 0,374.127 z" /></clipPath><clipPath
       id="clipPath172"
       clipPathUnits="userSpaceOnUse"><path
         id="path174"
         d="m 725.611,1316.49 71.261,0 0,-332.578 -71.261,0 0,332.578 z" /></clipPath><clipPath
       id="clipPath188"
       clipPathUnits="userSpaceOnUse"><path
         id="path190"
         d="m 937.303,1316.49 71.267,0 0,-332.578 -71.267,0 0,332.578 z" /></clipPath></defs><g
     transform="matrix(1.25,0,0,-1.25,0,2400)"
     id="g10"><g
       id="g12"><g
         clip-path="url(#clipPath16)"
         id="g14"><g
           transform="translate(719.1548,1455.9014)"
           id="g20"><path
             id="path22"
             style="fill:#00ff00;fill-opacity:1;fill-rule:nonzero;stroke:none"
             d="M 0,0 C 52.475,33.627 154.596,156.496 10.116,269.024 10.116,269.024 -144.617,121.915 0,0" /></g><g
           transform="translate(727.0103,1460.3862)"
           id="g24"><path
             id="path26"
             style="fill:#a84a30;fill-opacity:1;fill-rule:nonzero;stroke:none"
             d="m 0,0 c -52.796,78.249 -134.239,98.041 -191.162,82.639 l 4.937,-27.379 c 57.349,9.129 128.502,-1.817 178.37,-59.745 L 0,0 Z" /></g><g
           transform="translate(940.4575,1076.1709)"
           id="g28"><path
             id="path30"
             style="fill:#f55b00;fill-opacity:1;fill-rule:nonzero;stroke:none"
             d="M 0,0 C -264.503,-150.993 -566.117,371.278 -222.752,390.207 -31.876,676.254 264.502,150.993 0,0" /></g><g
           transform="translate(1358.1553,1230.147)"
           id="g32"><path
             id="path34"
             style="fill:#002d00;fill-opacity:1;fill-rule:nonzero;stroke:none"
             d="m 0,0 -131.676,-469.756 -432.565,121.251 131.678,469.756 c 36.759,131.14 199.038,148.986 199.038,148.986 l 59.252,211.392 140.93,-39.504 -59.254,-211.391 C -92.597,230.734 36.762,131.138 0,0" /></g><g
           transform="translate(1348.8086,1675.0464)"
           id="g36"><path
             id="path38"
             style="fill:#002d00;fill-opacity:1;fill-rule:nonzero;stroke:none"
             d="M 0,0 C -5.3,-18.92 -24.934,-29.955 -43.85,-24.652 L -159.333,7.717 c -18.918,5.304 -29.956,24.937 -24.651,43.856 5.302,18.915 24.936,29.953 43.853,24.651 L -24.646,43.852 C -5.731,38.551 5.305,18.915 0,0" /></g><g
           transform="translate(1160.1396,1729.9189)"
           id="g40"><path
             id="path42"
             style="fill:#00cf81;fill-opacity:1;fill-rule:nonzero;stroke:none"
             d="m 0,0 c 4.523,-1.741 13.563,3.957 24.069,-6.74 l 0.109,-0.146 c 4.524,-1.739 13.565,3.958 24.067,-6.736 l 0.238,-0.077 c 4.529,-1.735 13.57,3.96 24.079,-6.739 l 0.107,-0.144 c 4.517,-1.741 13.556,3.958 24.07,-6.739 l 0.413,-0.15 c 4.531,-1.737 13.57,3.955 24.07,-6.738 l 0.108,-0.145 c 4.52,-1.739 13.566,3.957 24.062,-6.74 l 0.24,-0.072 c 4.53,-1.74 13.575,3.953 24.076,-6.741 l 0.112,-0.146 c 4.525,-1.738 13.562,3.957 24.075,-6.74 l -0.196,1.166 1.038,-0.977 c 0,0 6.863,53.033 0.419,54.85 l -0.889,0.213 -82.776,23.441 -0.242,0.045 -82.845,23.189 -0.866,0.279 C 21.649,49.072 3.154,8.401 0.004,1.362 L 0.879,0.838 0,0 Z" /></g><g
           transform="translate(1236.124,1713.1338)"
           id="g44"><path
             id="path46"
             style="fill:#00cf81;fill-opacity:1;fill-rule:nonzero;stroke:#2f2d2e;stroke-width:1.08599997;stroke-linecap:round;stroke-linejoin:round;stroke-miterlimit:4;stroke-dasharray:none;stroke-opacity:1"
             d="M 0,0 -0.765,0.216" /></g><g
           transform="translate(1283.3789,1700.4531)"
           id="g48"><path
             id="path50"
             style="fill:#00cf81;fill-opacity:1;fill-rule:nonzero;stroke:#2f2d2e;stroke-width:1.08599997;stroke-linecap:round;stroke-linejoin:round;stroke-miterlimit:4;stroke-dasharray:none;stroke-opacity:1"
             d="M 0,0 -0.751,0.212" /></g><g
           transform="translate(1187.7656,1726.9551)"
           id="g52"><path
             id="path54"
             style="fill:#00cf81;fill-opacity:1;fill-rule:nonzero;stroke:#2f2d2e;stroke-width:1.08599997;stroke-linecap:round;stroke-linejoin:round;stroke-miterlimit:4;stroke-dasharray:none;stroke-opacity:1"
             d="M 0,0 -0.787,0.226" /></g><g
           transform="translate(1329.8555,1687.7798)"
           id="g56"><path
             id="path58"
             style="fill:#00cf81;fill-opacity:1;fill-rule:nonzero;stroke:#2f2d2e;stroke-width:1.08599997;stroke-linecap:round;stroke-linejoin:round;stroke-miterlimit:4;stroke-dasharray:none;stroke-opacity:1"
             d="M 0,0 -0.751,0.216" /></g><g
           id="g60"><g
             id="g62" /><g
             id="g68"><g
               style="opacity:0.30000299"
               id="g70"
               clip-path="url(#clipPath64)"><g
                 id="g72"
                 transform="translate(1355.8086,1679.8452)"><path
                   id="path74"
                   style="fill:none;stroke:#2f2d2e;stroke-width:1.17799997;stroke-linecap:round;stroke-linejoin:round;stroke-miterlimit:4;stroke-dasharray:none;stroke-opacity:1"
                   d="m 0,0 -0.771,0.222 c 0.328,10.69 -3.958,10.911 -2.698,20.752 l 0.084,0.327 c 2.638,9.439 -4.8,11.525 -7.452,2.086 l -0.033,-0.339 0.066,-0.378 c -4.05,-9.06 -7.831,-7.02 -13.104,-16.327 l -0.773,0.218 c 0.317,10.694 -3.965,10.914 -2.706,20.755 l 0.072,0.543 c 2.645,9.436 -4.805,11.523 -7.447,2.087 l -0.025,-0.559 c -4.04,-9.064 -7.815,-7.024 -13.096,-16.329 l -0.774,0.22 c 0.331,10.69 -3.959,10.91 -2.7,20.751 l 0.081,0.326 c 2.641,9.437 -4.794,11.52 -7.44,2.087 l -0.049,-0.337 -0.057,-0.556 c -4.062,-9.061 -7.889,-7.007 -13.196,-16.306 l -0.784,0.224 c 0.295,10.701 -4.036,10.936 -2.803,20.783 l 0.073,0.544 c 2.644,9.436 -4.888,11.547 -7.53,2.108 l -0.027,-0.556 c -4.063,-9.061 -7.891,-7.008 -13.196,-16.304 l -0.783,0.22 c 0.295,10.702 -4.036,10.937 -2.803,20.786 l 0.088,0.324 c 2.645,9.437 -4.89,11.548 -7.53,2.109 l -0.041,-0.335 -0.204,-0.193 c -4.094,-9.05 -8.011,-6.972 -13.382,-16.25 l -0.804,0.226 c 0.234,10.718 -4.192,10.978 -2.989,20.834 l 0.068,0.548 c 2.64,9.44 -5.069,11.6 -7.712,2.16 l -0.024,-0.56 c -4.091,-9.048 -8.012,-6.969 -13.384,-16.248 l -0.799,0.225 c 0.228,10.717 -4.199,10.978 -2.994,20.835 l 0.084,0.328 c 2.648,9.434 -5.066,11.594 -7.707,2.159 l -0.043,-0.338 c -4.096,-9.049 -8.017,-6.97 -13.385,-16.25 l -0.801,0.224 c 0.23,10.72 -4.193,10.978 -2.998,20.84 l 0.165,0.486 0.066,0.546 c 2.647,9.436 -5.167,11.624 -7.805,2.186 l -0.019,-0.56 c -3.217,-7.072 -6.34,-7.335 -10.142,-11.55" /></g></g></g></g><g
           transform="translate(1338.5264,940.7207)"
           id="g76"><path
             id="path78"
             style="fill:#5a0000;fill-opacity:1;fill-rule:nonzero;stroke:none"
             d="M 0,0 -355.509,115.842 -239.665,471.349 115.844,355.505 0,0 Z" /></g><g
           transform="translate(1454.6631,1297.1318)"
           id="g80"><path
             id="path82"
             style="fill:#f0af00;fill-opacity:1;fill-rule:nonzero;stroke:none"
             d="m 0,0 c -7.996,-24.543 -94.061,-18.507 -192.234,13.483 -98.17,31.991 -171.27,77.819 -163.271,102.361 7.997,24.543 94.065,18.506 192.233,-13.482 C -65.104,70.371 7.999,24.543 0,0" /></g><g
           transform="translate(1454.6631,1297.1318)"
           id="g84"><path
             id="path86"
             style="fill:none;stroke:#00d800;stroke-width:6.35900021;stroke-linecap:butt;stroke-linejoin:miter;stroke-miterlimit:4;stroke-dasharray:none;stroke-opacity:1"
             d="m 0,0 c -7.996,-24.543 -94.061,-18.507 -192.234,13.483 -98.17,31.991 -171.27,77.819 -163.271,102.361 7.997,24.543 94.065,18.506 192.233,-13.482 C -65.104,70.371 7.999,24.543 0,0 Z" /></g><g
           transform="translate(1095.666,1287.6333)"
           id="g88"><path
             id="path90"
             style="fill:#00cf81;fill-opacity:1;fill-rule:nonzero;stroke:none"
             d="m 0,0 c 28.677,-21.662 78.773,-45.995 137.998,-65.294 59.223,-19.297 114.04,-29.153 149.972,-28.543 L 209.084,-335.91 -79.408,-239.896 0,0 Z" /></g><g
           transform="translate(1412.8926,1310.7441)"
           id="g92"><path
             id="path94"
             style="fill:none;stroke:#00d800;stroke-width:1.91100001;stroke-linecap:butt;stroke-linejoin:miter;stroke-miterlimit:4;stroke-dasharray:none;stroke-opacity:1"
             d="m 0,0 c -6.119,-18.774 -71.959,-14.156 -147.062,10.315 -75.101,24.473 -131.016,59.529 -124.9,78.304 6.119,18.776 71.955,14.16 147.058,-10.313 C -49.803,53.834 6.114,18.775 0,0 Z" /></g><g
           transform="translate(1375.1553,1323.0391)"
           id="g96"><path
             id="path98"
             style="fill:none;stroke:#00d800;stroke-width:1.91100001;stroke-linecap:butt;stroke-linejoin:miter;stroke-miterlimit:4;stroke-dasharray:none;stroke-opacity:1"
             d="m 0,0 c -4.419,-13.564 -51.988,-10.229 -106.247,7.454 -54.258,17.679 -94.666,43.01 -90.244,56.574 4.419,13.566 51.99,10.229 106.25,-7.452 C -35.98,38.895 4.422,13.566 0,0 Z" /></g><g
           transform="translate(1120.3096,1191.71)"
           id="g100"><path
             id="path102"
             style="fill:#002d00;fill-opacity:1;fill-rule:nonzero;stroke:none"
             d="m 0,0 c -2.962,1.387 -4.754,2.198 -5.374,2.431 l -3.383,-7.325 -3.425,-7.224 c 1.972,-1.23 3.513,-2.046 4.613,-2.451 7.291,-2.738 12.015,-1.799 14.179,2.821 0.76,1.632 0.463,3.691 -0.897,6.176 C 4.32,-2.985 2.416,-1.13 0,0 m -7.369,-26.261 c -2.091,0.98 -5.179,2.523 -9.265,4.632 l -6.033,-12.895 c 4.051,-1.643 8.691,-2.891 13.925,-3.742 4.583,-0.742 7.164,-0.439 7.737,0.916 0.76,1.804 0.201,3.985 -1.683,6.547 -1.463,2.028 -3.021,3.54 -4.681,4.542 m -2.043,-22.323 c -6.286,0.507 -13.527,2.673 -21.706,6.501 -1.381,0.645 -2.349,1.799 -2.899,3.458 -0.554,1.661 -0.526,3.146 0.085,4.455 l 17.101,36.542 c 0.662,1.595 1.338,3.184 2.022,4.767 0.76,1.802 1.514,3.269 2.27,4.402 1.333,2.01 3.956,2.378 7.868,1.108 1.987,-0.313 4.999,-1.416 9.05,-3.308 4.338,-2.032 7.84,-5.381 10.505,-10.046 3.137,-5.444 3.562,-10.617 1.274,-15.509 -1.237,-2.645 -2.762,-4.648 -4.578,-6.011 -1.446,-1.117 -3.506,-2.074 -6.175,-2.869 1.723,-2.124 2.935,-4.681 3.64,-7.67 0.814,-3.349 0.657,-6.232 -0.477,-8.643 -1.425,-3.058 -4.451,-5.176 -9.06,-6.352 -3.077,-0.769 -6.054,-1.046 -8.92,-0.825" /></g><g
           transform="translate(1181.4248,1165.3428)"
           id="g104"><path
             id="path106"
             style="fill:#002d00;fill-opacity:1;fill-rule:nonzero;stroke:none"
             d="m 0,0 c -0.476,0.186 -0.942,0.448 -1.407,0.793 -3.418,2.538 -6.94,4.514 -10.555,5.927 -1.774,0.694 -3.73,1.296 -5.871,1.806 -2.146,0.512 -4.474,0.933 -6.99,1.262 -1.227,-3.144 -3.159,-7.77 -5.79,-13.876 1.358,-0.424 6.146,-1.792 14.369,-4.108 4.69,-1.317 7.64,-2.212 8.842,-2.683 1.394,-0.545 2.416,-1.455 3.058,-2.729 0.652,-1.274 0.685,-2.644 0.111,-4.11 -1.099,-2.812 -3.226,-3.82 -6.374,-3.026 -1.945,0.6 -4.859,1.468 -8.747,2.606 -3.505,0.934 -8.741,2.452 -15.709,4.551 -1.344,-2.936 -2.375,-5.325 -3.092,-7.168 -1.809,-4.632 -2.57,-7.375 -2.279,-8.224 0.143,-0.407 1.575,-1.146 4.29,-2.208 1.465,-0.573 3.686,-1.402 6.667,-2.486 2.984,-1.083 5.208,-1.911 6.672,-2.486 0.471,-0.185 1.198,-0.385 2.173,-0.606 0.98,-0.217 1.692,-0.415 2.139,-0.589 1.369,-0.536 2.39,-1.384 3.055,-2.543 0.768,-1.31 0.841,-2.758 0.221,-4.339 -1.034,-2.646 -3.035,-3.689 -6.006,-3.126 -2.539,0.473 -7.529,2.166 -14.969,5.077 -7.707,3.014 -12.322,6.018 -13.845,9.011 -1.684,3.301 -1.028,8.768 1.957,16.4 1.237,3.167 3.33,7.831 6.269,13.996 2.944,6.164 5.029,10.817 6.257,13.961 0.323,0.826 0.683,2.097 1.082,3.806 0.397,1.712 0.761,2.981 1.078,3.809 1.408,3.593 3.762,4.74 7.072,3.447 1.039,-0.406 1.88,-1.077 2.525,-2.009 3.006,-0.387 5.813,-0.891 8.417,-1.515 2.607,-0.624 5.003,-1.364 7.205,-2.224 C -2.226,14.067 2.271,11.519 5.307,8.753 7.148,7.078 7.655,5.153 6.806,2.977 6.324,1.749 5.472,0.828 4.251,0.216 2.88,-0.502 1.463,-0.573 0,0" /></g><g
           transform="translate(1213.0576,1143.2417)"
           id="g108"><path
             id="path110"
             style="fill:#002d00;fill-opacity:1;fill-rule:nonzero;stroke:none"
             d="m 0,0 c -2.936,-2.627 -6.95,-6.194 -12.066,-10.703 1.17,-0.111 2.922,-0.463 5.262,-1.059 2.759,-0.706 4.503,-1.122 5.234,-1.252 C -1.133,-9.689 -0.613,-5.351 0,0 m 1.496,-41.524 c -1.884,0.689 -3.077,3.557 -3.579,8.597 -0.364,3.263 -0.396,6.9 -0.115,10.916 -1.867,0.312 -4.88,0.99 -9.021,2.037 -3.899,0.965 -6.925,1.596 -9.068,1.889 -1.968,-2.297 -5.193,-5.667 -9.667,-10.115 -1.624,-1.396 -3.379,-1.787 -5.265,-1.177 -1.325,0.428 -2.374,1.265 -3.146,2.516 -0.771,1.247 -0.925,2.571 -0.473,3.972 0.396,1.231 3.508,4.838 9.338,10.822 -0.098,0.858 -0.019,1.607 0.241,2.242 0.473,1.127 1.937,1.655 4.394,1.58 5.344,4.83 11.149,9.757 17.41,14.771 8.995,7.201 14.191,10.576 15.594,10.123 2.654,-0.858 3.906,-3.037 3.763,-6.538 C 11.551,7.372 11.059,3.252 10.429,-2.25 9.65,-9.68 8.882,-18.218 8.111,-27.862 c -0.048,-0.731 0.05,-2.523 0.302,-5.379 0.198,-2.355 0.13,-4.055 -0.205,-5.092 C 7.756,-39.734 6.852,-40.732 5.497,-41.336 4.141,-41.938 2.809,-42 1.496,-41.524" /></g><g
           transform="translate(1284.499,1094.2559)"
           id="g112"><path
             id="path114"
             style="fill:#002d00;fill-opacity:1;fill-rule:nonzero;stroke:none"
             d="m 0,0 c -0.31,-1.23 -1.005,-3.123 -2.087,-5.676 -1.281,-3.053 -3.475,-4.195 -6.575,-3.422 -1.725,0.431 -3.429,1.89 -5.112,4.371 -7.346,10.907 -15.058,25.553 -23.131,43.937 -1.742,-6.367 -2.8,-10.273 -3.159,-11.726 -0.484,-1.946 -1.17,-4.885 -2.06,-8.822 -0.893,-3.935 -1.579,-6.876 -2.064,-8.82 -1.811,-7.265 -4.491,-10.453 -8.039,-9.569 -1.794,0.449 -3.096,1.363 -3.902,2.741 -0.714,1.224 -0.895,2.536 -0.546,3.941 0.244,0.982 0.698,2.453 1.352,4.406 0.659,1.954 1.112,3.426 1.358,4.41 0.361,1.452 0.951,3.618 1.776,6.498 0.823,2.883 1.415,5.048 1.777,6.502 0.388,1.551 0.932,3.898 1.64,7.044 0.705,3.143 1.252,5.492 1.636,7.042 0.37,1.479 0.773,3.72 1.206,6.724 0.436,3.003 0.839,5.243 1.205,6.72 0.369,1.477 1.331,2.637 2.885,3.478 1.558,0.839 3.149,1.058 4.776,0.652 1.823,-0.453 3.447,-2.534 4.876,-6.236 7.2,-18.742 14.985,-34.503 23.358,-47.286 0.22,0.78 0.701,2.648 1.433,5.603 3.026,12.137 4.946,20.356 5.756,24.652 0.127,0.726 0.303,2.095 0.515,4.108 0.185,1.785 0.396,3.169 0.643,4.154 0.847,3.399 3.068,4.648 6.667,3.752 4.006,-1 4.471,-7.694 1.381,-20.075 C 7.5,28.831 6.99,26.892 6.037,23.285 2.773,10.814 0.762,3.052 0,0" /></g><g
           transform="translate(1306.4688,1078.7036)"
           id="g116"><path
             id="path118"
             style="fill:#002d00;fill-opacity:1;fill-rule:nonzero;stroke:none"
             d="m 0,0 c -6.368,1.022 -11.149,3.243 -14.352,6.662 -2.703,2.85 -3.807,5.817 -3.309,8.899 0.253,1.577 0.937,2.809 2.059,3.696 1.116,0.887 2.516,1.195 4.198,0.926 2.254,-0.364 3.719,-1.782 4.4,-4.254 0.936,-3.312 3.918,-5.373 8.953,-6.181 4.31,-0.694 8.633,-0.425 12.97,0.805 4.49,1.256 6.923,3.037 7.294,5.341 0.504,3.156 -0.465,5.445 -2.906,6.867 -1.74,1.024 -5.39,2.048 -10.953,3.071 -4.318,0.797 -8.074,2.234 -11.259,4.315 -4.302,2.826 -6.101,6.174 -5.404,10.045 0.863,4.873 4.194,8.932 9.978,12.176 5.794,3.245 11.78,4.371 17.973,3.376 2.451,-0.395 5.39,-1.446 8.817,-3.152 4.26,-2.125 6.244,-4.104 5.949,-5.929 -0.211,-1.305 -0.847,-2.385 -1.913,-3.243 -1.181,-0.965 -2.56,-1.321 -4.137,-1.066 -1.178,0.19 -2.901,0.723 -5.162,1.6 -2.26,0.877 -3.992,1.413 -5.197,1.607 -3.234,0.495 -6.427,0.212 -9.579,-0.849 -3.256,-1.071 -5.03,-2.52 -5.322,-4.348 -0.159,-0.952 0.17,-1.81 0.988,-2.571 0.816,-0.76 2.119,-1.414 3.908,-1.958 3.183,-0.692 6.346,-1.379 9.5,-2.067 5.491,-1.321 9.636,-3.59 12.431,-6.816 C 33,23.375 34.109,18.928 33.255,13.617 32.219,7.156 27.747,2.847 19.847,0.701 13.826,-0.928 7.212,-1.162 0,0" /></g><g
           transform="translate(867.312,1226.8379)"
           id="g120"><path
             id="path122"
             style="fill:#00ff0b;fill-opacity:1;fill-rule:nonzero;stroke:none"
             d="M 0,0 C 39.484,188.276 -51.284,280.626 -51.284,280.626 L -86.795,254.069 C -86.795,254.069 17.719,146.978 0,0" /></g><g
           transform="translate(805.2886,1154.7676)"
           id="g124"><path
             id="path126"
             style="fill:#00ff00;fill-opacity:1;fill-rule:nonzero;stroke:none"
             d="m 0,0 c -21.442,-120.22 26.222,-232 106.463,-249.669 80.242,-17.669 162.671,65.461 184.115,185.68 C 312.02,56.23 264.354,162.85 184.115,180.519 103.874,198.188 21.442,120.216 0,0" /></g><g
           id="g128"><g
             id="g130" /><g
             id="g136"><g
               style="opacity:0.55000299"
               id="g138"
               clip-path="url(#clipPath132)"><g
                 id="g140"
                 transform="translate(1018.0527,950.623)"><path
                   id="path142"
                   style="fill:#ffffff;fill-opacity:1;fill-rule:nonzero;stroke:none"
                   d="m 0,0 0,0 c 31.251,31.473 56.177,79.925 66.423,137.503 10.293,57.569 3.883,112.918 -14.203,155.257 -18.163,42.442 -47.334,71.364 -83.126,79.25 -16.522,3.635 -33.274,2.53 -49.612,-2.812 C 94.179,311.284 34.041,45.662 0,0" /></g></g></g></g><g
           transform="translate(928.8877,1154.7676)"
           id="g144"><path
             id="path146"
             style="fill:#00ff00;fill-opacity:1;fill-rule:nonzero;stroke:none"
             d="m 0,0 c 21.442,-120.22 -26.222,-232 -106.463,-249.669 -80.242,-17.669 -162.671,65.461 -184.115,185.68 C -312.02,56.23 -264.355,162.85 -184.115,180.519 -103.874,198.188 -21.443,120.216 0,0" /></g><g
           id="g148"><g
             id="g150" /><g
             id="g156"><g
               style="opacity:0.55000299"
               id="g158"
               clip-path="url(#clipPath152)"><g
                 id="g160"
                 transform="translate(716.123,950.623)"><path
                   id="path162"
                   style="fill:#ffffff;fill-opacity:1;fill-rule:nonzero;stroke:none"
                   d="m 0,0 0,0 c -31.251,31.473 -56.178,79.925 -66.424,137.503 -10.293,57.569 -3.881,112.918 14.204,155.257 18.163,42.442 47.334,71.364 83.126,79.25 16.522,3.635 33.275,2.53 49.613,-2.812 C -94.18,311.284 -34.041,45.662 0,0" /></g></g></g></g><g
           transform="translate(867.0879,915.5801)"
           id="g164"><path
             id="path166"
             style="fill:#00ff00;fill-opacity:1;fill-rule:nonzero;stroke:none"
             d="m 0,0 c 88.768,1.913 160.297,100.519 160.297,221.879 0,84.257 -34.479,151.856 -85.269,185.878 -40.195,25.066 -50.973,0.126 -75.028,0.126 -24.056,0 -34.834,24.94 -75.03,-0.126 -50.788,-34.022 -85.266,-101.621 -85.266,-185.878 0,-121.358 71.526,-219.897 160.295,-221.877 L 0,0 Z" /></g><g
           id="g168"><g
             id="g170" /><g
             id="g176"><g
               style="opacity:0.55000299"
               id="g178"
               clip-path="url(#clipPath172)"><g
                 id="g180"
                 transform="translate(775.813,983.9121)"><path
                   id="path182"
                   style="fill:#ffffff;fill-opacity:1;fill-rule:nonzero;stroke:none"
                   d="m 0,0 0,0 c -28.872,36.685 -48.156,88.985 -50.043,147.645 -1.935,58.663 13.903,112.125 40.326,150.651 9.171,13.35 19.511,24.867 30.777,34.28 C -55.708,222.482 -38.279,61.162 0,0" /></g></g></g></g><g
           id="g184"><g
             id="g186" /><g
             id="g192"><g
               style="opacity:0.55000299"
               id="g194"
               clip-path="url(#clipPath188)"><g
                 id="g196"
                 transform="translate(958.3618,983.9121)"><path
                   id="path198"
                   style="fill:#ffffff;fill-opacity:1;fill-rule:nonzero;stroke:none"
                   d="M 0,0 0,0 C 28.873,36.685 48.158,88.985 50.044,147.645 51.979,206.308 36.14,259.77 9.718,298.296 0.546,311.646 -9.795,323.163 -21.059,332.576 55.708,222.482 38.28,61.162 0,0" /></g></g></g></g><g
           transform="translate(1401.8838,1092.3472)"
           id="g200"><path
             id="path202"
             style="fill:#f1ad75;fill-opacity:1;fill-rule:nonzero;stroke:none"
             d="m 0,0 0,-935.667 c 0,-29.913 -24.249,-54.162 -54.163,-54.162 l -676.699,0 c -29.916,0 -54.166,24.249 -54.166,54.162 l 0,975.328 L -741.08,0 -709.373,39.661 -677.665,0 -645.959,39.661 -614.253,0 -582.547,39.661 -550.84,0 -519.134,39.661 -487.426,0 -455.72,39.661 -424.012,0 -392.307,39.661 -360.601,0 -328.895,39.661 -297.187,0 -265.479,39.661 -233.771,0 -202.067,39.661 -170.359,0 -138.653,39.661 -106.945,0 -75.239,39.661 -43.946,0 0,39.661 0,0 Z" /></g></g></g></g></svg>