<?xml version="1.0" encoding="UTF-8" standalone="no"?>
<svg
   xmlns:dc="http://purl.org/dc/elements/1.1/"
   xmlns:cc="http://creativecommons.org/ns#"
   xmlns:rdf="http://www.w3.org/1999/02/22-rdf-syntax-ns#"
   xmlns:svg="http://www.w3.org/2000/svg"
   xmlns="http://www.w3.org/2000/svg"
   xmlns:sodipodi="http://sodipodi.sourceforge.net/DTD/sodipodi-0.dtd"
   xmlns:inkscape="http://www.inkscape.org/namespaces/inkscape"
   viewBox="0 0 246.67273 272.5712"
   version="1.1"
   id="svg14"
   sodipodi:docname="fairness.svg"
   inkscape:version="0.92.2 (5c3e80d, 2017-08-06)">
  <metadata
     id="metadata20">
    <rdf:RDF>
      <cc:Work
         rdf:about="">
        <dc:format>image/svg+xml</dc:format>
        <dc:type
           rdf:resource="http://purl.org/dc/dcmitype/StillImage" />
      </cc:Work>
    </rdf:RDF>
  </metadata>
  <defs
     id="defs18" />
  <sodipodi:namedview
     pagecolor="#ffffff"
     bordercolor="#666666"
     borderopacity="1"
     objecttolerance="10"
     gridtolerance="10"
     guidetolerance="10"
     inkscape:pageopacity="0"
     inkscape:pageshadow="2"
     inkscape:window-width="980"
     inkscape:window-height="513"
     id="namedview16"
     showgrid="false"
     inkscape:zoom="0.86582883"
     inkscape:cx="123.33636"
     inkscape:cy="136.2856"
     inkscape:window-x="1513"
     inkscape:window-y="230"
     inkscape:window-maximized="0"
     inkscape:current-layer="svg14" />
  <g
     transform="matrix(0.65425131,0,0,0.65425131,-125.25888,-191.48138)"
     id="g12"
     style="fill:#3c9a50;stroke:#1c4d1d;stroke-width:10;stroke-linecap:round;stroke-linejoin:round">
    <path
       d="m 277,456.36 c 8.3091,-4.3029 22.812,1.7318 33,-2.5 18.498,-7.6837 41.253,-35.566 49.618,-42.47 15.014,-12.393 28.861,-17.609 37.382,-34.03 4.3706,-8.4232 10.034,-28.923 19,-38 2.0015,-2.0261 6.6827,-3.9173 9.5,-3.5 7.0567,1.0451 11.159,5.8395 15.5,11.5 3.7296,4.8627 6.3704,10.883 6,17 -1.3169,21.75 -24.616,36.167 -31,57 -2.352,7.6754 -6.6939,17.488 -2,24 5.9372,8.2374 33.117,6.499 48,14 9.3469,4.7107 20.349,9.6233 25,19 3.703,7.4654 3.189,17.301 0,25 -2.5256,6.0973 -8.7813,7.7845 -11,14 -2.2524,6.31 1.8267,13.926 -1,20 -3.2376,6.9575 -13.617,9.7007 -18,16 -3.1397,4.5127 -1.4879,8.7706 -5,13 -5.6221,6.7703 -13.756,5.7987 -20,12 -3.9149,3.8882 -6.743,10.49 -11,14 -6.3621,5.2463 -15.755,6.1374 -24,6 -9.7055,-0.16171 -15.327,-4.1873 -25,-5 -9.0236,-0.75814 -21.351,2.6812 -30,0 -21.446,-6.6479 -31.758,-30.285 -51,-44 -7.4534,-5.3126 -20.253,1.1855 -27,-5 -11.981,-10.985 -12.22,-29.897 -10,-46 2.2874,-16.593 8.1263,-34.298 23,-42 z"
       id="path2"
       inkscape:connector-curvature="0" />
    <path
       d="m 472,517.86 c 0,0 -28.514,6.7667 -40.5,2.5 -15.511,-5.5213 -23.735,-12.779 -39.5,-20.5 -3.1469,-1.5411 -5.46,-7.5955 -3.5,-10.5 5.1309,-7.6035 16.863,-11.694 26,-12.5 11.839,-1.0443 24.625,7.5217 33.5,10 2.7711,0.7738 9.5,-1.5 9.5,-1.5"
       id="path4"
       inkscape:connector-curvature="0" />
    <path
       d="m 454,551.36 c 0,-0.34632 -23.766,1.126 -38,-3.5 -12.962,-4.2129 -20.471,-11.096 -43.5,-21 -9.724,-4.182 -3.4543,-8.1341 -2,-11.5 3.0865,-7.1435 18,-16.5 18,-16.5"
       id="path6"
       inkscape:connector-curvature="0" />
    <path
       d="m 431,577.36 c 0,0 -19.985,-0.47071 -28.5,-5 -12.907,-6.8652 -28.261,-12.859 -41,-19.5 -3.5959,-1.8745 -3.1601,-8.1143 -2,-12 1.6871,-5.6508 12,-13 12,-13"
       id="path8"
       inkscape:connector-curvature="0" />
    <path
       d="m 396.36,597.86 c 0,0 -34.168,-11.004 -43.864,-20 -2.5918,-2.4047 -0.61803,-9.1459 0.5,-12.5 1.7888,-5.3666 10,-10 10,-10"
       id="path10"
       inkscape:connector-curvature="0" />
  </g>
</svg>
