<?xml version="1.0" encoding="UTF-8" standalone="no"?>
<!-- Created with Inkscape (http://www.inkscape.org/) -->

<svg
   xmlns:dc="http://purl.org/dc/elements/1.1/"
   xmlns:cc="http://creativecommons.org/ns#"
   xmlns:rdf="http://www.w3.org/1999/02/22-rdf-syntax-ns#"
   xmlns:svg="http://www.w3.org/2000/svg"
   xmlns="http://www.w3.org/2000/svg"
   xmlns:xlink="http://www.w3.org/1999/xlink"
   xmlns:sodipodi="http://sodipodi.sourceforge.net/DTD/sodipodi-0.dtd"
   xmlns:inkscape="http://www.inkscape.org/namespaces/inkscape"
   version="1.1"
   id="svg5745"
   width="30.315788"
   height="10.772592"
   viewBox="0 0 30.315788 10.772592"
   sodipodi:docname="gerader_pfeil.svg"
   inkscape:version="0.92.2 (5c3e80d, 2017-08-06)">
  <metadata
     id="metadata5751">
    <rdf:RDF>
      <cc:Work
         rdf:about="">
        <dc:format>image/svg+xml</dc:format>
        <dc:type
           rdf:resource="http://purl.org/dc/dcmitype/StillImage" />
        <dc:title></dc:title>
      </cc:Work>
    </rdf:RDF>
  </metadata>
  <defs
     id="defs5749">
    <clipPath
       clipPathUnits="userSpaceOnUse"
       id="clipPath7718">
      <use
         x="0"
         y="0"
         xlink:href="#g7714"
         id="use7720"
         width="100%"
         height="100%" />
    </clipPath>
  </defs>
  <sodipodi:namedview
     pagecolor="#ffffff"
     bordercolor="#666666"
     borderopacity="1"
     objecttolerance="10"
     gridtolerance="10"
     guidetolerance="10"
     inkscape:pageopacity="0"
     inkscape:pageshadow="2"
     inkscape:window-width="1364"
     inkscape:window-height="1684"
     id="namedview5747"
     showgrid="false"
     inkscape:zoom="21.907449"
     inkscape:cx="24.708406"
     inkscape:cy="1.2670991"
     inkscape:window-x="-11"
     inkscape:window-y="0"
     inkscape:window-maximized="0"
     inkscape:current-layer="g7143" />
  <g
     id="g7005"
     transform="translate(1.4606904,-0.27387943)">
    <g
       id="g7143">
      <g
         id="g7716"
         clip-path="url(#clipPath7718)"
         transform="translate(-1.825863,-1.3237507)">
        <g
           inkscape:label="Clip"
           id="g7714">
          <path
             style="fill:#ddeefe;stroke-width:0.09533267"
             d="M 21.068519,8.0356448 C 20.81821,7.9436077 20.580096,7.6876755 20.445851,7.3663844 L 20.315587,7.0546178 19.190564,7.0555234 C 18.571801,7.0560192 14.450989,7.1621493 10.033205,7.29136 5.6154198,7.4205732 1.8730304,7.5007234 1.7167835,7.469474 1.2680636,7.37973 0.99176365,7.0285673 0.86569822,6.3877889 0.80401971,6.074283 0.78158011,5.6683941 0.81583243,5.4858135 0.88999106,5.090514 1.2389155,4.7133374 1.5991543,4.6390665 1.7420622,4.6096031 5.8272093,4.4745664 10.677259,4.338985 c 4.850049,-0.1355814 8.96842,-0.2771493 9.151936,-0.3145954 0.248929,-0.050793 0.373792,-0.1484387 0.491678,-0.3844972 0.342226,-0.6852883 0.681137,-0.8565113 1.342722,-0.6783647 0.687541,0.1851356 3.446731,1.5112476 3.671061,1.7643721 0.283026,0.3193541 0.293107,0.9637463 0.0205,1.3103099 -0.221352,0.2814041 -2.995195,1.8053172 -3.571642,1.962214 -0.413678,0.1125943 -0.498059,0.116987 -0.714995,0.037221 z"
             id="path7083"
             inkscape:connector-curvature="0" />
          <path
             style="fill:#d3e9fe;stroke-width:0.09533267"
             d="M 20.899008,7.8641657 C 20.779561,7.7779351 20.607739,7.5497857 20.517182,7.3571671 L 20.352533,7.0069514 19.455473,6.9793327 C 18.962091,6.9641424 14.795267,7.0612194 10.195865,7.1950592 5.5964623,7.3288991 1.7532917,7.4100094 1.6554856,7.3753044 1.2859573,7.2441828 1.0560214,6.9296333 0.94747109,6.4067492 0.76661663,5.5355779 0.95750167,4.9660998 1.4998999,4.7586569 1.6169999,4.7138714 5.4779729,4.5698092 10.07984,4.4385186 20.412937,4.1437168 19.971621,4.1626859 20.161399,4.0051837 c 0.08551,-0.070968 0.213762,-0.2685347 0.285003,-0.4390375 0.190495,-0.455919 0.532715,-0.6460997 1.027108,-0.570791 0.222935,0.033959 1.156082,0.4147401 2.073659,0.8461806 1.531905,0.7202946 1.682583,0.8135273 1.842734,1.1401984 0.144696,0.2951471 0.156267,0.410743 0.06791,0.6784652 -0.05858,0.1774871 -0.179962,0.3880225 -0.269746,0.4678565 -0.08978,0.079834 -0.851016,0.5135579 -1.691628,0.9638309 -1.661047,0.8897394 -2.209033,1.0526687 -2.597432,0.7722789 z"
             id="path7079"
             inkscape:connector-curvature="0" />
          <path
             style="fill:#cce6fe;stroke-width:0.09533267"
             d="m 20.865365,7.7556208 c -0.08535,-0.09717 -0.22312,-0.3108987 -0.306154,-0.474952 -0.08303,-0.1640532 -0.20618,-0.3183851 -0.27366,-0.3429597 -0.06748,-0.024574 -4.170854,0.071861 -9.118607,0.2143013 C 2.9127766,7.3896386 1.8808775,7.3950744 1.4190696,7.2033596 1.1957509,7.1106512 1.0356108,6.7031297 0.97793756,6.0807751 0.89479999,5.1836341 1.1114547,4.8827977 1.9543197,4.7250176 2.2370312,4.6720954 17.832478,4.1946376 19.27839,4.1946376 c 0.819916,0 0.895929,-0.042898 1.35139,-0.7626614 0.200213,-0.3163963 0.237998,-0.3333333 0.730104,-0.3272684 0.440065,0.00542 0.758105,0.1179934 2.091952,0.7404446 0.865144,0.4037268 1.669513,0.8429629 1.787487,0.9760801 0.270441,0.3051543 0.279329,0.7905967 0.0205,1.1196445 -0.106699,0.1356462 -0.888386,0.621311 -1.737081,1.079255 -1.217259,0.6568155 -1.644342,0.8410226 -2.022637,0.8723938 -0.380668,0.031568 -0.511555,0.00334 -0.63474,-0.136905 z"
             id="path7077"
             inkscape:connector-curvature="0" />
          <path
             style="fill:#c4e2fe;stroke-width:0.09533267"
             d="M 20.99172,7.7623309 C 20.873715,7.6796764 20.70305,7.454453 20.612467,7.2618344 L 20.447769,6.9116188 19.429974,6.8846262 C 18.870187,6.8697802 14.696,6.9658624 10.154002,7.0981421 0.98074549,7.3653013 1.3572653,7.3797065 1.1592047,6.7540124 0.8438613,5.7578094 0.95482282,5.1219426 1.4824808,4.9014729 1.730197,4.7979705 3.7891555,4.7129253 10.838478,4.515024 c 5.885561,-0.1652302 9.121454,-0.2907232 9.276527,-0.3597582 0.130979,-0.058309 0.313117,-0.2652424 0.404752,-0.459852 0.25081,-0.5326582 0.548833,-0.6913903 1.057582,-0.5632858 0.63647,0.160265 3.199163,1.3652076 3.506954,1.6489209 0.348542,0.3212775 0.373726,0.8154418 0.0597,1.1714583 -0.249834,0.2832389 -2.842227,1.7092421 -3.377538,1.8578897 -0.476073,0.1321976 -0.521384,0.1293865 -0.774733,-0.048066 z"
             id="path7075"
             inkscape:connector-curvature="0" />
          <path
             style="fill:#c1e0fe;stroke-width:0.09533267"
             d="M 20.940093,7.6752337 C 20.85047,7.5856107 20.716829,7.3679355 20.643114,7.1915107 20.552009,6.9734626 20.42312,6.8488878 20.240641,6.8025062 20.092994,6.7649785 15.883587,6.8504369 10.886402,6.9924139 3.4401287,7.2039727 1.7548094,7.2285748 1.5467923,7.1287526 1.2679368,6.9949366 1.0684947,6.492781 1.0559858,5.8929987 1.0455797,5.3940465 1.1964436,5.0642159 1.4853023,4.954392 1.6245927,4.9014338 5.7605459,4.7417555 10.853447,4.5927123 17.451344,4.3996256 20.031893,4.2933966 20.188146,4.2084467 20.30692,4.1438731 20.494165,3.8994334 20.604245,3.6652473 20.821562,3.2029248 21.058951,3.0820982 21.55503,3.181314 c 0.526326,0.1052653 3.427819,1.5148135 3.619322,1.7582708 0.475379,0.6043457 0.128257,0.9950229 -1.80046,2.0263775 -1.576042,0.8427656 -2.136866,1.0062044 -2.433799,0.7092714 z"
             id="path7073"
             inkscape:connector-curvature="0" />
          <path
             style="fill:#bfe0fe;stroke-width:0.09533267"
             d="M 20.945021,7.5967753 C 20.82943,7.4754981 20.661776,7.2395497 20.572457,7.0724456 L 20.410059,6.7686198 19.333132,6.7688295 C 18.740823,6.7689439 14.549981,6.8771126 10.020152,7.0092069 2.6265908,7.2248102 1.7614537,7.234541 1.5627319,7.1043335 1.25193,6.9006883 1.1508712,6.671744 1.0823338,6.0160126 1.0253632,5.4709474 1.0357974,5.4321613 1.3143345,5.1536242 1.5566013,4.9113574 1.6839108,4.8610477 2.0661522,4.8565239 c 0.25309,-0.003 4.4155792,-0.122261 9.2499768,-0.2650345 l 8.789812,-0.2595885 0.242958,-0.2282466 c 0.133626,-0.1255393 0.242957,-0.2870719 0.242957,-0.3589649 0,-0.2021966 0.444355,-0.5987112 0.670947,-0.5987112 0.262696,0 1.28363,0.4133779 2.688601,1.0886197 1.19297,0.5733523 1.474372,0.8504136 1.353376,1.3325004 C 25.2181,5.9124526 24.959595,6.1007578 23.499502,6.882126 21.599561,7.8988788 21.310133,7.97985 20.945021,7.5967753 Z"
             id="path7071"
             inkscape:connector-curvature="0" />
          <path
             style="fill:#bddefe;stroke-width:0.09533267"
             d="M 21.092889,7.72024 C 20.974373,7.6720023 20.811467,7.4645542 20.727699,7.2551979 20.625618,7.0000734 20.493769,6.8503195 20.321999,6.7944033 20.170385,6.7450488 16.445368,6.8188588 11.106256,6.9770104 6.1775568,7.1230049 2.0114506,7.2208024 1.8482419,7.1943383 1.4286549,7.1263024 1.2498089,6.8822283 1.1328011,6.2179646 1.0141093,5.5441408 1.1332015,5.1765748 1.5321828,4.9853498 1.7065364,4.9017842 4.3174719,4.7984827 10.730917,4.621402 15.65632,4.4854076 19.850728,4.3309332 20.051824,4.2781256 c 0.306157,-0.080397 0.396395,-0.1655664 0.554781,-0.5236236 0.20813,-0.4705125 0.505772,-0.6473351 0.921361,-0.5473595 0.451283,0.1085626 3.285775,1.4565207 3.514377,1.6712818 0.267782,0.2515672 0.293486,0.7352833 0.05398,1.015845 -0.21127,0.2474866 -3.120875,1.7939501 -3.503476,1.8621075 -0.157299,0.028022 -0.382281,0.01176 -0.49996,-0.036137 z"
             id="path7069"
             inkscape:connector-curvature="0" />
          <path
             style="fill:#baddfe;stroke-width:0.09533267"
             d="M 20.951572,7.5551143 C 20.870998,7.4633566 20.775296,7.2906148 20.738901,7.1712439 20.58461,6.6651878 20.973357,6.6739063 11.215238,6.9576562 2.9269141,7.198667 1.7515644,7.2056954 1.4447641,7.0160823 1.1736852,6.8485463 1.0415911,5.515113 1.2657105,5.2086115 1.3326556,5.1170585 1.5578791,5.0031272 1.766207,4.9554307 c 0.2083279,-0.047696 4.3899,-0.2012113 9.292382,-0.341144 5.823877,-0.1662324 8.996218,-0.2913586 9.151936,-0.3609787 0.131083,-0.058605 0.307729,-0.2454197 0.39255,-0.4151426 0.434174,-0.868779 0.667828,-0.8328121 3.540417,0.5449844 1.544768,0.7409262 1.521806,1.2585086 -0.0951,2.1437077 -2.245449,1.2293022 -2.767937,1.4027872 -3.096818,1.0282568 z"
             id="path7067"
             inkscape:connector-curvature="0" />
          <path
             style="fill:#b4dafd;stroke-width:0.09533267"
             d="M 21.139349,7.6178234 C 21.047222,7.5646015 20.884594,7.3500295 20.777954,7.1409968 20.671313,6.931964 20.489291,6.7273106 20.37346,6.6862114 20.257629,6.6451123 16.065938,6.7317744 11.058589,6.8787941 4.4704999,7.0722255 1.8841245,7.1180266 1.700333,7.0445156 1.0877122,6.7994857 0.99603942,5.3328536 1.5768048,5.0682392 1.7285079,4.9991186 4.9527674,4.873304 10.843161,4.7066545 17.395203,4.5212858 19.960432,4.4178332 20.181076,4.3300677 20.378297,4.251619 20.554433,4.073529 20.681883,3.8237056 c 0.256315,-0.5024167 0.450036,-0.6021654 0.918341,-0.4728604 0.490846,0.1355293 3.189285,1.389801 3.400768,1.580724 0.238679,0.2154748 0.213723,0.7126399 -0.04767,0.9496373 -0.251602,0.2281228 -2.774101,1.5967371 -3.122145,1.6939602 -0.131083,0.036617 -0.302682,0.082967 -0.381331,0.1029998 -0.07865,0.020033 -0.218376,-0.00712 -0.310501,-0.060343 z"
             id="path7065"
             inkscape:connector-curvature="0" />
          <path
             style="fill:#b1d9fd;stroke-width:0.09533267"
             d="m 21.035629,7.452275 c -0.08678,-0.095886 -0.157775,-0.2188 -0.157775,-0.2731415 0,-0.054341 -0.08891,-0.2118375 -0.197585,-0.3499909 C 20.48785,6.5845207 20.45483,6.5779598 19.417112,6.5781605 18.831046,6.5782749 14.645238,6.6864459 10.115315,6.8185428 5.5853934,6.9506398 1.7994493,7.033441 1.7021067,7.0025457 1.4516592,6.9230568 1.3414591,6.6709995 1.273693,6.0226484 1.2220771,5.5288132 1.2400129,5.4332741 1.4176944,5.2555926 1.5585286,5.1147584 1.7446767,5.0509951 2.0258192,5.0472851 2.2486593,5.0443441 6.4041185,4.9243872 11.260173,4.7807133 c 9.779682,-0.2893469 9.193906,-0.2330441 9.477137,-0.910911 0.207313,-0.4961695 0.373326,-0.5869368 0.843504,-0.4611834 0.616331,0.1648434 3.029332,1.3083396 3.324845,1.5756096 0.144191,0.1304099 0.262165,0.3096994 0.262165,0.398421 0,0.2888229 -0.501666,0.6717541 -1.761709,1.3447457 -1.801813,0.9623519 -2.078897,1.0470826 -2.370486,0.7248798 z"
             id="path7063"
             inkscape:connector-curvature="0" />
          <path
             style="fill:#aed8fe;stroke-width:0.09533267"
             d="M 20.942409,7.1643614 C 20.65222,6.4391049 21.39941,6.4702364 11.298759,6.7625614 6.318638,6.9066921 2.0984974,6.9918025 1.9206687,6.9516956 1.74284,6.9115887 1.5550668,6.836497 1.503395,6.7848252 1.3766214,6.6580516 1.3027596,5.5136523 1.4111401,5.3554456 1.4586834,5.2860449 1.6675906,5.1910643 1.875378,5.1443775 2.0831655,5.0976908 6.0254545,4.9515717 10.636021,4.8196684 15.246586,4.6877652 19.305289,4.567023 19.65536,4.5513525 c 0.729705,-0.032664 0.963759,-0.1834005 1.199685,-0.7726256 0.143038,-0.3572401 0.159114,-0.3668762 0.537957,-0.3224601 0.405199,0.047506 3.219288,1.3057862 3.512657,1.570635 0.229134,0.206858 0.209079,0.5261861 -0.04767,0.758972 -0.415814,0.3770101 -2.951496,1.6757516 -3.362129,1.7220358 -0.390282,0.043991 -0.401072,0.037293 -0.553455,-0.3435482 z"
             id="path7061"
             inkscape:connector-curvature="0" />
          <path
             style="fill:#acd6fd;stroke-width:0.09533267"
             d="M 21.13433,7.4597816 C 21.111905,7.4204569 21.041195,7.2258887 20.977197,7.0274078 20.759187,6.3512729 21.301081,6.377222 12.679245,6.6300512 2.207262,6.9371346 1.6348602,6.9441671 1.5202535,6.7671498 1.4698567,6.6893088 1.4396555,6.3259193 1.4531396,5.9596175 L 1.4776563,5.2936142 1.858987,5.2273695 c 0.2097319,-0.036435 4.3924526,-0.1816347 9.294935,-0.3226668 10.043983,-0.2889403 9.456005,-0.2287836 9.735633,-0.9960631 0.08599,-0.2359484 0.223259,-0.4423814 0.305043,-0.4587399 0.1649,-0.032984 0.953994,0.2993707 2.710068,1.1414412 1.027155,0.4925401 1.167825,0.5883552 1.167825,0.7954445 0,0.2832228 -0.180326,0.4043613 -2.105914,1.4146957 -1.294198,0.6790504 -1.730931,0.8359627 -1.832247,0.6583005 z"
             id="path7059"
             inkscape:connector-curvature="0" />
          <path
             style="fill:#a9d5fd;stroke-width:0.09533267"
             d="m 21.132075,7.467726 c -0.03496,-0.034955 -0.06356,-0.2018016 -0.06356,-0.3707694 0,-0.1689678 -0.07674,-0.4019868 -0.170537,-0.5178199 L 20.727443,6.3685311 11.212502,6.6379842 C 1.8390038,6.9034317 1.6955718,6.9047174 1.5637753,6.7244749 1.4075234,6.5107877 1.3789354,5.3814357 1.5274546,5.2896457 c 0.053605,-0.03313 4.3215553,-0.1839962 9.4843334,-0.3352581 5.925851,-0.1736189 9.45683,-0.3124641 9.576616,-0.3765717 0.252775,-0.1352809 0.384783,-0.3997188 0.384783,-0.7707941 0,-0.2975339 0.0085,-0.3036274 0.357497,-0.2550067 0.461365,0.064283 3.549631,1.503264 3.684251,1.7166809 0.157804,0.2501723 -0.09272,0.4340198 -1.903766,1.3970608 -1.561187,0.830177 -1.83851,0.9425539 -1.979094,0.8019692 z"
             id="path7057"
             inkscape:connector-curvature="0" />
          <path
             style="fill:#a3d1fc;stroke-width:0.09533267"
             d="m 21.182919,7.4168819 c -0.06292,-0.062919 -0.1144,-0.3203178 -0.1144,-0.571996 V 6.3872891 l -0.83416,-0.00204 C 19.77557,6.3841316 15.418346,6.4970558 10.551638,6.6361953 4.5560807,6.8076088 1.6718298,6.8579274 1.6061604,6.792258 1.5528552,6.7389527 1.487669,6.4437044 1.4613022,6.1361504 1.3781537,5.1662712 0.48314078,5.2811949 10.248262,5.0078666 14.967229,4.8757814 19.308805,4.7419135 19.896209,4.7103821 l 1.068007,-0.05733 0.02832,-0.5381123 c 0.02223,-0.4224741 0.06407,-0.5449152 0.194673,-0.5697697 0.09149,-0.017412 0.981662,0.3435733 1.978152,0.802189 1.570444,0.722767 1.8118,0.8624996 1.8118,1.048938 0,0.1816134 -0.279278,0.3645034 -1.794313,1.1750376 -0.986871,0.5279702 -1.814835,0.9599459 -1.83992,0.9599459 -0.02508,0 -0.09709,-0.05148 -0.160007,-0.1143992 z"
             id="path7055"
             inkscape:connector-curvature="0" />
          <path
             style="fill:#9bcdfb;stroke-width:0.09533267"
             d="m 21.126385,7.2851525 c -0.03183,-0.082938 -0.05787,-0.3427177 -0.05787,-0.5772886 V 6.2813713 L 19.56703,6.3403642 C 14.017602,6.558399 1.8590139,6.8451649 1.703048,6.7616945 1.4500278,6.6262822 1.4411965,5.4846249 1.6921548,5.3535043 1.7839125,5.3055628 6.0631576,5.1508407 11.201588,5.0096775 c 5.138431,-0.1411633 9.439126,-0.2758639 9.5571,-0.2993348 0.182476,-0.036303 0.214499,-0.103727 0.214499,-0.4516341 0,-0.2249279 0.05806,-0.4883592 0.129018,-0.5854028 0.122141,-0.167038 0.226909,-0.1312979 1.965525,0.6705136 1.01008,0.465826 1.858781,0.9049999 1.886004,0.9759419 0.02722,0.070942 -0.01,0.1854178 -0.08271,0.2543905 -0.209703,0.1989207 -3.367188,1.8617967 -3.535199,1.8617967 -0.08337,0 -0.177619,-0.067858 -0.209445,-0.150796 z"
             id="path7053"
             inkscape:connector-curvature="0" />
          <path
             style="fill:#95c9fa;stroke-width:0.09533267"
             d="m 21.215642,7.3167826 c -0.02066,-0.065541 -0.06484,-0.3229394 -0.09818,-0.571996 L 21.056836,6.2919564 20.466849,6.292862 C 20.142356,6.293364 16.251836,6.4002045 11.821251,6.5302881 2.0460119,6.8172924 1.6609951,6.8205844 1.5831885,6.6178238 1.4851568,6.3623573 1.5192617,5.4489607 1.629373,5.3809082 1.686601,5.3455392 6.0301954,5.1921949 11.281806,5.0401424 c 5.25161,-0.1520525 9.602006,-0.2958987 9.667547,-0.3196583 0.07576,-0.027465 0.119166,-0.2352582 0.119166,-0.5705208 0,-0.4657222 0.02252,-0.5273217 0.192811,-0.5273217 0.2306,0 3.417439,1.4728236 3.61641,1.6713534 0.08792,0.087725 0.105418,0.171026 0.04767,0.2269242 -0.14028,0.1357788 -3.459574,1.9150293 -3.572597,1.9150293 -0.05478,0 -0.116509,-0.053625 -0.137167,-0.1191659 z"
             id="path7051"
             inkscape:connector-curvature="0" />
          <path
             style="fill:#90c6f9;stroke-width:0.09533267"
             d="m 21.227407,7.3723933 c -0.03496,-0.034955 -0.06356,-0.27225 -0.06356,-0.5273216 0,-0.3299224 -0.04243,-0.480048 -0.147013,-0.5201811 C 20.93598,6.2938626 16.585499,6.3894461 11.3491,6.5372984 3.4520941,6.7602741 1.802534,6.7846735 1.6768495,6.6803645 1.5120903,6.5436266 1.4637474,5.6786811 1.6081362,5.4509545 1.6715206,5.3509861 3.6658244,5.2671447 11.259109,5.0452232 c 5.264093,-0.1538484 9.624703,-0.2995725 9.690244,-0.3238313 0.07383,-0.027328 0.119166,-0.2277153 0.119166,-0.5267543 0,-0.3465321 0.04138,-0.4985267 0.146732,-0.5389533 0.08194,-0.031445 0.913264,0.2989165 1.88282,0.7482222 1.297898,0.6014642 1.742788,0.8510364 1.762631,0.9887915 0.0216,0.1499215 -0.299103,0.3574966 -1.720732,1.1137569 -0.961001,0.5112215 -1.770164,0.9294936 -1.798141,0.9294936 -0.02798,0 -0.07947,-0.0286 -0.114422,-0.063555 z"
             id="path7049"
             inkscape:connector-curvature="0" />
          <path
             style="fill:#8cc4f8;stroke-width:0.09533267"
             d="M 21.283018,7.3688904 C 21.207787,7.3410096 21.163852,7.134341 21.163852,6.8083417 V 6.2919564 l -0.834161,-0.00204 C 19.870903,6.288799 15.50952,6.401843 10.63773,6.541129 2.0685068,6.7861258 1.7757826,6.7887044 1.6526263,6.6202782 1.4866003,6.3932241 1.4868666,5.5845568 1.6530172,5.4466677 1.7395271,5.374871 4.4835088,5.2641074 10.161458,5.1032164 14.770866,4.9726034 19.110625,4.839045 19.805362,4.8064198 l 1.263157,-0.059319 V 4.2295457 c 0,-0.3678979 0.04061,-0.5331379 0.14043,-0.5714435 0.07724,-0.029638 0.924506,0.3118652 1.88282,0.7588968 1.312392,0.6122004 1.742391,0.8550941 1.742391,0.9842245 0,0.1139063 -0.223948,0.2940529 -0.667329,0.5368077 -1.82309,0.9981575 -2.775831,1.4708781 -2.883813,1.4308592 z"
             id="path7047"
             inkscape:connector-curvature="0" />
          <path
             style="fill:#85c0f8;stroke-width:0.09533267"
             d="m 21.211582,7.2214499 c -0.02289,-0.065541 -0.05372,-0.3122145 -0.06851,-0.5481628 l -0.02689,-0.428997 -0.810328,0.024674 C 10.807026,6.5582029 1.7768879,6.7712268 1.71699,6.707482 1.6746835,6.6624582 1.6119814,6.4111222 1.5776521,6.1489574 1.4634049,5.27648 0.63788953,5.3750112 10.343594,5.1026789 15.062561,4.9702695 19.406156,4.8362598 19.996027,4.8048796 l 1.072492,-0.057055 V 4.2299074 c 0,-0.3546517 0.04185,-0.5339752 0.132748,-0.5688573 0.07301,-0.028017 0.932864,0.3232098 1.910783,0.7805043 1.283503,0.6001908 1.770201,0.872128 1.749867,0.9777178 -0.02926,0.1519254 -3.224485,1.9213436 -3.469575,1.9213436 -0.07653,0 -0.157869,-0.053625 -0.18076,-0.1191659 z"
             id="path7045"
             inkscape:connector-curvature="0" />
          <path
             style="fill:#82bef7;stroke-width:0.09533267"
             d="m 21.227407,7.2770606 c -0.03496,-0.034955 -0.06356,-0.2683718 -0.06356,-0.5187034 0,-0.2503316 -0.03217,-0.474981 -0.0715,-0.499221 -0.03932,-0.02424 -4.382845,0.08098 -9.652268,0.2338222 C 6.1706606,6.6458005 1.8056162,6.7502471 1.7399849,6.7250622 1.5752793,6.6618587 1.5751301,5.4431764 1.7398212,5.3881961 1.8053624,5.3663159 5.9559084,5.2372192 10.963257,5.1013147 15.970605,4.9654103 20.29275,4.8314228 20.568023,4.8035648 L 21.068519,4.752914 V 4.2410704 c 0,-0.281514 0.047,-0.5408931 0.104452,-0.5763979 0.164967,-0.1019557 3.721592,1.5860868 3.688699,1.7507274 -0.02638,0.1320204 -3.254656,1.9241188 -3.46743,1.9248574 -0.0568,2.002e-4 -0.131878,-0.028241 -0.166833,-0.063197 z"
             id="path7043"
             inkscape:connector-curvature="0" />
          <path
             style="fill:#7bbaf6;stroke-width:0.09533267"
             d="m 21.227407,7.2770606 c -0.03496,-0.034955 -0.06356,-0.2683718 -0.06356,-0.5187034 0,-0.2503316 -0.03415,-0.476255 -0.07589,-0.5020519 C 21.04622,6.2305084 16.724075,6.334516 11.483194,6.4874336 6.2423132,6.640351 1.8792452,6.7418343 1.7874875,6.712952 1.6515731,6.6701705 1.6206553,6.5479825 1.6206553,6.0536247 c 0,-0.4961398 0.030428,-0.6155384 0.1668322,-0.6546493 0.091758,-0.026309 4.3281031,-0.1595608 9.4141005,-0.2961143 5.085998,-0.1365535 9.396158,-0.2787923 9.578132,-0.3160863 0.324936,-0.066593 0.330375,-0.075617 0.303664,-0.503846 -0.04674,-0.749335 0.03239,-0.744396 1.896385,0.1183547 1.679937,0.7775609 1.902057,0.8986426 1.902057,1.0368449 0,0.082965 -3.34491,1.9024874 -3.497429,1.9024874 -0.05139,0 -0.122035,-0.0286 -0.15699,-0.063555 z"
             id="path7041"
             inkscape:connector-curvature="0" />
          <path
             style="fill:#72b4f5;stroke-width:0.09533267"
             d="m 21.221718,7.1898198 c -0.03183,-0.082938 -0.05787,-0.3403361 -0.05787,-0.571996 V 6.1966237 l -0.45283,0.00338 c -0.249053,0.00186 -4.592647,0.125617 -9.652429,0.2750219 C 4.8539161,6.6582367 1.8201926,6.7154079 1.7398212,6.6506398 1.671061,6.5952283 1.6206553,6.3368967 1.6206553,6.0399079 c 0,-0.4450292 0.029035,-0.5262037 0.2144985,-0.5996804 0.1179742,-0.046739 4.4615688,-0.2010899 9.6524322,-0.343002 6.099619,-0.1667565 9.482236,-0.2936312 9.563182,-0.3586945 0.06889,-0.05537 0.118356,-0.2540217 0.109929,-0.4414487 -0.0235,-0.5227957 -0.0084,-0.5791081 0.154886,-0.5791081 0.150886,0 3.218489,1.384225 3.448253,1.555989 0.08801,0.065796 0.09238,0.1236536 0.01626,0.2153738 -0.111311,0.1341203 -3.282823,1.8512788 -3.419227,1.8512788 -0.04471,0 -0.107326,-0.067858 -0.139151,-0.150796 z"
             id="path7039"
             inkscape:connector-curvature="0" />
          <path
             style="fill:#6cb1f4;stroke-width:0.09533267"
             d="m 21.314097,7.2295859 c -0.02237,-0.070016 -0.06796,-0.3310754 -0.101303,-0.580132 l -0.06062,-0.4528302 h -0.57286 c -0.315072,0 -4.317913,0.109002 -8.895201,0.2422265 C 7.1068195,6.5720748 2.9807406,6.6685991 2.5150435,6.6533487 L 1.6683217,6.6256207 1.6390343,6.1115119 c -0.016108,-0.28276 0.012977,-0.5563729 0.064632,-0.6080288 0.05661,-0.05661 3.8932306,-0.203528 9.6578867,-0.3698355 5.260182,-0.1517537 9.617591,-0.2950664 9.683132,-0.3184729 0.07584,-0.027085 0.119166,-0.2342737 0.119166,-0.5698788 0,-0.3574591 0.03839,-0.5278309 0.119166,-0.5289026 0.236866,-0.00314 3.503476,1.558889 3.503476,1.6752958 0,0.1291612 -0.347443,0.3366312 -2.216355,1.3234596 -0.864185,0.4563104 -1.227116,0.6049556 -1.256041,0.5144372 z"
             id="path7037"
             inkscape:connector-curvature="0" />
          <path
             style="fill:#64acf2;stroke-width:0.09533267"
             d="M 21.319385,7.2737066 C 21.286275,7.240596 21.258528,7.0383318 21.257725,6.8242304 21.255027,6.1037032 22.140635,6.13841 11.442783,6.4395871 3.044864,6.6760142 1.7869915,6.6932623 1.7109286,6.5730323 1.5899023,6.3817301 1.5982592,5.554389 1.7219903,5.477919 1.7777243,5.443473 6.1213193,5.2904276 11.374423,5.1378174 c 5.253103,-0.1526103 9.604722,-0.2972116 9.670263,-0.3213365 0.07568,-0.027858 0.119166,-0.2362765 0.119166,-0.571185 0,-0.3580436 0.03825,-0.5274773 0.119166,-0.5278065 0.22649,-9.248e-4 3.502473,1.5738363 3.502974,1.6838717 3.81e-4,0.08737 -1.465368,0.9233157 -3.204442,1.8275364 -0.11108,0.057755 -0.229054,0.077919 -0.262165,0.044809 z"
             id="path7035"
             inkscape:connector-curvature="0" />
          <path
             style="fill:#57a4f1;stroke-width:0.09533267"
             d="m 21.259185,6.7802928 c 0,-0.260645 -0.05237,-0.5043708 -0.119166,-0.5546009 -0.0749,-0.056323 -3.689254,0.013904 -9.729766,0.1890473 C 6.124423,6.5680011 1.7794962,6.6732403 1.7548602,6.6486041 1.6654524,6.5591964 1.6136089,5.6692791 1.6912292,5.5563519 1.7506838,5.4698538 4.2084517,5.3688299 11.36925,5.1585474 16.648331,5.003523 21.01174,4.8493915 21.065716,4.816033 c 0.05397,-0.033359 0.09814,-0.2700868 0.09814,-0.5260627 0,-0.255976 0.04125,-0.4909031 0.09166,-0.5220602 0.109926,-0.067937 3.453334,1.4805204 3.500122,1.6210374 0.03503,0.1052111 -3.135731,1.8563356 -3.36127,1.8563356 -0.09821,0 -0.135179,-0.127174 -0.135179,-0.4649903 z"
             id="path7033"
             inkscape:connector-curvature="0" />
          <path
             style="fill:#4ea0f0;stroke-width:0.09533267"
             d="M 21.32274,7.181728 C 21.28778,7.146773 21.25918,6.9133561 21.25918,6.6630245 c 0,-0.2503316 -0.03425,-0.4763148 -0.07611,-0.502185 -0.04186,-0.02587 -4.385454,0.07885 -9.652433,0.2327114 C 6.2636661,6.5474124 1.900695,6.6531929 1.8351538,6.6286187 1.7052786,6.579923 1.6628337,5.5726215 1.7874875,5.4974038 1.8268122,5.4736749 6.0202579,5.3400645 11.106256,5.200492 16.192253,5.0609196 20.535848,4.9250249 20.758688,4.8985038 l 0.405164,-0.04822 V 4.3374215 c 0,-0.2820741 0.03459,-0.5342425 0.07688,-0.5603739 0.102578,-0.063397 3.466429,1.4924763 3.484207,1.6115411 0.01185,0.07934 -3.125526,1.8526518 -3.283028,1.8556396 -0.03059,5.815e-4 -0.08421,-0.027545 -0.119166,-0.0625 z"
             id="path7031"
             inkscape:connector-curvature="0" />
          <path
             style="fill:#4a9def;stroke-width:0.09533267"
             d="M 21.32274,7.181728 C 21.28778,7.146773 21.25918,6.9133561 21.25918,6.6630245 21.25918,6.4126929 21.22364,6.185912 21.1802,6.1590668 21.13676,6.1322218 16.77297,6.2360438 11.48288,6.3897838 6.1927988,6.5435233 1.828664,6.6334308 1.7848115,6.5895783 1.7409591,6.5457259 1.718259,6.2784975 1.734367,5.9957376 L 1.763654,5.4816287 2.5263154,5.4528427 c 0.4194637,-0.015833 4.7650648,-0.1452464 9.6568916,-0.2875863 7.187797,-0.2091471 8.909612,-0.2836884 8.974404,-0.388523 0.0441,-0.071348 0.05799,-0.2950753 0.03089,-0.4971727 -0.03735,-0.2785042 -0.01286,-0.3814284 0.101205,-0.4251982 0.18397,-0.070596 3.397857,1.3904943 3.399971,1.5456874 8.58e-4,0.059997 -0.72631,0.4997191 -1.615839,0.9771599 C 21.326177,7.3152372 21.415301,7.27429 21.32274,7.181728 Z"
             id="path7029"
             inkscape:connector-curvature="0" />
          <path
             style="fill:#4499ee;stroke-width:0.09533267"
             d="M 21.32274,7.181728 C 21.28778,7.146773 21.25918,6.909478 21.25918,6.6544063 21.25918,6.3630115 21.21335,6.1730516 21.135863,6.1433187 21.068045,6.1172923 16.703,6.2208085 11.435769,6.3733548 6.1685391,6.5259011 1.8268122,6.6318095 1.7874875,6.6087068 1.7481628,6.5856041 1.715988,6.3341027 1.715988,6.0498147 1.715988,5.5900272 1.739683,5.528197 1.9304865,5.4901041 2.0484607,5.4665511 6.3491556,5.3348916 11.487586,5.197527 16.657184,5.0593293 20.929764,4.9065154 21.05312,4.8554044 c 0.19664,-0.081475 0.219127,-0.1453512 0.190666,-0.5415939 -0.02464,-0.3430114 0.0015,-0.4545287 0.110731,-0.4716567 0.183164,-0.028732 3.262734,1.4151444 3.307427,1.5507087 0.01848,0.056045 -0.697122,0.4957664 -1.590219,0.9771599 C 21.302627,7.3235929 21.41326,7.2722482 21.32274,7.181728 Z"
             id="path7027"
             inkscape:connector-curvature="0" />
          <path
             style="fill:#3c95ec;stroke-width:0.09533267"
             d="M 21.313972,6.9403787 C 21.285905,6.7672618 21.251369,6.5183715 21.237229,6.3872891 21.214475,6.176364 21.162187,6.1462123 20.782521,6.1250853 20.546573,6.1119556 16.213703,6.2233034 11.153922,6.3725248 6.0941407,6.5217462 1.900695,6.6244232 1.8351538,6.6006959 1.7599561,6.5734727 1.715988,6.3685292 1.715988,6.0452414 c 0,-0.4553955 0.023831,-0.51694 0.2144985,-0.5539541 0.1179742,-0.022902 4.4615688,-0.1573935 9.6524325,-0.2988697 5.789592,-0.1577946 9.483999,-0.2943203 9.5571,-0.3531798 0.06593,-0.053086 0.119166,-0.3036767 0.119166,-0.5609405 0,-0.2557447 0.03705,-0.4649904 0.08234,-0.4649904 0.16094,0 3.288849,1.4859971 3.318131,1.5763674 0.03182,0.098213 -0.09096,0.1705555 -2.036734,1.1999636 l -1.257913,0.6654988 z"
             id="path7025"
             inkscape:connector-curvature="0" />
          <path
             style="fill:#3390ec;stroke-width:0.09533267"
             d="M 21.332773,6.671191 C 21.307472,6.4078734 21.25932,6.1649818 21.225771,6.1314321 21.192221,6.0978823 16.860136,6.1918978 11.598916,6.3403552 6.3376953,6.4888126 1.9617191,6.5829016 1.8745242,6.5494417 1.6893246,6.478374 1.6461294,5.6790552 1.821627,5.5705917 1.8797285,5.534683 6.2233232,5.381222 11.47406,5.2295673 c 5.250736,-0.1516547 9.600418,-0.295059 9.665959,-0.3186764 0.07603,-0.027397 0.119166,-0.2361465 0.119166,-0.5766866 0,-0.4738829 0.01957,-0.5275342 0.174501,-0.4783611 0.43383,0.137692 3.208866,1.480681 3.200998,1.5491343 -0.01021,0.088829 -2.988743,1.7360106 -3.148872,1.7413823 -0.05959,0.002 -0.127429,-0.2086351 -0.153039,-0.4751688 z"
             id="path7023"
             inkscape:connector-curvature="0" />
          <path
             style="fill:#318eeb;stroke-width:0.09533267"
             d="m 21.354517,6.7277629 c 0,-0.2322032 -0.0568,-0.4789882 -0.126223,-0.5484112 -0.104743,-0.104743 -1.65004,-0.081961 -9.080436,0.1338696 -4.9248179,0.1430512 -9.2759614,0.2504122 -9.6692087,0.23858 L 1.7636543,6.5302881 1.7337069,6.1121719 c -0.016471,-0.2299637 0.00741,-0.4554726 0.053067,-0.5011307 0.045658,-0.045658 4.4036084,-0.20944 9.6843341,-0.3639599 5.280725,-0.1545198 9.64334,-0.3069151 9.694698,-0.3386562 0.05136,-0.031741 0.09338,-0.2911278 0.09338,-0.5764147 0,-0.285287 0.02252,-0.5187035 0.05004,-0.5187035 0.165588,0 3.370759,1.5616089 3.332437,1.6236148 -0.05765,0.093286 -3.086414,1.7130287 -3.203197,1.7130287 -0.04617,0 -0.08395,-0.1899843 -0.08395,-0.4221875 z"
             id="path7021"
             inkscape:connector-curvature="0" />
          <path
             style="fill:#2a8aea;stroke-width:0.09533267"
             d="m 21.354517,6.6836314 c 0,-0.3624664 -0.04093,-0.500525 -0.166832,-0.5627413 -0.09638,-0.047628 -3.890687,0.02887 -8.985104,0.1811495 C 7.3525319,6.447015 3.0330157,6.5684039 2.6036565,6.5717928 L 1.8230033,6.5779544 1.7575964,6.1417901 C 1.7216226,5.9018997 1.7308503,5.666965 1.7781022,5.6197131 1.8253541,5.5724612 6.1840825,5.407204 11.464165,5.252475 16.744248,5.0977461 21.108161,4.9440515 21.16175,4.9109317 c 0.05359,-0.03312 0.09743,-0.2696528 0.09743,-0.5256288 0,-0.2559759 0.03217,-0.4840696 0.0715,-0.5068747 0.09747,-0.056525 3.195835,1.3952743 3.236207,1.5163873 0.02805,0.084135 -2.76701,1.6559745 -3.091042,1.7382919 -0.08624,0.02191 -0.121332,-0.1080727 -0.121332,-0.449476 z"
             id="path7019"
             inkscape:connector-curvature="0" />
          <path
             style="fill:#2184e9;stroke-width:0.09533267"
             d="m 21.354517,6.6849601 c 0,-0.2603033 -0.05345,-0.5093504 -0.121424,-0.5657634 -0.0856,-0.071044 -2.919118,-0.018795 -9.604766,0.1771061 C 6.412489,6.4491363 2.0699105,6.5750307 1.9781528,6.5760682 1.8392585,6.5776386 1.8113207,6.4901498 1.8113207,6.0536247 V 5.529295 L 2.5978152,5.524087 C 4.9153242,5.5087403 21.038858,4.9875657 21.140019,4.9247313 c 0.06927,-0.043024 0.119166,-0.271256 0.119166,-0.5450546 0,-0.3231923 0.03894,-0.4710371 0.124064,-0.4710371 0.173353,0 3.155505,1.400332 3.184585,1.4953884 0.02097,0.06855 -3.011185,1.7459224 -3.156072,1.7459224 -0.03148,0 -0.05724,-0.2092456 -0.05724,-0.4649903 z"
             id="path7017"
             inkscape:connector-curvature="0" />
          <path
             style="fill:#1c82e8;stroke-width:0.09533267"
             d="m 21.418406,7.0867297 c -0.03514,-0.035139 -0.06389,-0.2725844 -0.06389,-0.527656 0,-0.2952928 -0.04554,-0.481242 -0.12536,-0.5118721 C 21.160208,6.0207436 17.30996,6.1062428 12.67305,6.2371999 8.0361394,6.3681569 3.7060574,6.4876751 3.0506453,6.5027958 L 1.858987,6.5302881 V 6.0536247 5.5769613 l 7.14995,-0.2072522 c 12.479772,-0.3617454 12.150809,-0.348119 12.257672,-0.5077428 0.05265,-0.07865 0.07661,-0.3038647 0.05323,-0.5004783 -0.02338,-0.1966136 -0.0061,-0.3799963 0.03846,-0.4075172 0.112254,-0.069376 3.24523,1.3904122 3.186842,1.4848861 -0.02597,0.042027 -0.636515,0.3867096 -1.356759,0.7659606 C 22.46814,6.5840685 21.789627,6.9520221 21.680575,7.022492 21.571524,7.092962 21.45355,7.121869 21.41841,7.08673 Z"
             id="path7015"
             inkscape:connector-curvature="0" />
          <path
             style="fill:#137ce6;stroke-width:0.09533267"
             d="m 21.418073,6.9910626 c -0.03496,-0.034955 -0.06356,-0.2508001 -0.06356,-0.4796553 0,-0.2701664 -0.04715,-0.4341951 -0.134451,-0.467694 -0.07395,-0.028377 -4.009996,0.057501 -8.746772,0.1908388 C 7.7365174,6.3678901 3.4105262,6.488978 2.85998,6.5036364 L 1.858987,6.5302881 V 6.0536247 5.5769613 l 9.628599,-0.2736867 c 5.856517,-0.1664676 9.675284,-0.3110932 9.747766,-0.3691704 0.06599,-0.052879 0.119165,-0.3029618 0.119165,-0.5604743 0,-0.2557446 0.01491,-0.4649903 0.03314,-0.4649903 0.111943,0 3.06502,1.4302394 3.08535,1.4943023 0.02059,0.06488 -2.812348,1.6516759 -2.948768,1.6516759 -0.02344,0 -0.07121,-0.0286 -0.106167,-0.063555 z"
             id="path7013"
             inkscape:connector-curvature="0" />
          <path
             style="fill:#0c78e5;stroke-width:0.09533267"
             d="M 21.44839,6.657382 C 21.447628,6.4301814 21.408773,6.1840196 21.362137,6.1103558 21.256777,5.9439351 21.298942,5.9433839 10.91559,6.2469087 6.5112211,6.3756566 2.6609731,6.4813616 2.3594835,6.4818087 l -0.5481628,8.13e-4 v -0.428997 c 0,-0.2791734 0.041618,-0.4293042 0.1191658,-0.4298765 C 3.4647746,5.6124254 21.197409,5.0431446 21.26215,5.003133 21.31295,4.971735 21.35452,4.7155252 21.35452,4.4337769 V 3.9215074 l 1.548304,0.7156537 c 0.851568,0.3936095 1.561351,0.7286999 1.577296,0.7446451 0.03819,0.038191 -0.540186,0.3698808 -1.910108,1.0954135 L 21.44985,7.0704738 21.448391,6.657382 Z"
             id="path7011"
             inkscape:connector-curvature="0" />
          <path
             style="fill:#0876e5;stroke-width:0.09533267"
             d="m 21.44985,6.5829164 c 0,-0.2571941 -0.0538,-0.5029299 -0.122613,-0.5600392 C 21.240051,5.9505198 18.437308,6.0017 11.627138,6.200008 6.3595209,6.3533979 2.0174776,6.4797365 1.9781528,6.4807603 1.9388281,6.481784 1.9066533,6.2895731 1.9066533,6.0536247 v -0.428997 l 0.7388282,-0.00521 C 4.9458526,5.6032154 21.136972,5.0804971 21.23609,5.0192384 c 0.06849,-0.042331 0.118427,-0.271801 0.118427,-0.544229 0,-0.2590705 0.02507,-0.4710372 0.05572,-0.4710372 0.121948,0 2.994928,1.3644341 2.994928,1.4223498 0,0.034128 -0.268123,0.1979968 -0.59583,0.3641537 -0.327706,0.1661569 -0.992651,0.5155423 -1.477656,0.7764117 L 21.44985,7.0411957 Z"
             id="path7009"
             inkscape:connector-curvature="0" />
        </g>
      </g>
      <path
         inkscape:connector-curvature="0"
         id="path7007"
         d="m 19.623987,5.155879 c 0,-0.3194372 -0.04386,-0.4964862 -0.131308,-0.5300432 C 19.37096,4.5791279 3.4021014,4.9956355 1.1056165,5.1054162 L 0.08079032,5.1544068 V 4.7481146 4.3418224 L 9.399559,4.0789502 c 5.125322,-0.1445797 9.455128,-0.2610416 9.621789,-0.2588043 0.419067,0.00563 0.602639,-0.2112732 0.602639,-0.712048 V 2.6915991 l 1.42999,0.6778098 c 0.786495,0.3727954 1.42937,0.7027081 1.428614,0.7331394 -0.0014,0.055725 -2.704074,1.5329861 -2.804637,1.5329861 -0.02968,0 -0.05397,-0.2158449 -0.05397,-0.4796554 z"
         style="fill:#0474e5;stroke-width:0.09533267" />
    </g>
  </g>
</svg>
