<?xml version="1.0" encoding="UTF-8" standalone="no"?>
<svg
   xmlns:dc="http://purl.org/dc/elements/1.1/"
   xmlns:cc="http://creativecommons.org/ns#"
   xmlns:rdf="http://www.w3.org/1999/02/22-rdf-syntax-ns#"
   xmlns:svg="http://www.w3.org/2000/svg"
   xmlns="http://www.w3.org/2000/svg"
   viewBox="0 0 650 650"
   height="650"
   width="650"
   xml:space="preserve"
   version="1.1"
   id="svg2"><metadata
     id="metadata8"><rdf:RDF><cc:Work
         rdf:about=""><dc:format>image/svg+xml</dc:format><dc:type
           rdf:resource="http://purl.org/dc/dcmitype/StillImage" /></cc:Work></rdf:RDF></metadata><defs
     id="defs6"><clipPath
       id="clipPath18"
       clipPathUnits="userSpaceOnUse"><path
         id="path20"
         d="M 0,520 520,520 520,0 0,0 0,520 Z" /></clipPath></defs><g
     transform="matrix(1.25,0,0,-1.25,0,650)"
     id="g10"><path
       id="path12"
       style="fill:#ffffff;fill-opacity:1;fill-rule:nonzero;stroke:none"
       d="M 0,0 520,0 520,520 0,520 0,0 Z" /><g
       id="g14"><g
         clip-path="url(#clipPath18)"
         id="g16"><g
           transform="translate(302.1984,213.1811)"
           id="g22"><path
             id="path24"
             style="fill:#48c0d8;fill-opacity:1;fill-rule:nonzero;stroke:none"
             d="m 0,0 0,0 c 0,4.835 -3.956,8.791 -8.791,8.791 l -58.375,0 c -4.835,0 -8.792,-3.956 -8.792,-8.791 l 0,0 c 0,-4.835 3.957,-8.791 8.792,-8.791 -4.835,0 -8.792,-3.956 -8.792,-8.792 0,-4.835 3.957,-8.791 8.792,-8.791 l 4.879,0 c -4.835,0 -8.791,-3.956 -8.791,-8.791 0,-4.836 3.956,-8.792 8.791,-8.792 l 48.616,0 c 4.836,0 8.792,3.956 8.792,8.792 0,4.835 -3.956,8.791 -8.792,8.791 l 4.88,0 c 4.835,0 8.791,3.956 8.791,8.791 0,4.836 -3.956,8.792 -8.791,8.792 C -3.956,-8.791 0,-4.835 0,0" /></g><g
           transform="translate(274.3567,290.6389)"
           id="g26"><path
             id="path28"
             style="fill:#333333;fill-opacity:1;fill-rule:nonzero;stroke:none"
             d="M 0,0 0,5.958 C 0,6.96 0.733,7.789 1.705,7.886 2.396,7.955 3.048,7.989 3.655,7.989 5.674,7.989 7.19,7.614 7.935,6.905 8.239,6.617 8.635,6.081 8.572,4.759 8.468,2.579 4.818,0.994 0,0 m 28.917,-40.388 c -1.05,-0.798 -1.667,-2.041 -1.667,-3.36 l 0,-12.259 c 0,-8.144 -6.625,-14.769 -14.769,-14.769 l -12.481,0 0,65.565 c 6.806,1.288 13.372,4.015 13.645,9.728 0.149,3.139 -1.121,5.034 -2.213,6.071 -2.131,2.024 -5.571,2.812 -10.23,2.351 -3.58,-0.357 -6.28,-3.358 -6.28,-6.981 l 0,-6.751 c -3.109,-0.353 -6.344,-0.504 -9.24,-0.455 -0.018,0 -0.037,10e-4 -0.054,0 -0.008,10e-4 -0.016,0 -0.024,0 -2.896,-0.047 -6.131,0.103 -9.24,0.455 l 0,6.751 c 0,3.623 -2.7,6.624 -6.28,6.981 -4.658,0.464 -8.099,-0.327 -10.23,-2.351 -1.092,-1.037 -2.362,-2.932 -2.213,-6.071 0.272,-5.714 6.837,-8.44 13.645,-9.728 l 0,-65.565 -12.481,0 c -8.144,0 -14.77,6.625 -14.77,14.769 l 0,12.259 c 0,1.319 -0.616,2.562 -1.667,3.36 -18.007,13.683 -28.335,34.476 -28.335,57.047 0,39.486 32.124,71.61 71.61,71.61 39.486,0 71.611,-32.124 71.611,-71.61 0,-22.571 -10.328,-43.364 -28.337,-57.047 m -33.995,-30.388 -18.558,0 0,64.842 c 4.076,-0.413 7.65,-0.419 9.276,-0.393 1.623,-0.027 5.201,-0.021 9.282,0.393 l 0,-64.842 z M -28.714,0 c -4.817,0.995 -8.469,2.58 -8.572,4.759 -0.063,1.322 0.333,1.858 0.637,2.146 0.746,0.709 2.261,1.084 4.281,1.084 0.606,0 1.258,-0.034 1.948,-0.103 0.973,-0.097 1.706,-0.926 1.706,-1.928 l 0,-5.958 z m 43.545,-79.216 c 2.521,0 4.571,-2.051 4.571,-4.572 0,-2.521 -2.05,-4.571 -4.571,-4.571 l -58.375,0 c -2.521,0 -4.572,2.05 -4.572,4.571 0,2.521 2.051,4.572 4.572,4.572 l 2.349,0 53.676,0 2.35,0 z m -4.879,-44.308 -12.133,0 -24.352,0 -12.132,0 c -2.521,0 -4.572,2.05 -4.572,4.571 0,2.521 2.051,4.571 4.572,4.571 l 48.617,0 c 2.521,0 4.571,-2.05 4.571,-4.571 0,-2.521 -2.05,-4.571 -4.571,-4.571 m -24.309,-26.023 c -16.748,0 -16.748,8.788 -16.748,13.011 0,2.521 2.051,4.572 4.572,4.572 l 24.352,0 c 2.521,0 4.572,-2.051 4.572,-4.572 0,-4.866 0,-13.011 -16.748,-13.011 m 33.759,48.177 c 0,-2.521 -2.05,-4.572 -4.571,-4.572 l -4.879,0 -48.617,0 -4.879,0 c -2.521,0 -4.572,2.051 -4.572,4.572 0,2.521 2.051,4.571 4.572,4.571 l 58.375,0 c 2.521,0 4.571,-2.05 4.571,-4.571 M -14.357,96.709 c -44.14,0 -80.05,-35.911 -80.05,-80.05 0,-24.527 10.908,-47.174 30.003,-62.466 l 0,-10.2 c 0,-8.223 4.302,-15.456 10.771,-19.579 -1.825,-2.24 -2.923,-5.095 -2.923,-8.202 0,-3.391 1.315,-6.473 3.448,-8.791 -2.133,-2.318 -3.448,-5.4 -3.448,-8.791 0,-4.812 2.633,-9.013 6.527,-11.264 -1.046,-1.873 -1.647,-4.026 -1.647,-6.319 0,-7.164 5.819,-12.991 12.978,-13.009 -0.538,-1.426 -0.846,-2.963 -0.846,-4.574 0,-17.73 13.697,-21.451 25.187,-21.451 16.714,0 25.187,7.217 25.187,21.451 0,1.611 -0.308,3.148 -0.845,4.574 7.159,0.018 12.977,5.845 12.977,13.009 0,2.293 -0.601,4.446 -1.647,6.319 3.894,2.251 6.527,6.452 6.527,11.264 0,3.391 -1.315,6.473 -3.447,8.791 2.132,2.318 3.447,5.4 3.447,8.791 0,3.108 -1.098,5.962 -2.923,8.202 6.469,4.124 10.771,11.356 10.771,19.579 l 0,10.2 c 19.096,15.292 30.004,37.939 30.004,62.466 0,44.139 -35.911,80.05 -80.051,80.05" /></g></g></g></g></svg>