<?xml version="1.0" encoding="UTF-8" standalone="no"?>
<!-- Created with Inkscape (http://www.inkscape.org/) -->

<svg
   xmlns:dc="http://purl.org/dc/elements/1.1/"
   xmlns:cc="http://creativecommons.org/ns#"
   xmlns:rdf="http://www.w3.org/1999/02/22-rdf-syntax-ns#"
   xmlns:svg="http://www.w3.org/2000/svg"
   xmlns="http://www.w3.org/2000/svg"
   xmlns:sodipodi="http://sodipodi.sourceforge.net/DTD/sodipodi-0.dtd"
   xmlns:inkscape="http://www.inkscape.org/namespaces/inkscape"
   width="210mm"
   height="297mm"
   viewBox="0 0 210 297"
   version="1.1"
   id="svg8"
   inkscape:version="0.92.2 (5c3e80d, 2017-08-06)"
   sodipodi:docname="NEWAY-ICON.svg">
  <defs
     id="defs2" />
  <sodipodi:namedview
     id="base"
     pagecolor="#ffffff"
     bordercolor="#666666"
     borderopacity="1.0"
     inkscape:pageopacity="0.0"
     inkscape:pageshadow="2"
     inkscape:zoom="0.98994949"
     inkscape:cx="-33.140709"
     inkscape:cy="407.70198"
     inkscape:document-units="mm"
     inkscape:current-layer="layer1"
     showgrid="false"
     inkscape:window-width="1914"
     inkscape:window-height="1824"
     inkscape:window-x="569"
     inkscape:window-y="67"
     inkscape:window-maximized="0" />
  <metadata
     id="metadata5">
    <rdf:RDF>
      <cc:Work
         rdf:about="">
        <dc:format>image/svg+xml</dc:format>
        <dc:type
           rdf:resource="http://purl.org/dc/dcmitype/StillImage" />
        <dc:title />
      </cc:Work>
    </rdf:RDF>
  </metadata>
  <g
     inkscape:label="Ebene 1"
     inkscape:groupmode="layer"
     id="layer1">
    <g
       id="g299"
       transform="matrix(24.7331,0,0,23.891239,-3783.126,-5226.0015)">
      <path
         style="fill:#5fbd8e;stroke-width:0.02522344"
         d="m 156.67074,228.90928 c -0.61091,-0.11032 -0.88305,-0.19625 -1.34945,-0.42611 -1.15656,-0.57001 -1.94152,-1.59086 -2.24,-2.91316 -0.0464,-0.20557 -0.0541,-0.31847 -0.0541,-0.79454 0,-0.47606 0.008,-0.58896 0.0541,-0.79453 0.0896,-0.3971 0.2006,-0.70672 0.38533,-1.07518 0.56904,-1.13497 1.59444,-1.91657 2.90144,-2.2116 0.20558,-0.0464 0.31848,-0.0541 0.79454,-0.0541 0.47606,0 0.58897,0.008 0.79454,0.0541 0.3971,0.0896 0.70672,0.20061 1.07517,0.38534 1.13501,0.56907 1.91657,1.59441 2.2116,2.90144 0.0464,0.20557 0.0541,0.31847 0.0541,0.79453 0,0.47607 -0.008,0.58897 -0.0541,0.79454 -0.0896,0.3971 -0.2006,0.70672 -0.38533,1.07518 -0.56672,1.13036 -1.5972,1.91815 -2.88883,2.2085 -0.1766,0.0397 -0.33902,0.0528 -0.73148,0.059 -0.27746,0.004 -0.53284,0.003 -0.56753,-0.003 z"
         id="path307"
         inkscape:connector-curvature="0" />
      <path
         style="fill:#01ec1f;stroke-width:0.02522344"
         d="m 156.64552,228.85879 c -0.59352,-0.10682 -0.88295,-0.19639 -1.29901,-0.40202 -0.18034,-0.0891 -0.43573,-0.23865 -0.56752,-0.33226 -0.30679,-0.21791 -0.74752,-0.65863 -0.96542,-0.96542 -0.31896,-0.44906 -0.56963,-1.03385 -0.69198,-1.6143 -0.0647,-0.30709 -0.0647,-1.23154 0,-1.53863 0.12235,-0.58046 0.37302,-1.16525 0.69198,-1.6143 0.2179,-0.30679 0.65863,-0.74751 0.96542,-0.96542 0.44905,-0.31895 1.03384,-0.56963 1.6143,-0.69197 0.30708,-0.0647 1.23154,-0.0647 1.53863,0 0.58045,0.12234 1.16524,0.37302 1.6143,0.69197 0.30678,0.21791 0.74751,0.65863 0.96541,0.96542 0.31896,0.44905 0.56963,1.03384 0.69198,1.6143 0.0647,0.30709 0.0647,1.23154 0,1.53863 -0.12235,0.58045 -0.37302,1.16524 -0.69198,1.6143 -0.0936,0.13179 -0.29521,0.36463 -0.44799,0.51742 -0.57589,0.57589 -1.2455,0.94059 -2.06867,1.1267 -0.18013,0.0407 -0.33638,0.0529 -0.7567,0.0591 -0.29133,0.004 -0.55807,0.003 -0.59275,-0.004 z"
         id="path305"
         inkscape:connector-curvature="0" />
      <path
         style="fill:#01b73a;stroke-width:0.02522344"
         d="m 156.64552,228.85879 c -0.59352,-0.10682 -0.88295,-0.19639 -1.29901,-0.40202 -0.18034,-0.0891 -0.43573,-0.23865 -0.56752,-0.33226 -0.30679,-0.21791 -0.74752,-0.65863 -0.96542,-0.96542 -0.31896,-0.44906 -0.56963,-1.03385 -0.69198,-1.6143 -0.0647,-0.30709 -0.0647,-1.23154 0,-1.53863 0.12235,-0.58046 0.37302,-1.16525 0.69198,-1.6143 0.2179,-0.30679 0.65863,-0.74751 0.96542,-0.96542 0.44905,-0.31895 1.03384,-0.56963 1.6143,-0.69197 0.30708,-0.0647 1.23154,-0.0647 1.53863,0 0.58045,0.12234 1.16524,0.37302 1.6143,0.69197 0.30678,0.21791 0.74751,0.65863 0.96541,0.96542 0.31896,0.44905 0.56963,1.03384 0.69198,1.6143 0.0647,0.30709 0.0647,1.23154 0,1.53863 -0.12235,0.58045 -0.37302,1.16524 -0.69198,1.6143 -0.0936,0.13179 -0.29521,0.36463 -0.44799,0.51742 -0.57589,0.57589 -1.2455,0.94059 -2.06867,1.1267 -0.18013,0.0407 -0.33638,0.0529 -0.7567,0.0591 -0.29133,0.004 -0.55807,0.003 -0.59275,-0.004 z m 1.2864,-0.1852 c 0.81816,-0.17663 1.45123,-0.51907 2.03048,-1.09831 0.58285,-0.58285 0.92397,-1.21622 1.10126,-2.04474 0.0501,-0.23427 0.059,-0.34801 0.059,-0.75507 0,-0.40705 -0.009,-0.52079 -0.059,-0.75506 -0.17729,-0.82852 -0.51841,-1.46189 -1.10126,-2.04474 -0.57826,-0.57826 -1.21667,-0.92347 -2.03895,-1.10252 -0.2143,-0.0467 -0.33711,-0.056 -0.74824,-0.0568 -0.42268,-8.3e-4 -0.53065,0.007 -0.76767,0.0581 -0.82853,0.17729 -1.4619,0.51841 -2.04474,1.10125 -0.58284,0.58285 -0.92397,1.21622 -1.10126,2.04474 -0.0501,0.23427 -0.059,0.34801 -0.059,0.75506 0,0.40706 0.009,0.5208 0.059,0.75507 0.17406,0.81342 0.51297,1.45026 1.07604,2.02193 0.61563,0.62505 1.30643,0.98653 2.19443,1.14833 0.36035,0.0657 1.03006,0.0526 1.39991,-0.0272 z m -1.9296,-0.4006 c -0.30631,-0.0918 -0.45684,-0.20937 -0.57744,-0.45085 -0.0794,-0.15896 -0.19854,-0.29903 -0.29825,-0.3506 -0.0405,-0.0209 -0.15793,-0.0542 -0.26091,-0.0739 -0.43733,-0.0837 -0.6944,-0.32201 -0.79133,-0.73366 -0.0542,-0.23015 0.0375,-0.43356 0.25925,-0.57544 0.2199,-0.14067 1.0412,-0.54217 1.73174,-0.84658 0.35376,-0.15595 0.65398,-0.29349 0.66716,-0.30564 0.0415,-0.0382 -0.0603,-0.0236 -0.46537,0.0672 -0.21503,0.0482 -0.5442,0.11653 -0.73148,0.15193 -0.18729,0.0354 -0.4824,0.0916 -0.65581,0.1248 -0.70081,0.13432 -0.96407,0.14112 -1.13308,0.0293 -0.17025,-0.11267 -0.3019,-0.46667 -0.2709,-0.72844 0.0216,-0.18223 0.0946,-0.32151 0.26944,-0.51408 0.19738,-0.21737 0.23426,-0.30181 0.2247,-0.5144 -0.0228,-0.50645 -0.0172,-0.55625 0.0831,-0.73452 0.10829,-0.19263 0.25424,-0.33433 0.42011,-0.40789 0.16392,-0.0727 0.29395,-0.0666 0.45858,0.0216 0.1779,0.0952 0.77401,0.69057 1.46926,1.46732 0.4572,0.5108 0.58423,0.64453 0.53902,0.56746 -0.006,-0.0104 -0.10155,-0.17783 -0.21211,-0.37205 -0.11056,-0.19422 -0.23834,-0.41555 -0.28397,-0.49186 -0.29274,-0.48956 -0.74535,-1.36032 -0.81742,-1.57261 -0.11522,-0.33938 0.0542,-0.60914 0.48802,-0.77707 0.21444,-0.083 0.34926,-0.0721 0.65486,0.053 0.23139,0.0948 0.28095,0.10638 0.41619,0.0977 0.10324,-0.007 0.20863,-0.0357 0.32179,-0.0887 0.26668,-0.12495 0.41086,-0.14859 0.59041,-0.0968 0.30867,0.089 0.51875,0.25498 0.60345,0.47677 0.0376,0.0986 0.0397,0.13309 0.0142,0.23597 -0.062,0.24967 -0.42987,0.9595 -1.04927,2.02486 -0.14115,0.24278 -0.27041,0.46979 -0.28724,0.50447 -0.0386,0.0796 -0.0152,0.0548 0.63189,-0.6693 0.58705,-0.65691 1.22999,-1.29496 1.38592,-1.37539 0.16382,-0.0845 0.30395,-0.077 0.49819,0.0265 0.17391,0.0927 0.30216,0.22481 0.38564,0.39724 0.0857,0.17711 0.0981,0.27669 0.0672,0.5411 -0.0364,0.31176 -0.0144,0.38882 0.1723,0.60192 0.20715,0.23647 0.2781,0.35854 0.3116,0.53612 0.0315,0.16693 0.002,0.37059 -0.0837,0.57239 -0.0765,0.18069 -0.28164,0.30268 -0.50903,0.30268 -0.24931,0 -1.10605,-0.15105 -2.08929,-0.36836 -0.34497,-0.0762 -0.63198,-0.13387 -0.63779,-0.12806 -0.0131,0.0131 0.0229,0.0299 0.7101,0.33268 0.7508,0.33078 1.63688,0.76992 1.79087,0.88755 0.17457,0.13335 0.24691,0.27922 0.23137,0.46652 -0.0225,0.27072 -0.22772,0.59018 -0.45302,0.70512 -0.0538,0.0274 -0.20058,0.0723 -0.32622,0.0998 -0.12563,0.0274 -0.24671,0.0598 -0.26907,0.072 -0.072,0.0393 -0.19663,0.18682 -0.26724,0.31638 -0.11951,0.21926 -0.23716,0.34182 -0.40231,0.4191 -0.21503,0.10063 -0.39877,0.13212 -0.55661,0.0954 -0.32455,-0.0755 -0.41378,-0.20446 -0.51579,-0.7456 -0.0621,-0.32948 -0.18426,-1.28677 -0.24478,-1.91839 -0.0242,-0.25273 -0.048,-0.45549 -0.0529,-0.45058 -0.005,0.005 -0.0309,0.22871 -0.0577,0.49734 -0.1116,1.11769 -0.24548,2.03062 -0.33152,2.26057 -0.0625,0.16701 -0.13256,0.24374 -0.28366,0.31058 -0.16201,0.0717 -0.30624,0.0799 -0.48105,0.0275 z"
         id="path303"
         inkscape:connector-curvature="0" />
      <path
         style="fill:#00984b;stroke-width:0.02522344"
         d="m 156.64552,228.85879 c -0.59352,-0.10682 -0.88295,-0.19639 -1.29901,-0.40202 -0.18034,-0.0891 -0.43573,-0.23865 -0.56752,-0.33226 -0.30679,-0.21791 -0.74752,-0.65863 -0.96542,-0.96542 -0.31896,-0.44906 -0.56963,-1.03385 -0.69198,-1.6143 -0.0647,-0.30709 -0.0647,-1.23154 0,-1.53863 0.12235,-0.58046 0.37302,-1.16525 0.69198,-1.6143 0.2179,-0.30679 0.65863,-0.74751 0.96542,-0.96542 0.44905,-0.31895 1.03384,-0.56963 1.6143,-0.69197 0.30708,-0.0647 1.23154,-0.0647 1.53863,0 0.58045,0.12234 1.16524,0.37302 1.6143,0.69197 0.30678,0.21791 0.74751,0.65863 0.96541,0.96542 0.31896,0.44905 0.56963,1.03384 0.69198,1.6143 0.0647,0.30709 0.0647,1.23154 0,1.53863 -0.12235,0.58045 -0.37302,1.16524 -0.69198,1.6143 -0.0936,0.13179 -0.29521,0.36463 -0.44799,0.51742 -0.57589,0.57589 -1.2455,0.94059 -2.06867,1.1267 -0.18013,0.0407 -0.33638,0.0529 -0.7567,0.0591 -0.29133,0.004 -0.55807,0.003 -0.59275,-0.004 z m 1.21452,-0.13443 c 0.37421,-0.0641 0.695,-0.17051 1.0709,-0.35526 0.415,-0.20396 0.69772,-0.40959 1.05671,-0.76858 0.35898,-0.35899 0.56462,-0.64171 0.76858,-1.05671 0.29408,-0.59836 0.40429,-1.08041 0.40429,-1.76834 0,-0.68792 -0.11021,-1.16997 -0.40429,-1.76834 -0.20396,-0.415 -0.4096,-0.69771 -0.76858,-1.0567 -0.35899,-0.35899 -0.64171,-0.56462 -1.05671,-0.76858 -0.59836,-0.29408 -1.08041,-0.40429 -1.76834,-0.40429 -0.68793,0 -1.16998,0.11021 -1.76834,0.40429 -0.415,0.20396 -0.69772,0.40959 -1.05671,0.76858 -0.35898,0.35899 -0.56461,0.6417 -0.76858,1.0567 -0.29407,0.59837 -0.40428,1.08042 -0.40428,1.76834 0,0.68793 0.11021,1.16998 0.40428,1.76834 0.20397,0.415 0.4096,0.69772 0.76858,1.05671 0.35899,0.35899 0.64171,0.56462 1.05671,0.76858 0.60098,0.29536 1.05094,0.39897 1.74692,0.40225 0.32116,0.002 0.50633,-0.0106 0.71886,-0.047 z m -1.86066,-0.48956 c -0.26086,-0.0663 -0.4318,-0.2062 -0.55602,-0.45503 -0.12749,-0.25536 -0.28511,-0.37013 -0.5789,-0.42152 -0.42427,-0.0742 -0.71823,-0.36928 -0.75872,-0.76156 -0.0218,-0.2112 0.0523,-0.34556 0.267,-0.48414 0.25365,-0.16372 0.91424,-0.4864 1.78076,-0.86986 0.91726,-0.4059 0.94316,-0.41578 0.96194,-0.36686 0.022,0.0574 -0.18973,2.03032 -0.26535,2.47243 -0.0142,0.0832 -0.0374,0.21848 -0.0515,0.30054 -0.035,0.20365 -0.0945,0.37491 -0.15154,0.43613 -0.14732,0.15813 -0.39222,0.2148 -0.64765,0.14987 z m 1.91177,0.006 c -0.17728,-0.0417 -0.28817,-0.17393 -0.35569,-0.42416 -0.12616,-0.46755 -0.40527,-2.88713 -0.34051,-2.95188 0.0272,-0.0272 1.02391,0.39919 1.88186,0.80506 0.62898,0.29755 0.96802,0.5043 1.05332,0.64233 0.10422,0.16862 0.0637,0.4463 -0.0999,0.68405 -0.14912,0.21675 -0.25576,0.27459 -0.69251,0.3756 -0.21126,0.0489 -0.31807,0.13984 -0.472,0.40201 -0.1347,0.22942 -0.26206,0.35231 -0.43037,0.41528 -0.17072,0.0639 -0.39984,0.0857 -0.54418,0.0517 z m -3.99373,-2.89678 c -0.27424,-0.0829 -0.42393,-0.37812 -0.39272,-0.77468 0.0144,-0.18332 0.0692,-0.28581 0.26343,-0.49272 0.0745,-0.0794 0.15874,-0.19694 0.18719,-0.26126 0.0468,-0.10571 0.05,-0.14635 0.0341,-0.42321 -0.0117,-0.20233 -0.008,-0.34051 0.0106,-0.40716 0.0451,-0.161 0.20198,-0.36768 0.36282,-0.47809 0.1283,-0.0881 0.16398,-0.10042 0.29217,-0.10118 0.12809,-7.6e-4 0.16435,0.0112 0.29527,0.0974 0.19434,0.12793 0.72647,0.66697 1.37293,1.39075 0.55981,0.62678 0.74285,0.84159 0.72802,0.85437 -0.049,0.0422 -0.21688,0.087 -0.80929,0.21572 -0.37862,0.0823 -0.76785,0.16266 -0.86496,0.17861 -0.0971,0.0159 -0.28439,0.0507 -0.41619,0.0773 -0.19214,0.0387 -0.98179,0.15526 -0.99341,0.1466 -0.002,-0.001 -0.0331,-0.0113 -0.0699,-0.0224 z m 5.89364,-0.0399 c -0.38241,-0.0564 -1.25199,-0.2217 -1.62691,-0.30923 -0.11792,-0.0275 -0.37125,-0.0864 -0.56296,-0.13072 -0.21495,-0.0498 -0.35375,-0.0942 -0.36211,-0.11599 -0.0228,-0.0593 1.13725,-1.35953 1.69877,-1.90407 0.3982,-0.38615 0.52413,-0.46571 0.7049,-0.44534 0.17544,0.0198 0.38088,0.15929 0.50715,0.3444 0.1516,0.22225 0.17008,0.31096 0.13261,0.63632 -0.0308,0.26741 -0.0307,0.26917 0.0348,0.40365 0.0361,0.0743 0.13294,0.21216 0.21508,0.30637 0.0821,0.0942 0.16977,0.21339 0.19474,0.26484 0.0622,0.12815 0.0631,0.4515 0.002,0.62813 -0.11982,0.3451 -0.31802,0.41308 -0.93781,0.32164 z m -2.72035,-0.67553 c -0.0227,-0.0439 -0.0843,-0.14789 -0.13692,-0.23113 -0.0526,-0.0832 -0.15678,-0.25917 -0.23154,-0.39096 -0.0748,-0.13179 -0.20619,-0.3588 -0.29205,-0.50447 -0.21771,-0.36935 -0.51642,-0.92415 -0.65867,-1.22334 -0.15475,-0.3255 -0.17504,-0.5073 -0.0755,-0.67707 0.075,-0.12804 0.24387,-0.24616 0.4615,-0.32288 0.19147,-0.0675 0.33496,-0.0513 0.61314,0.0693 0.11636,0.0504 0.25461,0.0975 0.30723,0.10452 0.12171,0.0163 0.29477,-0.0266 0.49215,-0.1221 0.20382,-0.0986 0.36297,-0.11643 0.55111,-0.0617 0.31317,0.091 0.56798,0.33456 0.56713,0.54201 -9.6e-4,0.23515 -0.29653,0.83027 -1.04672,2.10753 -0.42837,0.72933 -0.45163,0.76694 -0.48161,0.77897 -0.0153,0.006 -0.0465,-0.0247 -0.0692,-0.0686 z"
         id="path301"
         inkscape:connector-curvature="0" />
    </g>
  </g>
</svg>
