<?xml version="1.0" encoding="UTF-8" standalone="no"?>
<svg
   xmlns:dc="http://purl.org/dc/elements/1.1/"
   xmlns:cc="http://creativecommons.org/ns#"
   xmlns:rdf="http://www.w3.org/1999/02/22-rdf-syntax-ns#"
   xmlns:svg="http://www.w3.org/2000/svg"
   xmlns="http://www.w3.org/2000/svg"
   xmlns:sodipodi="http://sodipodi.sourceforge.net/DTD/sodipodi-0.dtd"
   xmlns:inkscape="http://www.inkscape.org/namespaces/inkscape"
   width="469"
   height="534"
   version="1.1"
   viewBox="0 0 469.00001 534.00001"
   id="svg8"
   sodipodi:docname="transparency.svg"
   inkscape:version="0.92.2 (5c3e80d, 2017-08-06)">
  <metadata
     id="metadata14">
    <rdf:RDF>
      <cc:Work
         rdf:about="">
        <dc:format>image/svg+xml</dc:format>
        <dc:type
           rdf:resource="http://purl.org/dc/dcmitype/StillImage" />
        <dc:title></dc:title>
      </cc:Work>
    </rdf:RDF>
  </metadata>
  <defs
     id="defs12" />
  <sodipodi:namedview
     pagecolor="#ffffff"
     bordercolor="#666666"
     borderopacity="1"
     objecttolerance="10"
     gridtolerance="10"
     guidetolerance="10"
     inkscape:pageopacity="0"
     inkscape:pageshadow="2"
     inkscape:window-width="1914"
     inkscape:window-height="2019"
     id="namedview10"
     showgrid="false"
     inkscape:zoom="0.472"
     inkscape:cx="250"
     inkscape:cy="250"
     inkscape:window-x="1910"
     inkscape:window-y="0"
     inkscape:window-maximized="0"
     inkscape:current-layer="svg8" />
  <g
     transform="matrix(1.0490003,0,0,1.0490003,-26.769367,-590.89009)"
     id="g6"
     style="fill:#555555">
    <path
       d="m 263.37407,573.35661 c -94.886,-10.895 -180.640002,57.194 -191.530002,152.08 -10.895,94.886 57.194002,180.64 152.080002,191.53 94.886,10.89 180.64,-57.194 191.53,-152.08 10.895,-94.886 -57.194,-180.64 -152.08,-191.53 z m -1.7746,15.455 c 86.351,9.915 148.31,87.953 138.4,174.3 -9.915,86.351 -87.953,148.31 -174.3,138.4 -86.351,-9.915 -148.310002,-87.953 -138.400002,-174.3 9.915,-86.351 87.953002,-148.31 174.300002,-138.4 z"
       id="path2"
       inkscape:connector-curvature="0" />
    <path
       d="m 277.89542,656.98983 c -15.997,0 -31.994,6.0796 -44.152,18.238 -23.405,23.405 -24.272,61.026 -2.625,85.498 l -6.2344,6.2363 -1.5723,-1.5723 c -1.2666,-1.2666 -3.3057,-1.2666 -4.5723,0 l -62.586,62.586 c -1.2666,1.2666 -1.2666,3.3076 0,4.5742 l 8.5723,8.5723 c 1.2666,1.2666 3.3076,1.2666 4.5742,0 l 62.586,-62.586 c 1.2666,-1.2666 1.2666,-3.3057 0,-4.5723 l -1.5723,-1.5723 6.2363,-6.2363 c 24.472,21.649 62.093,20.782 85.498,-2.623 24.317,-24.317 24.317,-63.987 0,-88.305 -12.159,-12.159 -28.155,-18.238 -44.152,-18.238 z m 0,16.064 c 11.826,0 23.653,4.5357 32.723,13.605 18.14,18.14 18.14,47.304 0,65.443 -18.14,18.14 -47.304,18.14 -65.443,0 -18.14,-18.14 -18.14,-47.304 0,-65.443 9.0698,-9.0698 20.895,-13.605 32.721,-13.605 z"
       style="color:#000000;text-indent:0;text-decoration:none;text-decoration-line:none;text-decoration-style:solid;text-decoration-color:#000000;text-transform:none;white-space:normal;isolation:auto;mix-blend-mode:normal;solid-color:#000000;color-rendering:auto;image-rendering:auto;shape-rendering:auto"
       id="path4"
       inkscape:connector-curvature="0" />
  </g>
</svg>
