<?xml version="1.0" encoding="UTF-8" standalone="no"?>
<!-- Created with Inkscape (http://www.inkscape.org/) -->

<svg
   xmlns:dc="http://purl.org/dc/elements/1.1/"
   xmlns:cc="http://creativecommons.org/ns#"
   xmlns:rdf="http://www.w3.org/1999/02/22-rdf-syntax-ns#"
   xmlns:svg="http://www.w3.org/2000/svg"
   xmlns="http://www.w3.org/2000/svg"
   xmlns:sodipodi="http://sodipodi.sourceforge.net/DTD/sodipodi-0.dtd"
   xmlns:inkscape="http://www.inkscape.org/namespaces/inkscape"
   width="210mm"
   height="297mm"
   viewBox="0 0 210 297"
   version="1.1"
   id="svg5663"
   inkscape:version="0.92.2 (5c3e80d, 2017-08-06)"
   sodipodi:docname="Community.svg">
  <defs
     id="defs5657">
    <clipPath
       clipPathUnits="userSpaceOnUse"
       id="clipPath42-49-5">
      <path
         inkscape:connector-curvature="0"
         d="M 0,367 H 382 V 0 H 0 Z"
         id="path44-5-0" />
    </clipPath>
    <clipPath
       id="_clip1">
      <rect
         id="rect93"
         height="39"
         width="38"
         y="0"
         x="0" />
    </clipPath>
    <clipPath
       id="_clip2">
      <rect
         id="rect96"
         height="38"
         width="38"
         y="0.417"
         x="0" />
    </clipPath>
    <filter
       id="a">
      <feGaussianBlur
         id="feGaussianBlur10"
         stdDeviation="12.37239" />
    </filter>
  </defs>
  <sodipodi:namedview
     id="base"
     pagecolor="#ffffff"
     bordercolor="#666666"
     borderopacity="1.0"
     inkscape:pageopacity="0.0"
     inkscape:pageshadow="2"
     inkscape:zoom="0.98994949"
     inkscape:cx="35.71341"
     inkscape:cy="583.77211"
     inkscape:document-units="mm"
     inkscape:current-layer="layer1"
     showgrid="false"
     inkscape:window-width="1914"
     inkscape:window-height="2019"
     inkscape:window-x="-10"
     inkscape:window-y="0"
     inkscape:window-maximized="0" />
  <metadata
     id="metadata5660">
    <rdf:RDF>
      <cc:Work
         rdf:about="">
        <dc:format>image/svg+xml</dc:format>
        <dc:type
           rdf:resource="http://purl.org/dc/dcmitype/StillImage" />
        <dc:title></dc:title>
      </cc:Work>
    </rdf:RDF>
  </metadata>
  <g
     inkscape:label="Ebene 1"
     inkscape:groupmode="layer"
     id="layer1">
    <g
       style="display:inline;opacity:1"
       id="g50"
       transform="matrix(0.30102461,0,0,0.30102461,-61.259846,-124.46247)">
      <path
         id="path15"
         d="m 182.64,519.49 c -16.874,0 -30.558,13.763 -30.558,30.741 0,13.206 8.2778,24.464 19.895,28.816 v 6.0608 c -27.704,2.1634 -39.816,13.206 -41.555,32.851 l -6.466,73.033 c 6.7457,10.808 13.492,5.143 20.237,0 l 6.4661,-65.131 c 0.29095,-2.931 1.3163,-5.6699 3.5593,-7.9101 l -5.2225,83.823 c -0.18117,2.9076 1.1207,5.6224 3.0572,7.9125 -0.3362,1.8055 -0.42098,3.7876 -0.52638,5.8645 l -4.6292,91.151 c -0.49482,9.7452 3.5498,17.617 7.9633,17.617 h 10.243 c 4.4135,0 7.8273,-7.8584 7.9633,-17.617 l 1.2549,-90.052 h 16.053 c 0,0.004 -6e-5,0.007 0,0.01 l 1.1214,91.316 c 0.1198,9.7579 3.5498,17.617 7.9633,17.617 h 10.243 c 4.4135,0 8.4431,-7.8725 7.9633,-17.617 l -4.4957,-91.316 c -0.13558,-2.7524 -0.32518,-5.3317 -0.89596,-7.5628 1.6441,-2.1606 2.7513,-4.6612 2.5862,-7.3231 l -5.2225,-84.151 c -0.0441,-0.70965 -0.081,-1.4064 -0.23311,-2.0847 4.0713,2.5304 6.1924,6.2372 6.6292,10.323 l 6.9634,65.131 c 8.539,8.0638 14.464,6.2329 19.227,0 l -6.9634,-73.033 c -1.9124,-20.058 -14.467,-31.149 -43.389,-32.969 v -5.4472 c 12.361,-3.9384 21.318,-15.572 21.318,-29.312 0,-16.979 -13.676,-30.741 -30.55,-30.741 z"
         inkscape:connector-curvature="0"
         style="fill:#0084c8" />
      <path
         id="path17"
         d="m 216.22,761.93 c -17.747,0 -31.549,15.745 -32.031,35.265 l -4.5,182.66 h -64.562 l -5.0312,-180.15 c -0.54671,-19.52 -14.285,-35.227 -32.031,-35.227 h -41.188 c -17.747,0 -33.99,15.735 -32,35.227 l 18.594,182.36 c 0.42409,4.1547 0.77308,8.1183 2.125,11.73 -7.7868,4.5814 -13.01,10.036 -12.281,15.852 l 21,167.67 c -9.0193,-4.4816 -13.142,-9.9511 -14.312,-15.815 l -26,-130.3 c -27.125,-10.288 -54.25,-21.62 -81.375,0 l 2.5312,14.166 c -6.0852,2.6181 -11.28,7.2945 -14.438,13.229 -9.5622,-5.9657 -20.306,-9.6931 -32.969,-9.8188 l 5.625,-56.776 c 1.7462,-17.643 -12.938,-31.892 -29,-31.892 h -37.25 c -5.9974,0 -11.504,1.9906 -16.062,5.3965 l 13.562,-136.82 c 1.9021,-19.22 -14.097,-34.778 -31.594,-34.778 h -40.594 c -17.497,0 -31.087,15.532 -31.562,34.778 l -3.4375,138.66 c -4.416,-3.1072 -9.6692,-4.9094 -15.375,-4.9094 h -37.25 c -4.6503,0 -9.1931,1.2098 -13.25,3.3354 l -3.75,-134.58 c -0.53903,-19.246 -14.097,-34.778 -31.594,-34.778 h -40.594 c -17.497,0 -33.524,15.559 -31.562,34.778 l 18.344,179.77 c 0.41809,4.0959 0.76087,7.9816 2.0938,11.543 -7.6772,4.5169 -12.843,9.8926 -12.125,15.627 l 19.5,155.86 c -2.7311,0.6568 -5.4564,1.5752 -8.1875,2.8107 -2.6271,-2.8078 -4.0952,-5.8321 -4.7188,-8.9568 l -25.625,-128.47 c -26.744,-10.143 -53.506,-21.316 -80.25,0 l 25.625,144.06 c 4.8733,27.384 30.336,46.272 83.594,56.514 l 9.9375,55.876 c -4.9224,6.5988 -7.6562,13.715 -7.6562,21.174 0,33.487 54.258,60.636 121.16,60.636 11.817,0 23.235,-0.8568 34.031,-2.4361 2.414,0.1161 4.8299,0.241 7.3125,0.3374 v 10.98 c -42.281,7.8807 -72.406,28.256 -72.406,52.166 0,30.741 49.806,55.652 111.22,55.652 61.414,0 111.19,-24.91 111.19,-55.652 0,-24.878 -32.608,-45.935 -77.594,-53.066 v -9.8562 c 20.766,-0.6499 39.18,-1.9824 55.469,-3.9348 l 3.5,19.75 c 6.244,35.085 49.702,54.823 149.16,58.687 v 10.83 c -41.706,7.7737 -71.406,27.869 -71.406,51.454 0,30.323 49.11,54.902 109.69,54.902 60.58,0 109.69,-24.579 109.69,-54.902 0,-24.54 -32.157,-45.32 -76.531,-52.354 v -9.7438 c 103.83,-3.25 148.88,-23.052 155.75,-58.874 l 8,-41.711 4.6875,26.346 c 5.8507,32.875 46.592,51.357 139.78,54.977 v 10.156 c -39.079,7.2841 -66.906,26.132 -66.906,48.231 0,28.413 46.019,51.417 102.78,51.417 56.761,0 102.78,-23.004 102.78,-51.417 0,-22.994 -30.14,-42.465 -71.719,-49.056 v -9.1442 c 21.028,-0.6583 39.484,-2.0195 55.562,-4.1224 21.002,18.837 61.22,31.555 107.38,31.555 v 0.037 c 45.471,2e-4 85.135,-12.388 106.38,-30.768 19.76,3.4525 43.302,5.7035 71.094,6.7831 v 11.28 c -43.348,8.0798 -74.219,28.964 -74.219,53.478 0,31.518 51.068,57.076 114.03,57.076 62.962,0 113.97,-25.558 113.97,-57.076 0,-25.506 -33.41,-47.104 -79.531,-54.415 v -10.118 c 107.92,-3.3781 154.77,-23.965 161.91,-61.198 l 1.125,-5.8462 c 39.384,-10.007 66.375,-30.491 66.375,-54.115 0,-19.478 -18.33,-36.802 -46.844,-47.894 l 4.4375,-23.048 c 84.96,-7.301 123.33,-28.291 129.91,-62.622 l 27.625,-144.06 c -18.881,-12.293 -42.366,-15.904 -76.219,0 l -27.625,128.47 c -1.7317,8.0579 -10.14,15.359 -26.281,20.349 0.6033,-1.3377 0.7629,-2.6851 0.9376,-4.0849 l 20.687,-165.98 c 0.6549,-5.2499 -3.7319,-10.204 -10.25,-14.466 2.263,-4.4003 3.0253,-9.4868 3.5626,-14.915 l 17.812,-180.07 c 1.9022,-19.22 -14.065,-34.778 -31.562,-34.778 h -40.594 c -17.497,0 -31.119,15.532 -31.594,34.778 l -4.4375,180.07 c -1.7e-4,0.01 0,0.023 0,0.037 h -63.625 l -5,-177.6 c -0.53903,-19.246 -14.065,-34.778 -31.562,-34.778 h -40.594 c -17.497,0 -33.556,15.559 -31.594,34.778 l 18.375,179.77 c 0.41809,4.096 0.72962,7.9814 2.0625,11.542 -7.6773,4.5169 -12.812,9.8927 -12.094,15.628 l 12.562,100.47 c -5.3886,-3.4659 -11.147,-6.2681 -17.406,-8.0948 l -14.219,-71.128 c -8.6492,-3.2807 -17.288,-6.6323 -25.938,-8.9943 l -0.0937,-3.7851 c -0.50737,-18.114 -13.251,-32.679 -29.719,-32.679 h -21.812 l 10.812,-109.13 c 1.9292,-19.494 -14.285,-35.227 -32.031,-35.227 h -41.188 c -17.747,0 -31.518,15.707 -32,35.227 l -4.5312,182.69 h -64.531 l -5.0625,-180.15 c -0.54671,-19.52 -14.253,-35.227 -32,-35.227 h -41.188 c -17.747,0 -34.021,15.735 -32.031,35.227 l 14.719,144.47 h -8.4062 c -14.846,0 -26.378,13.164 -26.781,29.494 l -1.3125,53.403 c -19.781,-7.2621 -39.563,-12.65 -59.344,-2.9981 l -0.34375,-12.779 16.219,-84.658 c -19.151,-12.469 -42.977,-16.131 -77.312,0 l -4.2812,19.862 c -13.563,1.6907 -25.202,14.157 -23.656,29.306 l 5.5938,54.827 -5.6562,26.308 c -1.7564,8.173 -10.285,15.587 -26.656,20.649 0.61187,-1.357 0.76039,-2.7775 0.9375,-4.1974 l 21,-168.3 c 0.66427,-5.3248 -3.7952,-10.331 -10.406,-14.653 2.2954,-4.463 3.0489,-9.6341 3.5938,-15.14 l 18.094,-182.66 c 1.9292,-19.494 -14.285,-35.265 -32.031,-35.265 h -41.188 z m -318.12,317.61 12.031,117.67 c -5.4428,1.563 -11.198,3.7083 -17.344,6.5958 l -15.75,73.265 c -8.2057,-2.9767 -16.419,-5.5158 -24.625,-6.4833 l 4.6875,-37.663 c 9.5382,-8.3873 15.121,-18.22 17.281,-29.494 l 23.719,-123.9 z m 938.47,57.263 7.125,57.113 -0.125,5.9586 c -8.2257,-4.3247 -12.045,-9.5343 -13.156,-15.103 l -1.5625,-7.795 7.7188,-40.174 z m -461.94,74.502 3.5312,19.75 h -2.9688 l -0.5625,-19.75 z m -378.78,16.527 c 9.2305,2.8949 19.642,5.385 31.344,7.4953 H -3.931 l -0.21875,-7.4953 z m 302.28,1.3117 0.375,3.7475 c 0.35434,3.4756 0.65002,6.7975 1.7812,9.8187 -6.5142,3.8326 -10.891,8.3631 -10.281,13.229 l 17.562,140.31 c -7.545,-3.7488 -10.99,-8.3611 -11.969,-13.266 l -21.75,-108.98 c -16.279,-6.1743 -32.565,-12.796 -48.844,-9.3691 -11.58,-4.6119 -24.845,-8.2048 -39.281,-10.493 v -10.905 c 48.278,-1.5113 85.165,-6.231 112.41,-14.091 z m -679.34,38.862 c 1.5681,0.069 3.0934,0.1628 4.6875,0.2247 v 11.955 c -0.73501,0.137 -1.4593,0.2685 -2.1875,0.4123 z m 1083.2,74.652 6,48.119 c -3.5231,-3.6789 -7.7406,-7.1518 -12.594,-10.381 -0.10635,-0.3854 -0.2036,-0.7726 -0.28125,-1.1617 l -6.9688,-34.928 c 4.7654,-0.5017 9.3901,-1.0534 13.844,-1.6488 z m -201.34,0.8994 c 7.2392,0.8583 14.857,1.5828 22.875,2.211 l -5.25,24.434 c -8.5771,3.6003 -16.154,7.7719 -22.5,12.404 l 4.875,-39.05 z m -582.47,22.336 5.7188,45.72 c -8.0524,-4.0008 -11.705,-8.8936 -12.75,-14.128 l -4.8125,-24.172 c 4.4251,-2.2986 8.3868,-4.7791 11.844,-7.4201 z m 209.53,7.4951 c 6.794,0.5829 13.78,0.8994 20.906,0.8994 0.74531,0 1.4766,-0.031 2.2188,-0.037 l -5,23.235 c -1.5685,7.2965 -9.1967,13.919 -23.812,18.438 0.54606,-1.2115 0.68558,-2.4802 0.84375,-3.7476 l 4.8438,-38.787 z m 787.91,17.501 c 3.9098,0.7153 7.9137,1.3228 12,1.8364 -3.5758,2.1142 -7.998,4.0155 -13.312,5.6587 0.56766,-1.2589 0.71063,-2.5426 0.875,-3.8599 l 0.4375,-3.6352 z"
         transform="matrix(0.27477,0,0,0.22563,249.72,614.24)"
         inkscape:connector-curvature="0"
         style="fill:#cccccc;filter:url(#a)" />
      <path
         id="path19"
         d="m 473.5,485.06 c -17.3,0 -31.33,14.11 -31.33,31.517 0,13.539 8.4868,25.081 20.398,29.544 v 6.2138 c -28.403,2.218 -40.821,13.54 -42.604,33.681 l -6.6292,74.876 c 6.916,11.081 13.832,5.2728 20.748,0 l 6.6293,-66.775 c 0.2983,-3.0051 1.3495,-5.8131 3.6492,-8.1098 l -5.3544,85.939 c -0.18574,2.981 1.149,5.7642 3.1344,8.1122 -0.34472,1.851 -0.43165,3.8833 -0.53973,6.0124 l -4.746,93.453 c -0.50732,9.9906 3.6394,18.062 8.1643,18.062 h 10.502 c 4.5249,0 8.0249,-8.0572 8.1643,-18.062 l 1.2865,-92.326 h 16.458 c 0,0.005 -5e-5,0.007 0,0.01 l 1.1498,93.621 c 0.12283,10.004 3.6394,18.062 8.1643,18.062 h 10.502 c 4.5249,0 8.6562,-8.0711 8.1643,-18.062 l -4.6092,-93.621 c -0.13898,-2.8219 -0.33336,-5.4663 -0.91856,-7.7538 1.6856,-2.2151 2.8208,-4.7788 2.6514,-7.5079 l -5.3544,-86.275 c -0.0452,-0.72758 -0.083,-1.442 -0.239,-2.1374 4.1742,2.5942 6.3488,6.3947 6.7966,10.583 l 7.1392,66.775 c 8.7546,8.2674 14.829,6.3903 19.713,0 l -7.1393,-74.876 c -1.9608,-20.564 -14.832,-31.935 -44.484,-33.801 v -5.5847 c 12.673,-4.0379 21.856,-15.965 21.856,-30.052 0,-17.407 -14.021,-31.517 -31.322,-31.517 z"
         inkscape:connector-curvature="0"
         style="fill:#ff6600" />
      <path
         id="path21"
         d="m 360.49,493.72 c -15.596,0 -28.244,12.72 -28.244,28.413 0,12.206 7.6509,22.611 18.389,26.634 v 5.6018 c -25.606,1.9995 -36.8,12.206 -38.408,30.363 l -5.9762,67.502 c 6.2348,9.9894 12.47,4.7536 18.705,0 l 5.9764,-60.198 c 0.26887,-2.7092 1.2166,-5.2405 3.2897,-7.311 l -4.827,77.475 c -0.16745,2.6874 1.0359,5.1964 2.8258,7.3132 -0.31083,1.6687 -0.38919,3.5008 -0.48654,5.4202 l -4.2787,84.249 c -0.45731,9.0063 3.2809,16.283 7.3602,16.283 h 9.4674 c 4.0792,0 7.2345,-7.2639 7.3602,-16.283 l 1.1599,-83.233 h 14.837 c 0,0.004 -6e-5,0.007 0,0.008 l 1.0364,84.4 c 0.11069,9.0189 3.281,16.283 7.3602,16.283 h 9.4674 c 4.0792,0 7.8037,-7.2759 7.3602,-16.283 l -4.1552,-84.4 c -0.12544,-2.544 -0.30066,-4.928 -0.82811,-6.9902 1.5196,-1.9968 2.5429,-4.308 2.3903,-6.7684 l -4.827,-77.778 c -0.0408,-0.65589 -0.0748,-1.2999 -0.21543,-1.9269 3.7629,2.3388 5.7233,5.7649 6.1272,9.5409 l 6.436,60.198 c 7.8924,7.4533 13.369,5.761 17.771,0 l -6.4359,-67.502 c -1.7677,-18.539 -13.371,-28.79 -40.103,-30.472 v -5.0347 c 11.425,-3.6402 19.703,-14.393 19.703,-27.092 0,-15.693 -12.64,-28.413 -28.237,-28.413 z"
         inkscape:connector-curvature="0"
         style="fill:#9ade00" />
      <path
         id="path23"
         d="m 256.84,479.12 c -16.645,0 -30.143,13.576 -30.143,30.324 0,13.026 8.1654,24.131 19.625,28.425 v 5.9784 c -27.327,2.134 -39.274,13.027 -40.99,32.405 l -6.378,72.04 c 6.654,10.661 13.308,5.0731 19.962,0 l 6.3782,-64.246 c 0.28704,-2.8913 1.2985,-5.5928 3.511,-7.8026 l -5.1516,82.683 c -0.1787,2.8681 1.1055,5.5458 3.0157,7.8049 -0.33164,1.7809 -0.41528,3.7362 -0.5193,5.7846 l -4.5662,89.913 c -0.48808,9.6118 3.5016,17.378 7.8551,17.378 h 10.104 c 4.3535,0 7.721,-7.7523 7.8551,-17.378 l 1.2377,-88.829 h 15.835 c 0,0.004 -4e-5,0.007 0,0.01 l 1.1062,90.075 c 0.1182,9.6252 3.5016,17.377 7.8551,17.377 h 10.104 c 4.3535,0 8.3283,-7.7651 7.855,-17.377 l -4.4346,-90.074 c -0.1338,-2.715 -0.3208,-5.2593 -0.88377,-7.4601 1.6217,-2.1311 2.7139,-4.5977 2.551,-7.2235 l -5.1516,-83.007 c -0.0434,-0.70001 -0.0799,-1.3873 -0.22993,-2.0564 4.016,2.496 6.1081,6.1524 6.5391,10.182 l 6.8688,64.246 c 8.4229,7.9544 14.268,6.1483 18.966,0 l -6.8686,-72.04 c -1.8865,-19.785 -14.27,-30.726 -42.799,-32.521 v -5.3732 c 12.193,-3.8849 21.028,-15.36 21.028,-28.914 0,-16.748 -13.49,-30.324 -30.135,-30.324 z"
         inkscape:connector-curvature="0"
         style="fill:#ff9900" />
      <path
         id="path25"
         d="m 290.54,596.85 c -18.644,0 -33.762,15.206 -33.762,33.965 0,14.59 9.146,27.029 21.982,31.838 v 6.6964 c -30.609,2.3902 -43.991,14.591 -45.912,36.296 l -7.144,80.691 c 7.4532,11.941 14.906,5.6823 22.359,0 l 7.144,-71.961 c 0.32152,-3.2385 1.4544,-6.2645 3.9327,-8.7397 l -5.7702,92.613 c -0.20016,3.2126 1.2382,6.2119 3.3778,8.7422 -0.37146,1.9948 -0.46515,4.1849 -0.58168,6.4794 l -5.1145,100.71 c -0.54674,10.766 3.9221,19.464 8.7984,19.464 h 11.317 c 4.8763,0 8.6481,-8.6834 8.7984,-19.464 l 1.3864,-99.496 h 17.736 c 0,0.005 -4e-5,0.007 0,0.0107 l 1.2391,100.89 c 0.1324,10.781 3.9221,19.464 8.7984,19.464 h 11.317 c 4.8763,0 9.3284,-8.6974 8.7984,-19.464 l -4.9673,-100.89 c -0.14972,-3.041 -0.35918,-5.8909 -0.98988,-8.3559 1.8165,-2.3871 3.0399,-5.15 2.8574,-8.091 l -5.7702,-92.975 c -0.0487,-0.78412 -0.0895,-1.5539 -0.2576,-2.3033 4.4984,2.7957 6.8417,6.8912 7.3244,11.405 l 7.6936,71.961 c 9.4345,8.9094 15.981,6.8865 21.243,0 l -7.6936,-80.691 c -2.113,-22.161 -15.984,-34.416 -47.939,-36.426 v -6.0184 c 13.657,-4.3515 23.553,-17.205 23.553,-32.386 0,-18.759 -15.11,-33.965 -33.754,-33.965 z"
         inkscape:connector-curvature="0"
         style="fill:#ff4141" />
      <path
         id="path27"
         d="m 401.24,623 c -18.382,0 -33.288,14.992 -33.288,33.487 0,14.385 9.0173,26.649 21.673,31.39 v 6.6022 c -30.178,2.3566 -43.372,14.386 -45.267,35.786 l -7.0436,79.557 c 7.3483,11.773 14.697,5.6024 22.045,0 l 7.0436,-70.949 c 0.31698,-3.193 1.4339,-6.1765 3.8773,-8.6168 l -5.689,91.31 c -0.19734,3.1674 1.2208,6.1246 3.3303,8.6193 -0.36623,1.9668 -0.4586,4.126 -0.57348,6.3883 l -5.0426,99.294 c -0.53906,10.615 3.8669,19.191 8.6746,19.191 h 11.158 c 4.8077,0 8.5265,-8.5612 8.6746,-19.191 l 1.3669,-98.097 h 17.487 c 0,0.004 -5e-5,0.007 0,0.0107 l 1.2216,99.473 c 0.13054,10.63 3.8669,19.191 8.6746,19.191 h 11.158 c 4.8077,0 9.1973,-8.5752 8.6746,-19.191 l -4.8974,-99.473 c -0.14763,-2.9983 -0.35415,-5.808 -0.97596,-8.2384 1.791,-2.3535 2.9972,-5.0775 2.8172,-7.9772 l -5.6891,-91.668 c -0.048,-0.77309 -0.0881,-1.5321 -0.25396,-2.271 4.4351,2.7564 6.7456,6.7943 7.2214,11.245 l 7.5854,70.949 c 9.3018,8.7842 15.756,6.7897 20.944,0 l -7.5854,-79.556 c -2.0832,-21.849 -15.759,-33.932 -47.265,-35.914 v -5.9338 c 13.465,-4.2903 23.222,-16.963 23.222,-31.931 0,-18.495 -14.898,-33.487 -33.279,-33.487 z"
         inkscape:connector-curvature="0"
         style="fill:#d76cff" />
      <path
         id="path29"
         d="m 157.87,583.94 c -18.382,0 -33.288,14.992 -33.288,33.487 0,14.385 9.0173,26.649 21.673,31.39 v 6.6022 c -30.178,2.3566 -43.372,14.386 -45.267,35.786 l -7.0436,79.557 c 7.3483,11.773 14.697,5.6024 22.045,0 l 7.0436,-70.949 c 0.31698,-3.193 1.4339,-6.1764 3.8773,-8.6168 l -5.689,91.31 c -0.19735,3.1674 1.2208,6.1246 3.3303,8.6193 -0.36624,1.9668 -0.4586,4.126 -0.57349,6.3883 l -5.0426,99.294 c -0.53906,10.615 3.8669,19.191 8.6746,19.191 h 11.158 c 4.8077,0 8.5265,-8.5612 8.6746,-19.191 l 1.3669,-98.097 h 17.487 c 0,0.004 -4e-5,0.007 0,0.0107 l 1.2216,99.473 c 0.13054,10.63 3.8669,19.191 8.6746,19.191 h 11.158 c 4.8077,0 9.1973,-8.5752 8.6746,-19.191 l -4.8974,-99.473 c -0.14764,-2.9983 -0.35416,-5.808 -0.97597,-8.2384 1.791,-2.3535 2.9971,-5.0775 2.8172,-7.9772 l -5.6891,-91.668 c -0.0479,-0.7731 -0.0882,-1.5321 -0.25397,-2.271 4.4351,2.7564 6.7456,6.7943 7.2214,11.245 l 7.5854,70.949 c 9.3018,8.7842 15.756,6.7897 20.944,0 l -7.5854,-79.556 c -2.0832,-21.849 -15.759,-33.932 -47.265,-35.914 v -5.9338 c 13.465,-4.2903 23.222,-16.963 23.222,-31.931 0,-18.495 -14.898,-33.487 -33.279,-33.487 z"
         inkscape:connector-curvature="0"
         style="fill:#19aeff" />
      <path
         id="path31"
         d="m 506.44,590.74 c -18.382,0 -33.288,14.992 -33.288,33.487 0,14.385 9.0173,26.649 21.673,31.39 v 6.6022 c -30.178,2.3566 -43.372,14.386 -45.267,35.786 l -7.0436,79.557 c 7.3483,11.773 14.697,5.6023 22.045,0 l 7.0436,-70.949 c 0.31699,-3.193 1.4339,-6.1765 3.8774,-8.6168 l -5.689,91.31 c -0.19736,3.1674 1.2208,6.1246 3.3303,8.6193 -0.36623,1.9668 -0.4586,4.126 -0.57348,6.3883 l -5.0426,99.294 c -0.53904,10.615 3.867,19.191 8.6746,19.191 h 11.158 c 4.8077,0 8.5265,-8.5612 8.6746,-19.191 l 1.3669,-98.097 h 17.487 c 0,0.004 -5e-5,0.007 0,0.0107 l 1.2216,99.473 c 0.13054,10.63 3.8669,19.191 8.6747,19.191 h 11.158 c 4.8077,0 9.1973,-8.5752 8.6746,-19.191 l -4.8974,-99.473 c -0.14763,-2.9983 -0.35415,-5.808 -0.97595,-8.2384 1.791,-2.3535 2.9971,-5.0775 2.8172,-7.9772 l -5.6891,-91.668 c -0.0479,-0.77308 -0.0882,-1.5321 -0.25397,-2.271 4.4351,2.7564 6.7456,6.7943 7.2214,11.245 l 7.5854,70.949 c 9.3018,8.7842 15.756,6.7897 20.944,0 l -7.5854,-79.556 c -2.0833,-21.849 -15.759,-33.932 -47.265,-35.914 v -5.9338 c 13.465,-4.2903 23.222,-16.963 23.222,-31.931 0,-18.495 -14.898,-33.487 -33.279,-33.487 z"
         inkscape:connector-curvature="0"
         style="fill:#666666" />
    </g>
  </g>
</svg>
